<mxfile host="app.diagrams.net" modified="2022-09-21T08:03:25.379Z" agent="5.0 (Windows NT 10.0; Win64; x64) AppleWebKit/537.36 (KHTML, like Gecko) Chrome/105.0.0.0 Safari/537.36 Edg/105.0.1343.42" etag="ckWQxnvjjlCtIz5JGJ6g" version="20.3.3" type="github" pages="9">
  <diagram id="pdduZCXTj9wSqDZN8CKR" name="内部类">
    <mxGraphModel dx="1037" dy="547" grid="1" gridSize="10" guides="1" tooltips="1" connect="1" arrows="1" fold="1" page="1" pageScale="1" pageWidth="827" pageHeight="1169" background="#EEEEEE" math="0" shadow="0">
      <root>
        <mxCell id="0" />
        <mxCell id="1" parent="0" />
        <mxCell id="Zs1OIONppMQEbX-3yjYK-1" value="&lt;b&gt;&lt;font face=&quot;Comic Sans MS&quot; style=&quot;font-size: 18px;&quot;&gt;Transferer&lt;/font&gt;&lt;/b&gt;" style="rounded=1;whiteSpace=wrap;html=1;strokeColor=#F5AB50;fontColor=#1A1A1A;fillColor=#F5AB50;shadow=0;" parent="1" vertex="1">
          <mxGeometry x="250" y="20" width="160" height="70" as="geometry" />
        </mxCell>
        <mxCell id="Zs1OIONppMQEbX-3yjYK-4" style="edgeStyle=orthogonalEdgeStyle;rounded=0;orthogonalLoop=1;jettySize=auto;html=1;entryX=0.5;entryY=1;entryDx=0;entryDy=0;strokeColor=#182E3E;fontFamily=Comic Sans MS;fontSize=18;fontColor=#1A1A1A;" parent="1" source="Zs1OIONppMQEbX-3yjYK-2" target="Zs1OIONppMQEbX-3yjYK-1" edge="1">
          <mxGeometry relative="1" as="geometry" />
        </mxCell>
        <mxCell id="Zs1OIONppMQEbX-3yjYK-2" value="&lt;b&gt;&lt;font face=&quot;Comic Sans MS&quot; style=&quot;font-size: 18px;&quot;&gt;TransfererStack&lt;/font&gt;&lt;/b&gt;" style="rounded=1;whiteSpace=wrap;html=1;strokeColor=#F5AB50;fontColor=#1A1A1A;fillColor=#F5AB50;" parent="1" vertex="1">
          <mxGeometry x="30" y="180" width="160" height="70" as="geometry" />
        </mxCell>
        <mxCell id="Zs1OIONppMQEbX-3yjYK-5" style="edgeStyle=orthogonalEdgeStyle;rounded=0;orthogonalLoop=1;jettySize=auto;html=1;strokeColor=#182E3E;fontFamily=Comic Sans MS;fontSize=18;fontColor=#1A1A1A;" parent="1" source="Zs1OIONppMQEbX-3yjYK-3" edge="1">
          <mxGeometry relative="1" as="geometry">
            <mxPoint x="330" y="90" as="targetPoint" />
          </mxGeometry>
        </mxCell>
        <mxCell id="Zs1OIONppMQEbX-3yjYK-3" value="&lt;b&gt;&lt;font face=&quot;Comic Sans MS&quot; style=&quot;font-size: 18px;&quot;&gt;TransfererQueue&lt;/font&gt;&lt;/b&gt;" style="rounded=1;whiteSpace=wrap;html=1;strokeColor=#F5AB50;fontColor=#1A1A1A;fillColor=#F5AB50;" parent="1" vertex="1">
          <mxGeometry x="450" y="180" width="160" height="70" as="geometry" />
        </mxCell>
        <mxCell id="Zs1OIONppMQEbX-3yjYK-6" value="&lt;b&gt;extends&lt;/b&gt;" style="text;html=1;strokeColor=#F5F5F5;fillColor=#F5F5F5;align=center;verticalAlign=middle;whiteSpace=wrap;rounded=1;fontFamily=Comic Sans MS;fontSize=18;fontColor=#333333;shadow=1;" parent="1" vertex="1">
          <mxGeometry x="210" y="130" width="90" height="40" as="geometry" />
        </mxCell>
        <mxCell id="Zs1OIONppMQEbX-3yjYK-7" value="&lt;b&gt;extends&lt;/b&gt;" style="text;html=1;strokeColor=#F5F5F5;fillColor=#F5F5F5;align=center;verticalAlign=middle;whiteSpace=wrap;rounded=1;fontFamily=Comic Sans MS;fontSize=18;fontColor=#333333;shadow=1;" parent="1" vertex="1">
          <mxGeometry x="340" y="130" width="90" height="40" as="geometry" />
        </mxCell>
        <mxCell id="Zs1OIONppMQEbX-3yjYK-18" style="edgeStyle=orthogonalEdgeStyle;rounded=0;orthogonalLoop=1;jettySize=auto;html=1;entryX=0.5;entryY=1;entryDx=0;entryDy=0;strokeColor=#182E3E;fontFamily=Comic Sans MS;fontSize=18;fontColor=#1A1A1A;" parent="1" source="Zs1OIONppMQEbX-3yjYK-13" target="Zs1OIONppMQEbX-3yjYK-17" edge="1">
          <mxGeometry relative="1" as="geometry" />
        </mxCell>
        <mxCell id="Zs1OIONppMQEbX-3yjYK-13" value="&lt;b&gt;&lt;font face=&quot;Comic Sans MS&quot; style=&quot;font-size: 18px;&quot;&gt;WaitQueue&lt;/font&gt;&lt;/b&gt;" style="rounded=1;whiteSpace=wrap;html=1;strokeColor=#F5AB50;fontColor=#1A1A1A;fillColor=#F5AB50;" parent="1" vertex="1">
          <mxGeometry x="300" y="660" width="160" height="70" as="geometry" />
        </mxCell>
        <mxCell id="Zs1OIONppMQEbX-3yjYK-14" value="" style="rounded=1;whiteSpace=wrap;html=1;shadow=1;strokeColor=#9673A6;fontFamily=Comic Sans MS;fontSize=18;fillColor=#9673A6;" parent="1" vertex="1">
          <mxGeometry y="410" width="820" height="30" as="geometry" />
        </mxCell>
        <mxCell id="Zs1OIONppMQEbX-3yjYK-19" style="edgeStyle=orthogonalEdgeStyle;rounded=0;orthogonalLoop=1;jettySize=auto;html=1;entryX=0.5;entryY=1;entryDx=0;entryDy=0;strokeColor=#182E3E;fontFamily=Comic Sans MS;fontSize=18;fontColor=#1A1A1A;" parent="1" source="Zs1OIONppMQEbX-3yjYK-15" target="Zs1OIONppMQEbX-3yjYK-13" edge="1">
          <mxGeometry relative="1" as="geometry" />
        </mxCell>
        <mxCell id="Zs1OIONppMQEbX-3yjYK-15" value="&lt;b&gt;&lt;font face=&quot;Comic Sans MS&quot; style=&quot;font-size: 18px;&quot;&gt;LifoWaitQueue&lt;/font&gt;&lt;/b&gt;" style="rounded=1;whiteSpace=wrap;html=1;strokeColor=#F5AB50;fontColor=#1A1A1A;fillColor=#F5AB50;" parent="1" vertex="1">
          <mxGeometry x="80" y="810" width="160" height="70" as="geometry" />
        </mxCell>
        <mxCell id="Zs1OIONppMQEbX-3yjYK-20" style="edgeStyle=orthogonalEdgeStyle;rounded=0;orthogonalLoop=1;jettySize=auto;html=1;entryX=0.5;entryY=1;entryDx=0;entryDy=0;strokeColor=#182E3E;fontFamily=Comic Sans MS;fontSize=18;fontColor=#1A1A1A;" parent="1" source="Zs1OIONppMQEbX-3yjYK-16" target="Zs1OIONppMQEbX-3yjYK-13" edge="1">
          <mxGeometry relative="1" as="geometry" />
        </mxCell>
        <mxCell id="Zs1OIONppMQEbX-3yjYK-16" value="&lt;b&gt;&lt;font face=&quot;Comic Sans MS&quot; style=&quot;font-size: 18px;&quot;&gt;FifoWaitQueue&lt;/font&gt;&lt;/b&gt;" style="rounded=1;whiteSpace=wrap;html=1;strokeColor=#F5AB50;fontColor=#1A1A1A;fillColor=#F5AB50;" parent="1" vertex="1">
          <mxGeometry x="500" y="810" width="160" height="70" as="geometry" />
        </mxCell>
        <mxCell id="Zs1OIONppMQEbX-3yjYK-17" value="&lt;b&gt;&lt;font face=&quot;Comic Sans MS&quot; style=&quot;font-size: 18px;&quot;&gt;Serializable&lt;/font&gt;&lt;/b&gt;" style="rounded=1;whiteSpace=wrap;html=1;strokeColor=#F5AB50;fontColor=#1A1A1A;fillColor=#F5AB50;" parent="1" vertex="1">
          <mxGeometry x="300" y="500" width="160" height="70" as="geometry" />
        </mxCell>
        <mxCell id="Zs1OIONppMQEbX-3yjYK-21" value="&lt;b&gt;Last in&amp;nbsp; First&amp;nbsp; out&lt;/b&gt;" style="text;html=1;strokeColor=#82B366;fillColor=#82B366;align=center;verticalAlign=middle;whiteSpace=wrap;rounded=1;shadow=1;fontFamily=Comic Sans MS;fontSize=18;" parent="1" vertex="1">
          <mxGeometry x="70" y="930" width="180" height="50" as="geometry" />
        </mxCell>
        <mxCell id="Zs1OIONppMQEbX-3yjYK-22" value="&lt;b&gt;First&amp;nbsp; in&amp;nbsp; First&amp;nbsp; out&lt;/b&gt;" style="text;html=1;strokeColor=#82B366;fillColor=#82B366;align=center;verticalAlign=middle;whiteSpace=wrap;rounded=1;shadow=1;fontFamily=Comic Sans MS;fontSize=18;" parent="1" vertex="1">
          <mxGeometry x="490" y="940" width="180" height="50" as="geometry" />
        </mxCell>
      </root>
    </mxGraphModel>
  </diagram>
  <diagram name="内部类 -WaitQueue" id="VDRoNU_0cAtg3l7fg9Pw">
    <mxGraphModel dx="1037" dy="547" grid="1" gridSize="10" guides="1" tooltips="1" connect="1" arrows="1" fold="1" page="1" pageScale="1" pageWidth="827" pageHeight="1169" background="#EEEEEE" math="0" shadow="0">
      <root>
        <mxCell id="CJn73PqLoYrInAiRFC2U-0" />
        <mxCell id="CJn73PqLoYrInAiRFC2U-1" parent="CJn73PqLoYrInAiRFC2U-0" />
        <mxCell id="CJn73PqLoYrInAiRFC2U-9" style="edgeStyle=orthogonalEdgeStyle;rounded=0;orthogonalLoop=1;jettySize=auto;html=1;entryX=0.5;entryY=1;entryDx=0;entryDy=0;strokeColor=#182E3E;fontFamily=Comic Sans MS;fontSize=18;fontColor=#1A1A1A;" parent="CJn73PqLoYrInAiRFC2U-1" source="CJn73PqLoYrInAiRFC2U-10" target="CJn73PqLoYrInAiRFC2U-16" edge="1">
          <mxGeometry relative="1" as="geometry" />
        </mxCell>
        <mxCell id="CJn73PqLoYrInAiRFC2U-10" value="&lt;b&gt;&lt;font face=&quot;Comic Sans MS&quot; style=&quot;font-size: 18px;&quot;&gt;WaitQueue&lt;/font&gt;&lt;/b&gt;" style="rounded=1;whiteSpace=wrap;html=1;strokeColor=#F5AB50;fontColor=#1A1A1A;fillColor=#F5AB50;" parent="CJn73PqLoYrInAiRFC2U-1" vertex="1">
          <mxGeometry x="300" y="660" width="160" height="70" as="geometry" />
        </mxCell>
        <mxCell id="CJn73PqLoYrInAiRFC2U-12" style="edgeStyle=orthogonalEdgeStyle;rounded=0;orthogonalLoop=1;jettySize=auto;html=1;entryX=0.5;entryY=1;entryDx=0;entryDy=0;strokeColor=#182E3E;fontFamily=Comic Sans MS;fontSize=18;fontColor=#1A1A1A;" parent="CJn73PqLoYrInAiRFC2U-1" source="CJn73PqLoYrInAiRFC2U-13" target="CJn73PqLoYrInAiRFC2U-10" edge="1">
          <mxGeometry relative="1" as="geometry" />
        </mxCell>
        <mxCell id="CJn73PqLoYrInAiRFC2U-13" value="&lt;b&gt;&lt;font face=&quot;Comic Sans MS&quot; style=&quot;font-size: 18px;&quot;&gt;LifoWaitQueue&lt;/font&gt;&lt;/b&gt;" style="rounded=1;whiteSpace=wrap;html=1;strokeColor=#F5AB50;fontColor=#1A1A1A;fillColor=#F5AB50;" parent="CJn73PqLoYrInAiRFC2U-1" vertex="1">
          <mxGeometry x="80" y="810" width="160" height="70" as="geometry" />
        </mxCell>
        <mxCell id="CJn73PqLoYrInAiRFC2U-14" style="edgeStyle=orthogonalEdgeStyle;rounded=0;orthogonalLoop=1;jettySize=auto;html=1;entryX=0.5;entryY=1;entryDx=0;entryDy=0;strokeColor=#182E3E;fontFamily=Comic Sans MS;fontSize=18;fontColor=#1A1A1A;" parent="CJn73PqLoYrInAiRFC2U-1" source="CJn73PqLoYrInAiRFC2U-15" target="CJn73PqLoYrInAiRFC2U-10" edge="1">
          <mxGeometry relative="1" as="geometry" />
        </mxCell>
        <mxCell id="CJn73PqLoYrInAiRFC2U-15" value="&lt;b&gt;&lt;font face=&quot;Comic Sans MS&quot; style=&quot;font-size: 18px;&quot;&gt;FifoWaitQueue&lt;/font&gt;&lt;/b&gt;" style="rounded=1;whiteSpace=wrap;html=1;strokeColor=#F5AB50;fontColor=#1A1A1A;fillColor=#F5AB50;" parent="CJn73PqLoYrInAiRFC2U-1" vertex="1">
          <mxGeometry x="500" y="810" width="160" height="70" as="geometry" />
        </mxCell>
        <mxCell id="CJn73PqLoYrInAiRFC2U-16" value="&lt;b&gt;&lt;font face=&quot;Comic Sans MS&quot; style=&quot;font-size: 18px;&quot;&gt;Serializable&lt;/font&gt;&lt;/b&gt;" style="rounded=1;whiteSpace=wrap;html=1;strokeColor=#F5AB50;fontColor=#1A1A1A;fillColor=#F5AB50;" parent="CJn73PqLoYrInAiRFC2U-1" vertex="1">
          <mxGeometry x="300" y="500" width="160" height="70" as="geometry" />
        </mxCell>
        <mxCell id="CJn73PqLoYrInAiRFC2U-17" value="&lt;b&gt;Last in&amp;nbsp; First&amp;nbsp; out&lt;/b&gt;" style="text;html=1;strokeColor=#82B366;fillColor=#82B366;align=center;verticalAlign=middle;whiteSpace=wrap;rounded=1;shadow=1;fontFamily=Comic Sans MS;fontSize=18;" parent="CJn73PqLoYrInAiRFC2U-1" vertex="1">
          <mxGeometry x="70" y="930" width="180" height="50" as="geometry" />
        </mxCell>
        <mxCell id="CJn73PqLoYrInAiRFC2U-18" value="&lt;b&gt;First&amp;nbsp; in&amp;nbsp; First&amp;nbsp; out&lt;/b&gt;" style="text;html=1;strokeColor=#82B366;fillColor=#82B366;align=center;verticalAlign=middle;whiteSpace=wrap;rounded=1;shadow=1;fontFamily=Comic Sans MS;fontSize=18;" parent="CJn73PqLoYrInAiRFC2U-1" vertex="1">
          <mxGeometry x="490" y="940" width="180" height="50" as="geometry" />
        </mxCell>
      </root>
    </mxGraphModel>
  </diagram>
  <diagram name="TransfererQueue" id="qh519gDt9EpYNyzp5Fwu">
    <mxGraphModel dx="-2270" dy="1716" grid="1" gridSize="10" guides="1" tooltips="1" connect="1" arrows="1" fold="1" page="1" pageScale="1" pageWidth="827" pageHeight="1169" background="#EEEEEE" math="0" shadow="0">
      <root>
        <mxCell id="RRr4hbnB_NSRUYSK_yCE-0" />
        <mxCell id="RRr4hbnB_NSRUYSK_yCE-1" parent="RRr4hbnB_NSRUYSK_yCE-0" />
        <mxCell id="RTvg7lNcNGQBOAS71OXe-0" value="&lt;b&gt;TransfererQueue&lt;/b&gt;" style="rounded=1;whiteSpace=wrap;html=1;shadow=1;strokeColor=#82B366;strokeWidth=2;fontFamily=Comic Sans MS;fontSize=18;fontColor=#1A1A1A;fillColor=#82B366;" parent="RRr4hbnB_NSRUYSK_yCE-1" vertex="1">
          <mxGeometry x="3970" y="200" width="180" height="60" as="geometry" />
        </mxCell>
        <mxCell id="RTvg7lNcNGQBOAS71OXe-1" value="&lt;b&gt;QNode&lt;/b&gt;" style="rounded=1;whiteSpace=wrap;html=1;shadow=1;strokeColor=#D79B00;strokeWidth=2;fontFamily=Comic Sans MS;fontSize=18;fillColor=#D79B00;" parent="RRr4hbnB_NSRUYSK_yCE-1" vertex="1">
          <mxGeometry x="4471.5" y="-60" width="110" height="60" as="geometry" />
        </mxCell>
        <mxCell id="RTvg7lNcNGQBOAS71OXe-2" value="" style="shape=curlyBracket;whiteSpace=wrap;html=1;rounded=1;shadow=1;strokeColor=#82B366;strokeWidth=2;fontFamily=Comic Sans MS;fontSize=18;fontColor=#1A1A1A;fillColor=#82B366;rotation=90;" parent="RRr4hbnB_NSRUYSK_yCE-1" vertex="1">
          <mxGeometry x="4509" y="-230" width="35" height="500" as="geometry" />
        </mxCell>
        <mxCell id="RTvg7lNcNGQBOAS71OXe-3" value="&lt;b&gt;next&lt;/b&gt;" style="rounded=1;whiteSpace=wrap;html=1;shadow=1;strokeColor=#D79B00;strokeWidth=2;fontFamily=Comic Sans MS;fontSize=18;fillColor=#D79B00;" parent="RRr4hbnB_NSRUYSK_yCE-1" vertex="1">
          <mxGeometry x="4229" y="40" width="100" height="40" as="geometry" />
        </mxCell>
        <mxCell id="RTvg7lNcNGQBOAS71OXe-6" value="&lt;b&gt;item&lt;/b&gt;" style="rounded=1;whiteSpace=wrap;html=1;shadow=1;strokeColor=#D79B00;strokeWidth=2;fontFamily=Comic Sans MS;fontSize=18;fillColor=#D79B00;" parent="RRr4hbnB_NSRUYSK_yCE-1" vertex="1">
          <mxGeometry x="4389" y="40" width="100" height="40" as="geometry" />
        </mxCell>
        <mxCell id="RTvg7lNcNGQBOAS71OXe-7" value="&lt;b&gt;waiter&lt;/b&gt;" style="rounded=1;whiteSpace=wrap;html=1;shadow=1;strokeColor=#D79B00;strokeWidth=2;fontFamily=Comic Sans MS;fontSize=18;fillColor=#D79B00;" parent="RRr4hbnB_NSRUYSK_yCE-1" vertex="1">
          <mxGeometry x="4559" y="40" width="100" height="40" as="geometry" />
        </mxCell>
        <mxCell id="RTvg7lNcNGQBOAS71OXe-8" value="&lt;b&gt;isData&lt;/b&gt;" style="rounded=1;whiteSpace=wrap;html=1;shadow=1;strokeColor=#D79B00;strokeWidth=2;fontFamily=Comic Sans MS;fontSize=18;fillColor=#D79B00;" parent="RRr4hbnB_NSRUYSK_yCE-1" vertex="1">
          <mxGeometry x="4739" y="40" width="100" height="40" as="geometry" />
        </mxCell>
        <mxCell id="RTvg7lNcNGQBOAS71OXe-10" style="edgeStyle=orthogonalEdgeStyle;rounded=0;orthogonalLoop=1;jettySize=auto;html=1;strokeColor=#82b366;fontFamily=Comic Sans MS;fontSize=18;fontColor=#1A1A1A;fillColor=#d5e8d4;strokeWidth=2;entryX=0;entryY=0.5;entryDx=0;entryDy=0;exitX=1;exitY=0.5;exitDx=0;exitDy=0;" parent="RRr4hbnB_NSRUYSK_yCE-1" source="RTvg7lNcNGQBOAS71OXe-9" target="RTvg7lNcNGQBOAS71OXe-19" edge="1">
          <mxGeometry relative="1" as="geometry">
            <mxPoint x="4369" y="495" as="targetPoint" />
          </mxGeometry>
        </mxCell>
        <mxCell id="RTvg7lNcNGQBOAS71OXe-9" value="&lt;b&gt;QNode&lt;/b&gt;&lt;b&gt;&lt;br&gt;&lt;/b&gt;" style="rounded=1;whiteSpace=wrap;html=1;shadow=1;strokeColor=#D79B00;strokeWidth=2;fontFamily=Comic Sans MS;fontSize=18;fillColor=#D79B00;" parent="RRr4hbnB_NSRUYSK_yCE-1" vertex="1">
          <mxGeometry x="4109" y="460" width="120" height="70" as="geometry" />
        </mxCell>
        <mxCell id="RTvg7lNcNGQBOAS71OXe-14" style="edgeStyle=orthogonalEdgeStyle;rounded=0;orthogonalLoop=1;jettySize=auto;html=1;entryX=0;entryY=0.5;entryDx=0;entryDy=0;strokeColor=#82b366;strokeWidth=2;fontFamily=Comic Sans MS;fontSize=18;fontColor=#1A1A1A;fillColor=#d5e8d4;exitX=1;exitY=0.5;exitDx=0;exitDy=0;" parent="RRr4hbnB_NSRUYSK_yCE-1" source="RTvg7lNcNGQBOAS71OXe-19" target="RTvg7lNcNGQBOAS71OXe-20" edge="1">
          <mxGeometry relative="1" as="geometry">
            <mxPoint x="4489" y="495" as="sourcePoint" />
            <mxPoint x="4619" y="495" as="targetPoint" />
          </mxGeometry>
        </mxCell>
        <mxCell id="RTvg7lNcNGQBOAS71OXe-15" style="edgeStyle=orthogonalEdgeStyle;rounded=0;orthogonalLoop=1;jettySize=auto;html=1;entryX=0;entryY=0.5;entryDx=0;entryDy=0;strokeColor=#82b366;strokeWidth=2;fontFamily=Comic Sans MS;fontSize=18;fontColor=#1A1A1A;fillColor=#d5e8d4;exitX=1;exitY=0.5;exitDx=0;exitDy=0;" parent="RRr4hbnB_NSRUYSK_yCE-1" source="RTvg7lNcNGQBOAS71OXe-20" target="RTvg7lNcNGQBOAS71OXe-21" edge="1">
          <mxGeometry relative="1" as="geometry">
            <mxPoint x="4749" y="495" as="sourcePoint" />
            <mxPoint x="4869" y="495" as="targetPoint" />
          </mxGeometry>
        </mxCell>
        <mxCell id="RTvg7lNcNGQBOAS71OXe-16" value="&lt;b&gt;next&lt;/b&gt;" style="rounded=1;whiteSpace=wrap;html=1;shadow=1;strokeColor=#6C8EBF;strokeWidth=2;fontFamily=Comic Sans MS;fontSize=18;fillColor=#6C8EBF;" parent="RRr4hbnB_NSRUYSK_yCE-1" vertex="1">
          <mxGeometry x="4249" y="430" width="90" height="50" as="geometry" />
        </mxCell>
        <mxCell id="RTvg7lNcNGQBOAS71OXe-17" value="&lt;b&gt;next&lt;/b&gt;" style="rounded=1;whiteSpace=wrap;html=1;shadow=1;strokeColor=#6C8EBF;strokeWidth=2;fontFamily=Comic Sans MS;fontSize=18;fillColor=#6C8EBF;" parent="RRr4hbnB_NSRUYSK_yCE-1" vertex="1">
          <mxGeometry x="4508" y="430" width="90" height="50" as="geometry" />
        </mxCell>
        <mxCell id="RTvg7lNcNGQBOAS71OXe-18" value="&lt;b&gt;next&lt;/b&gt;" style="rounded=1;whiteSpace=wrap;html=1;shadow=1;strokeColor=#6C8EBF;strokeWidth=2;fontFamily=Comic Sans MS;fontSize=18;fillColor=#6C8EBF;" parent="RRr4hbnB_NSRUYSK_yCE-1" vertex="1">
          <mxGeometry x="4759" y="430" width="90" height="50" as="geometry" />
        </mxCell>
        <mxCell id="RTvg7lNcNGQBOAS71OXe-19" value="&lt;b&gt;QNode&lt;/b&gt;&lt;b&gt;&lt;br&gt;&lt;/b&gt;" style="rounded=1;whiteSpace=wrap;html=1;shadow=1;strokeColor=#D79B00;strokeWidth=2;fontFamily=Comic Sans MS;fontSize=18;fillColor=#D79B00;" parent="RRr4hbnB_NSRUYSK_yCE-1" vertex="1">
          <mxGeometry x="4359" y="460" width="120" height="70" as="geometry" />
        </mxCell>
        <mxCell id="RTvg7lNcNGQBOAS71OXe-20" value="&lt;b&gt;QNode&lt;/b&gt;&lt;b&gt;&lt;br&gt;&lt;/b&gt;" style="rounded=1;whiteSpace=wrap;html=1;shadow=1;strokeColor=#D79B00;strokeWidth=2;fontFamily=Comic Sans MS;fontSize=18;fillColor=#D79B00;" parent="RRr4hbnB_NSRUYSK_yCE-1" vertex="1">
          <mxGeometry x="4619" y="460" width="120" height="70" as="geometry" />
        </mxCell>
        <mxCell id="RTvg7lNcNGQBOAS71OXe-21" value="&lt;b&gt;QNode&lt;/b&gt;&lt;b&gt;&lt;br&gt;&lt;/b&gt;" style="rounded=1;whiteSpace=wrap;html=1;shadow=1;strokeColor=#D79B00;strokeWidth=2;fontFamily=Comic Sans MS;fontSize=18;fillColor=#D79B00;" parent="RRr4hbnB_NSRUYSK_yCE-1" vertex="1">
          <mxGeometry x="4869" y="460" width="120" height="70" as="geometry" />
        </mxCell>
        <mxCell id="RTvg7lNcNGQBOAS71OXe-23" style="edgeStyle=orthogonalEdgeStyle;rounded=0;orthogonalLoop=1;jettySize=auto;html=1;entryX=0.5;entryY=0;entryDx=0;entryDy=0;strokeColor=#3B96FF;strokeWidth=2;fontFamily=Comic Sans MS;fontSize=18;fontColor=#1A1A1A;" parent="RRr4hbnB_NSRUYSK_yCE-1" source="RTvg7lNcNGQBOAS71OXe-22" target="RTvg7lNcNGQBOAS71OXe-9" edge="1">
          <mxGeometry relative="1" as="geometry" />
        </mxCell>
        <mxCell id="RTvg7lNcNGQBOAS71OXe-22" value="&lt;b&gt;&lt;font style=&quot;font-size: 24px;&quot;&gt;first&lt;/font&gt;&lt;/b&gt;" style="rounded=1;whiteSpace=wrap;html=1;shadow=1;strokeColor=#3B96FF;strokeWidth=2;fontFamily=Comic Sans MS;fontSize=18;fontColor=#ffffff;fillColor=#3B96FF;" parent="RRr4hbnB_NSRUYSK_yCE-1" vertex="1">
          <mxGeometry x="4129" y="330" width="80" height="50" as="geometry" />
        </mxCell>
        <mxCell id="RTvg7lNcNGQBOAS71OXe-24" style="edgeStyle=orthogonalEdgeStyle;rounded=0;orthogonalLoop=1;jettySize=auto;html=1;entryX=0.5;entryY=0;entryDx=0;entryDy=0;strokeColor=#3B96FF;strokeWidth=2;fontFamily=Comic Sans MS;fontSize=18;fontColor=#1A1A1A;" parent="RRr4hbnB_NSRUYSK_yCE-1" source="RTvg7lNcNGQBOAS71OXe-25" edge="1">
          <mxGeometry relative="1" as="geometry">
            <mxPoint x="4929" y="460" as="targetPoint" />
          </mxGeometry>
        </mxCell>
        <mxCell id="RTvg7lNcNGQBOAS71OXe-25" value="&lt;b&gt;&lt;font style=&quot;font-size: 24px;&quot;&gt;tail&lt;/font&gt;&lt;/b&gt;" style="rounded=1;whiteSpace=wrap;html=1;shadow=1;strokeColor=#3B96FF;strokeWidth=2;fontFamily=Comic Sans MS;fontSize=18;fontColor=#ffffff;fillColor=#3B96FF;" parent="RRr4hbnB_NSRUYSK_yCE-1" vertex="1">
          <mxGeometry x="4889" y="330" width="80" height="50" as="geometry" />
        </mxCell>
        <mxCell id="29mudfoq-tIWO1Ez6lWr-0" value="&lt;b&gt;&lt;font style=&quot;font-size: 14px;&quot;&gt;下一个节点&lt;/font&gt;&lt;/b&gt;" style="text;html=1;strokeColor=none;fillColor=none;align=center;verticalAlign=middle;whiteSpace=wrap;rounded=0;" parent="RRr4hbnB_NSRUYSK_yCE-1" vertex="1">
          <mxGeometry x="4229" y="100" width="89" height="30" as="geometry" />
        </mxCell>
        <mxCell id="29mudfoq-tIWO1Ez6lWr-1" value="&lt;b&gt;&lt;font style=&quot;font-size: 14px;&quot;&gt;存入元素&lt;/font&gt;&lt;/b&gt;" style="text;html=1;strokeColor=none;fillColor=none;align=center;verticalAlign=middle;whiteSpace=wrap;rounded=0;" parent="RRr4hbnB_NSRUYSK_yCE-1" vertex="1">
          <mxGeometry x="4394.5" y="100" width="89" height="30" as="geometry" />
        </mxCell>
        <mxCell id="29mudfoq-tIWO1Ez6lWr-2" value="&lt;span style=&quot;font-size: 14px;&quot;&gt;&lt;b&gt;等待的线程&lt;/b&gt;&lt;/span&gt;" style="text;html=1;strokeColor=none;fillColor=none;align=center;verticalAlign=middle;whiteSpace=wrap;rounded=0;" parent="RRr4hbnB_NSRUYSK_yCE-1" vertex="1">
          <mxGeometry x="4564.5" y="100" width="89" height="30" as="geometry" />
        </mxCell>
        <mxCell id="29mudfoq-tIWO1Ez6lWr-3" value="&lt;span style=&quot;font-size: 14px;&quot;&gt;&lt;b&gt;是否是数据&lt;/b&gt;&lt;/span&gt;" style="text;html=1;strokeColor=none;fillColor=none;align=center;verticalAlign=middle;whiteSpace=wrap;rounded=0;" parent="RRr4hbnB_NSRUYSK_yCE-1" vertex="1">
          <mxGeometry x="4744.5" y="100" width="89" height="30" as="geometry" />
        </mxCell>
      </root>
    </mxGraphModel>
  </diagram>
  <diagram name="内部类-Transferer 的副本" id="S6HUEdkYfSA6m7veOKmx">
    <mxGraphModel dx="1037" dy="547" grid="1" gridSize="10" guides="1" tooltips="1" connect="1" arrows="1" fold="1" page="1" pageScale="1" pageWidth="827" pageHeight="1169" background="#EEEEEE" math="0" shadow="0">
      <root>
        <mxCell id="Z2-NPIwb5zDZeQIZT0iB-0" />
        <mxCell id="Z2-NPIwb5zDZeQIZT0iB-1" parent="Z2-NPIwb5zDZeQIZT0iB-0" />
        <mxCell id="Z2-NPIwb5zDZeQIZT0iB-2" value="&lt;b&gt;&lt;font face=&quot;Comic Sans MS&quot; style=&quot;font-size: 18px;&quot;&gt;Transferer&lt;/font&gt;&lt;/b&gt;" style="rounded=1;whiteSpace=wrap;html=1;strokeColor=#E1D5E7;fillColor=#9673A6;shadow=0;" parent="Z2-NPIwb5zDZeQIZT0iB-1" vertex="1">
          <mxGeometry x="250" y="20" width="160" height="70" as="geometry" />
        </mxCell>
        <mxCell id="Z2-NPIwb5zDZeQIZT0iB-3" style="edgeStyle=orthogonalEdgeStyle;rounded=0;orthogonalLoop=1;jettySize=auto;html=1;entryX=0.5;entryY=1;entryDx=0;entryDy=0;strokeColor=#182E3E;fontFamily=Comic Sans MS;fontSize=18;fontColor=#1A1A1A;" parent="Z2-NPIwb5zDZeQIZT0iB-1" source="Z2-NPIwb5zDZeQIZT0iB-4" target="Z2-NPIwb5zDZeQIZT0iB-2" edge="1">
          <mxGeometry relative="1" as="geometry" />
        </mxCell>
        <mxCell id="Z2-NPIwb5zDZeQIZT0iB-4" value="&lt;b&gt;&lt;font face=&quot;Comic Sans MS&quot; style=&quot;font-size: 18px;&quot;&gt;TransfererStack&lt;/font&gt;&lt;/b&gt;" style="rounded=1;whiteSpace=wrap;html=1;strokeColor=#9673a6;fillColor=#9673A6;" parent="Z2-NPIwb5zDZeQIZT0iB-1" vertex="1">
          <mxGeometry x="30" y="180" width="160" height="70" as="geometry" />
        </mxCell>
        <mxCell id="Z2-NPIwb5zDZeQIZT0iB-5" style="edgeStyle=orthogonalEdgeStyle;rounded=0;orthogonalLoop=1;jettySize=auto;html=1;strokeColor=#182E3E;fontFamily=Comic Sans MS;fontSize=18;fontColor=#1A1A1A;" parent="Z2-NPIwb5zDZeQIZT0iB-1" source="Z2-NPIwb5zDZeQIZT0iB-6" edge="1">
          <mxGeometry relative="1" as="geometry">
            <mxPoint x="330" y="90" as="targetPoint" />
          </mxGeometry>
        </mxCell>
        <mxCell id="Z2-NPIwb5zDZeQIZT0iB-6" value="&lt;b&gt;&lt;font face=&quot;Comic Sans MS&quot; style=&quot;font-size: 18px;&quot;&gt;TransfererQueue&lt;/font&gt;&lt;/b&gt;" style="rounded=1;whiteSpace=wrap;html=1;strokeColor=#9673A6;fillColor=#9673A6;" parent="Z2-NPIwb5zDZeQIZT0iB-1" vertex="1">
          <mxGeometry x="450" y="180" width="160" height="70" as="geometry" />
        </mxCell>
        <mxCell id="Z2-NPIwb5zDZeQIZT0iB-7" value="&lt;b&gt;extends&lt;/b&gt;" style="text;html=1;strokeColor=#F5F5F5;fillColor=#F5F5F5;align=center;verticalAlign=middle;whiteSpace=wrap;rounded=1;fontFamily=Comic Sans MS;fontSize=18;fontColor=#333333;shadow=1;" parent="Z2-NPIwb5zDZeQIZT0iB-1" vertex="1">
          <mxGeometry x="210" y="130" width="90" height="40" as="geometry" />
        </mxCell>
        <mxCell id="Z2-NPIwb5zDZeQIZT0iB-8" value="&lt;b&gt;extends&lt;/b&gt;" style="text;html=1;strokeColor=#F5F5F5;fillColor=#F5F5F5;align=center;verticalAlign=middle;whiteSpace=wrap;rounded=1;fontFamily=Comic Sans MS;fontSize=18;fontColor=#333333;shadow=1;" parent="Z2-NPIwb5zDZeQIZT0iB-1" vertex="1">
          <mxGeometry x="340" y="130" width="90" height="40" as="geometry" />
        </mxCell>
      </root>
    </mxGraphModel>
  </diagram>
  <diagram name="构造方法" id="8zEnWlDCJmIlJgSaBidS">
    <mxGraphModel dx="1037" dy="547" grid="1" gridSize="10" guides="1" tooltips="1" connect="1" arrows="1" fold="1" page="1" pageScale="1" pageWidth="827" pageHeight="1169" background="#EEEEEE" math="0" shadow="0">
      <root>
        <mxCell id="DzaW1A6d7yZy3E7BmHNf-0" />
        <mxCell id="DzaW1A6d7yZy3E7BmHNf-1" parent="DzaW1A6d7yZy3E7BmHNf-0" />
        <mxCell id="yrLEyV-hGhsXKzwI6RHE-0" value="" style="shape=curlyBracket;whiteSpace=wrap;html=1;rounded=1;shadow=1;strokeColor=#82B366;fontFamily=Comic Sans MS;fontSize=18;fontColor=#1A1A1A;fillColor=#82B366;strokeWidth=2;" parent="DzaW1A6d7yZy3E7BmHNf-1" vertex="1">
          <mxGeometry x="275" y="70" width="20" height="290" as="geometry" />
        </mxCell>
        <mxCell id="yrLEyV-hGhsXKzwI6RHE-1" value="&lt;b&gt;SychnronousQueue&lt;/b&gt;" style="rounded=1;whiteSpace=wrap;html=1;shadow=1;strokeColor=#82B366;fontFamily=Comic Sans MS;fontSize=18;fontColor=#1A1A1A;fillColor=#82B366;" parent="DzaW1A6d7yZy3E7BmHNf-1" vertex="1">
          <mxGeometry x="60" y="190" width="200" height="60" as="geometry" />
        </mxCell>
        <mxCell id="yrLEyV-hGhsXKzwI6RHE-2" value="&lt;b&gt;TransfererStack&lt;/b&gt;" style="rounded=1;whiteSpace=wrap;html=1;shadow=1;strokeColor=#006EAF;strokeWidth=2;fontFamily=Comic Sans MS;fontSize=18;fontColor=#ffffff;fillColor=#006EAF;" parent="DzaW1A6d7yZy3E7BmHNf-1" vertex="1">
          <mxGeometry x="500" y="50" width="200" height="60" as="geometry" />
        </mxCell>
        <mxCell id="yrLEyV-hGhsXKzwI6RHE-3" value="" style="endArrow=classic;html=1;rounded=0;strokeColor=#182E3E;fontFamily=Comic Sans MS;fontSize=18;fontColor=#1A1A1A;" parent="DzaW1A6d7yZy3E7BmHNf-1" edge="1">
          <mxGeometry width="50" height="50" relative="1" as="geometry">
            <mxPoint x="300" y="80" as="sourcePoint" />
            <mxPoint x="490" y="80" as="targetPoint" />
          </mxGeometry>
        </mxCell>
        <mxCell id="yrLEyV-hGhsXKzwI6RHE-5" value="&lt;b&gt;无参构造&lt;/b&gt;" style="text;html=1;strokeColor=#6C8EBF;fillColor=#6C8EBF;align=center;verticalAlign=middle;whiteSpace=wrap;rounded=1;shadow=0;strokeWidth=2;fontFamily=Comic Sans MS;fontSize=18;" parent="DzaW1A6d7yZy3E7BmHNf-1" vertex="1">
          <mxGeometry x="340" y="30" width="100" height="40" as="geometry" />
        </mxCell>
        <mxCell id="yrLEyV-hGhsXKzwI6RHE-6" value="" style="endArrow=classic;html=1;rounded=0;strokeColor=#182E3E;fontFamily=Comic Sans MS;fontSize=18;fontColor=#1A1A1A;" parent="DzaW1A6d7yZy3E7BmHNf-1" edge="1">
          <mxGeometry width="50" height="50" relative="1" as="geometry">
            <mxPoint x="305" y="359" as="sourcePoint" />
            <mxPoint x="495" y="359" as="targetPoint" />
          </mxGeometry>
        </mxCell>
        <mxCell id="yrLEyV-hGhsXKzwI6RHE-8" value="" style="shape=curlyBracket;whiteSpace=wrap;html=1;rounded=1;shadow=0;strokeColor=#82b366;strokeWidth=2;fontFamily=Comic Sans MS;fontSize=18;fillColor=#d5e8d4;" parent="DzaW1A6d7yZy3E7BmHNf-1" vertex="1">
          <mxGeometry x="505" y="280" width="20" height="155" as="geometry" />
        </mxCell>
        <mxCell id="yrLEyV-hGhsXKzwI6RHE-9" value="" style="endArrow=classic;html=1;rounded=0;strokeColor=#182E3E;fontFamily=Comic Sans MS;fontSize=18;fontColor=#1A1A1A;" parent="DzaW1A6d7yZy3E7BmHNf-1" edge="1">
          <mxGeometry width="50" height="50" relative="1" as="geometry">
            <mxPoint x="535" y="280" as="sourcePoint" />
            <mxPoint x="675" y="280" as="targetPoint" />
          </mxGeometry>
        </mxCell>
        <mxCell id="yrLEyV-hGhsXKzwI6RHE-10" value="&lt;b style=&quot;color: rgb(51, 51, 51);&quot;&gt;带参构造&lt;/b&gt;" style="text;html=1;strokeColor=#6C8EBF;fillColor=#6C8EBF;align=center;verticalAlign=middle;whiteSpace=wrap;rounded=1;shadow=0;strokeWidth=2;fontFamily=Comic Sans MS;fontSize=18;" parent="DzaW1A6d7yZy3E7BmHNf-1" vertex="1">
          <mxGeometry x="335" y="310" width="100" height="40" as="geometry" />
        </mxCell>
        <mxCell id="yrLEyV-hGhsXKzwI6RHE-11" value="&lt;b&gt;true&lt;/b&gt;" style="text;html=1;strokeColor=#B85450;fillColor=#B85450;align=center;verticalAlign=middle;whiteSpace=wrap;rounded=1;shadow=0;strokeWidth=2;fontFamily=Comic Sans MS;fontSize=18;" parent="DzaW1A6d7yZy3E7BmHNf-1" vertex="1">
          <mxGeometry x="550" y="220" width="100" height="40" as="geometry" />
        </mxCell>
        <mxCell id="yrLEyV-hGhsXKzwI6RHE-12" value="" style="endArrow=classic;html=1;rounded=0;strokeColor=#182E3E;fontFamily=Comic Sans MS;fontSize=18;fontColor=#1A1A1A;" parent="DzaW1A6d7yZy3E7BmHNf-1" edge="1">
          <mxGeometry width="50" height="50" relative="1" as="geometry">
            <mxPoint x="545" y="434" as="sourcePoint" />
            <mxPoint x="685" y="434" as="targetPoint" />
          </mxGeometry>
        </mxCell>
        <mxCell id="yrLEyV-hGhsXKzwI6RHE-13" value="&lt;b&gt;false&lt;/b&gt;" style="text;html=1;strokeColor=#B85450;fillColor=#B85450;align=center;verticalAlign=middle;whiteSpace=wrap;rounded=1;shadow=0;strokeWidth=2;fontFamily=Comic Sans MS;fontSize=18;" parent="DzaW1A6d7yZy3E7BmHNf-1" vertex="1">
          <mxGeometry x="555" y="389" width="100" height="40" as="geometry" />
        </mxCell>
        <mxCell id="yrLEyV-hGhsXKzwI6RHE-14" value="&lt;b&gt;TransfererQueue&lt;/b&gt;" style="rounded=1;whiteSpace=wrap;html=1;shadow=1;strokeColor=#82B366;strokeWidth=2;fontFamily=Comic Sans MS;fontSize=18;fontColor=#1A1A1A;fillColor=#82B366;" parent="DzaW1A6d7yZy3E7BmHNf-1" vertex="1">
          <mxGeometry x="695" y="250" width="200" height="60" as="geometry" />
        </mxCell>
        <mxCell id="yrLEyV-hGhsXKzwI6RHE-15" value="&lt;b&gt;TransfererStack&lt;/b&gt;" style="rounded=1;whiteSpace=wrap;html=1;shadow=1;strokeColor=#006EAF;strokeWidth=2;fontFamily=Comic Sans MS;fontSize=18;fontColor=#ffffff;fillColor=#006EAF;" parent="DzaW1A6d7yZy3E7BmHNf-1" vertex="1">
          <mxGeometry x="695" y="389" width="200" height="60" as="geometry" />
        </mxCell>
      </root>
    </mxGraphModel>
  </diagram>
  <diagram name="TransfererQueue-transfer" id="kcwL8cK7qocH55PaXhxO">
    <mxGraphModel dx="-2121" dy="547" grid="1" gridSize="10" guides="1" tooltips="1" connect="1" arrows="1" fold="1" page="1" pageScale="1" pageWidth="827" pageHeight="1169" background="#EEEEEE" math="0" shadow="0">
      <root>
        <mxCell id="v1Vg9BsTZOCkdtuqE38V-0" />
        <mxCell id="v1Vg9BsTZOCkdtuqE38V-1" parent="v1Vg9BsTZOCkdtuqE38V-0" />
        <mxCell id="IaAq5tZLwrQzVeBqlxX5-1" style="edgeStyle=orthogonalEdgeStyle;curved=1;rounded=0;orthogonalLoop=1;jettySize=auto;html=1;strokeColor=#001DBC;strokeWidth=2;fontFamily=Comic Sans MS;fontSize=24;fontColor=#1A1A1A;entryX=0.5;entryY=0;entryDx=0;entryDy=0;fillColor=#0050ef;" parent="v1Vg9BsTZOCkdtuqE38V-1" source="IaAq5tZLwrQzVeBqlxX5-0" target="IaAq5tZLwrQzVeBqlxX5-2" edge="1">
          <mxGeometry relative="1" as="geometry">
            <mxPoint x="4410" y="760" as="targetPoint" />
          </mxGeometry>
        </mxCell>
        <mxCell id="IaAq5tZLwrQzVeBqlxX5-0" value="&lt;b&gt;start&lt;/b&gt;" style="ellipse;whiteSpace=wrap;html=1;rounded=1;shadow=1;strokeColor=#82B366;strokeWidth=2;fontFamily=Comic Sans MS;fontSize=24;fontColor=#1A1A1A;fillColor=#82B366;" parent="v1Vg9BsTZOCkdtuqE38V-1" vertex="1">
          <mxGeometry x="4349" y="585" width="120" height="80" as="geometry" />
        </mxCell>
        <mxCell id="IaAq5tZLwrQzVeBqlxX5-3" style="edgeStyle=orthogonalEdgeStyle;curved=1;rounded=0;orthogonalLoop=1;jettySize=auto;html=1;strokeColor=#001DBC;strokeWidth=2;fontFamily=Comic Sans MS;fontSize=18;fontColor=#1A1A1A;" parent="v1Vg9BsTZOCkdtuqE38V-1" source="IaAq5tZLwrQzVeBqlxX5-2" edge="1">
          <mxGeometry relative="1" as="geometry">
            <mxPoint x="4410" y="720" as="targetPoint" />
            <Array as="points">
              <mxPoint x="4130" y="850" />
              <mxPoint x="4130" y="720" />
            </Array>
          </mxGeometry>
        </mxCell>
        <mxCell id="IaAq5tZLwrQzVeBqlxX5-5" style="edgeStyle=orthogonalEdgeStyle;curved=1;rounded=0;orthogonalLoop=1;jettySize=auto;html=1;strokeColor=#001DBC;strokeWidth=2;fontFamily=Comic Sans MS;fontSize=18;fontColor=#1A1A1A;entryX=0.5;entryY=0;entryDx=0;entryDy=0;" parent="v1Vg9BsTZOCkdtuqE38V-1" source="IaAq5tZLwrQzVeBqlxX5-2" target="IaAq5tZLwrQzVeBqlxX5-7" edge="1">
          <mxGeometry relative="1" as="geometry">
            <mxPoint x="4410" y="1030" as="targetPoint" />
          </mxGeometry>
        </mxCell>
        <mxCell id="IaAq5tZLwrQzVeBqlxX5-2" value="&lt;span style=&quot;font-size: 18px;&quot;&gt;&lt;b&gt;队列的head，tail节点是否创建完&lt;/b&gt;&lt;/span&gt;" style="rhombus;whiteSpace=wrap;html=1;rounded=1;shadow=1;strokeColor=#82B366;strokeWidth=2;fontFamily=Comic Sans MS;fontSize=24;fontColor=#1A1A1A;fillColor=#82B366;" parent="v1Vg9BsTZOCkdtuqE38V-1" vertex="1">
          <mxGeometry x="4229" y="810" width="361" height="80" as="geometry" />
        </mxCell>
        <mxCell id="IaAq5tZLwrQzVeBqlxX5-6" value="&lt;b&gt;是&lt;/b&gt;" style="text;html=1;strokeColor=#6C8EBF;fillColor=#6C8EBF;align=center;verticalAlign=middle;whiteSpace=wrap;rounded=1;shadow=1;strokeWidth=2;fontFamily=Comic Sans MS;fontSize=18;" parent="v1Vg9BsTZOCkdtuqE38V-1" vertex="1">
          <mxGeometry x="4240" y="970" width="70" height="40" as="geometry" />
        </mxCell>
        <mxCell id="IaAq5tZLwrQzVeBqlxX5-12" style="edgeStyle=orthogonalEdgeStyle;shape=connector;curved=1;rounded=0;orthogonalLoop=1;jettySize=auto;html=1;labelBackgroundColor=default;strokeColor=#001DBC;strokeWidth=2;fontFamily=Comic Sans MS;fontSize=18;fontColor=#1A1A1A;endArrow=classic;entryX=0.5;entryY=0;entryDx=0;entryDy=0;" parent="v1Vg9BsTZOCkdtuqE38V-1" source="IaAq5tZLwrQzVeBqlxX5-7" target="IaAq5tZLwrQzVeBqlxX5-13" edge="1">
          <mxGeometry relative="1" as="geometry">
            <mxPoint x="4130" y="1160" as="targetPoint" />
          </mxGeometry>
        </mxCell>
        <mxCell id="IaAq5tZLwrQzVeBqlxX5-7" value="&lt;b&gt;是否是空队列&lt;/b&gt;" style="rhombus;whiteSpace=wrap;html=1;rounded=1;shadow=1;strokeColor=#82B366;strokeWidth=2;fontFamily=Comic Sans MS;fontSize=18;fontColor=#1A1A1A;fillColor=#82B366;" parent="v1Vg9BsTZOCkdtuqE38V-1" vertex="1">
          <mxGeometry x="4291.5" y="990" width="236" height="70" as="geometry" />
        </mxCell>
        <mxCell id="IaAq5tZLwrQzVeBqlxX5-10" value="&lt;b&gt;不是&lt;/b&gt;" style="text;html=1;strokeColor=#6C8EBF;fillColor=#6C8EBF;align=center;verticalAlign=middle;whiteSpace=wrap;rounded=1;shadow=1;strokeWidth=2;fontFamily=Comic Sans MS;fontSize=18;" parent="v1Vg9BsTZOCkdtuqE38V-1" vertex="1">
          <mxGeometry x="4469" y="960" width="70" height="40" as="geometry" />
        </mxCell>
        <mxCell id="IaAq5tZLwrQzVeBqlxX5-16" style="edgeStyle=orthogonalEdgeStyle;shape=connector;curved=1;rounded=0;orthogonalLoop=1;jettySize=auto;html=1;labelBackgroundColor=default;strokeColor=#001DBC;strokeWidth=2;fontFamily=Comic Sans MS;fontSize=18;fontColor=#1A1A1A;endArrow=classic;" parent="v1Vg9BsTZOCkdtuqE38V-1" source="IaAq5tZLwrQzVeBqlxX5-13" edge="1">
          <mxGeometry relative="1" as="geometry">
            <mxPoint x="4410" y="720" as="targetPoint" />
            <Array as="points">
              <mxPoint x="3810" y="1160" />
              <mxPoint x="3810" y="720" />
            </Array>
          </mxGeometry>
        </mxCell>
        <mxCell id="IaAq5tZLwrQzVeBqlxX5-29" style="edgeStyle=orthogonalEdgeStyle;shape=connector;curved=1;rounded=0;orthogonalLoop=1;jettySize=auto;html=1;labelBackgroundColor=default;strokeColor=#001DBC;strokeWidth=2;fontFamily=Comic Sans MS;fontSize=23;fontColor=#336600;endArrow=classic;entryX=0.5;entryY=0;entryDx=0;entryDy=0;" parent="v1Vg9BsTZOCkdtuqE38V-1" source="IaAq5tZLwrQzVeBqlxX5-13" target="IaAq5tZLwrQzVeBqlxX5-42" edge="1">
          <mxGeometry relative="1" as="geometry">
            <mxPoint x="4220" y="1240" as="targetPoint" />
            <Array as="points">
              <mxPoint x="4205" y="1160" />
            </Array>
          </mxGeometry>
        </mxCell>
        <mxCell id="IaAq5tZLwrQzVeBqlxX5-13" value="&lt;b&gt;tail节点是否更新&lt;/b&gt;" style="rhombus;whiteSpace=wrap;html=1;rounded=1;shadow=1;strokeColor=#82B366;strokeWidth=2;fontFamily=Comic Sans MS;fontSize=18;fontColor=#1A1A1A;fillColor=#82B366;" parent="v1Vg9BsTZOCkdtuqE38V-1" vertex="1">
          <mxGeometry x="3940" y="1120" width="181" height="80" as="geometry" />
        </mxCell>
        <mxCell id="IaAq5tZLwrQzVeBqlxX5-18" value="&lt;b&gt;&lt;font color=&quot;#336600&quot;&gt;已更新&lt;/font&gt;&lt;/b&gt;" style="text;html=1;strokeColor=#FFEBA8;fillColor=#FFEBA8;align=center;verticalAlign=middle;whiteSpace=wrap;rounded=1;shadow=1;strokeWidth=2;fontFamily=Comic Sans MS;fontSize=18;fontColor=#ffffff;" parent="v1Vg9BsTZOCkdtuqE38V-1" vertex="1">
          <mxGeometry x="3890" y="1100" width="70" height="40" as="geometry" />
        </mxCell>
        <mxCell id="IaAq5tZLwrQzVeBqlxX5-22" value="" style="shape=table;startSize=0;container=1;collapsible=0;childLayout=tableLayout;rounded=1;shadow=1;strokeWidth=1;fontFamily=Comic Sans MS;fontSize=18;html=1;fillColor=#D9D9D9;fontColor=#333333;strokeColor=#666666;" parent="v1Vg9BsTZOCkdtuqE38V-1" vertex="1">
          <mxGeometry x="4720" y="553.12" width="450" height="70" as="geometry" />
        </mxCell>
        <mxCell id="IaAq5tZLwrQzVeBqlxX5-23" value="" style="shape=tableRow;horizontal=0;startSize=0;swimlaneHead=0;swimlaneBody=0;top=0;left=0;bottom=0;right=0;collapsible=0;dropTarget=0;fillColor=none;points=[[0,0.5],[1,0.5]];portConstraint=eastwest;rounded=1;shadow=1;strokeColor=#82B366;strokeWidth=2;fontFamily=Comic Sans MS;fontSize=18;fontColor=#336600;html=1;" parent="IaAq5tZLwrQzVeBqlxX5-22" vertex="1">
          <mxGeometry width="450" height="70" as="geometry" />
        </mxCell>
        <mxCell id="IaAq5tZLwrQzVeBqlxX5-24" value="&lt;b style=&quot;color: rgb(0, 0, 0);&quot;&gt;&lt;font style=&quot;font-size: 24px;&quot;&gt;E e&lt;/font&gt;&lt;/b&gt;" style="shape=partialRectangle;html=1;whiteSpace=wrap;connectable=0;overflow=hidden;fillColor=none;top=0;left=0;bottom=0;right=0;pointerEvents=1;rounded=1;shadow=1;strokeColor=#82B366;strokeWidth=2;fontFamily=Comic Sans MS;fontSize=18;fontColor=#336600;" parent="IaAq5tZLwrQzVeBqlxX5-23" vertex="1">
          <mxGeometry width="149" height="70" as="geometry">
            <mxRectangle width="149" height="70" as="alternateBounds" />
          </mxGeometry>
        </mxCell>
        <mxCell id="IaAq5tZLwrQzVeBqlxX5-25" value="&lt;b style=&quot;color: rgb(0, 0, 0);&quot;&gt;&lt;font style=&quot;font-size: 21px;&quot;&gt;boolean timed&lt;/font&gt;&lt;/b&gt;" style="shape=partialRectangle;html=1;whiteSpace=wrap;connectable=0;overflow=hidden;fillColor=none;top=0;left=0;bottom=0;right=0;pointerEvents=1;rounded=1;shadow=1;strokeColor=#82B366;strokeWidth=2;fontFamily=Comic Sans MS;fontSize=18;fontColor=#336600;" parent="IaAq5tZLwrQzVeBqlxX5-23" vertex="1">
          <mxGeometry x="149" width="152" height="70" as="geometry">
            <mxRectangle width="152" height="70" as="alternateBounds" />
          </mxGeometry>
        </mxCell>
        <mxCell id="IaAq5tZLwrQzVeBqlxX5-26" value="&lt;b style=&quot;color: rgb(0, 0, 0);&quot;&gt;&lt;font style=&quot;font-size: 23px;&quot;&gt;long nanos&lt;/font&gt;&lt;/b&gt;" style="shape=partialRectangle;html=1;whiteSpace=wrap;connectable=0;overflow=hidden;fillColor=none;top=0;left=0;bottom=0;right=0;pointerEvents=1;rounded=1;shadow=1;strokeColor=#82B366;strokeWidth=2;fontFamily=Comic Sans MS;fontSize=18;fontColor=#336600;" parent="IaAq5tZLwrQzVeBqlxX5-23" vertex="1">
          <mxGeometry x="301" width="149" height="70" as="geometry">
            <mxRectangle width="149" height="70" as="alternateBounds" />
          </mxGeometry>
        </mxCell>
        <mxCell id="IaAq5tZLwrQzVeBqlxX5-27" value="&lt;b&gt;transfer的入参&lt;/b&gt;" style="text;html=1;strokeColor=#82B366;fillColor=#82B366;align=center;verticalAlign=middle;whiteSpace=wrap;rounded=1;shadow=1;strokeWidth=2;fontFamily=Comic Sans MS;fontSize=18;" parent="v1Vg9BsTZOCkdtuqE38V-1" vertex="1">
          <mxGeometry x="4865" y="460" width="160" height="50" as="geometry" />
        </mxCell>
        <mxCell id="IaAq5tZLwrQzVeBqlxX5-30" value="&lt;b&gt;&lt;font color=&quot;#336600&quot;&gt;没更新&lt;/font&gt;&lt;/b&gt;" style="text;html=1;strokeColor=#FFEBA8;fillColor=#FFEBA8;align=center;verticalAlign=middle;whiteSpace=wrap;rounded=1;shadow=1;strokeWidth=2;fontFamily=Comic Sans MS;fontSize=18;fontColor=#ffffff;" parent="v1Vg9BsTZOCkdtuqE38V-1" vertex="1">
          <mxGeometry x="4100" y="1100" width="70" height="40" as="geometry" />
        </mxCell>
        <mxCell id="IaAq5tZLwrQzVeBqlxX5-31" value="&lt;font color=&quot;#336600&quot;&gt;&lt;b&gt;正在创建&lt;/b&gt;&lt;/font&gt;" style="text;html=1;strokeColor=#FFEBA8;fillColor=#FFEBA8;align=center;verticalAlign=middle;whiteSpace=wrap;rounded=1;shadow=1;strokeWidth=2;fontFamily=Comic Sans MS;fontSize=18;fontColor=#ffffff;" parent="v1Vg9BsTZOCkdtuqE38V-1" vertex="1">
          <mxGeometry x="4150" y="790" width="100" height="40" as="geometry" />
        </mxCell>
        <mxCell id="IaAq5tZLwrQzVeBqlxX5-32" value="&lt;font color=&quot;#336600&quot;&gt;&lt;b&gt;创建完成&lt;/b&gt;&lt;/font&gt;" style="text;html=1;strokeColor=#FFEBA8;fillColor=#FFEBA8;align=center;verticalAlign=middle;whiteSpace=wrap;rounded=1;shadow=1;strokeWidth=2;fontFamily=Comic Sans MS;fontSize=18;fontColor=#ffffff;" parent="v1Vg9BsTZOCkdtuqE38V-1" vertex="1">
          <mxGeometry x="4300" y="900" width="100" height="40" as="geometry" />
        </mxCell>
        <mxCell id="IaAq5tZLwrQzVeBqlxX5-33" value="" style="endArrow=classic;html=1;rounded=0;labelBackgroundColor=default;strokeColor=#001DBC;strokeWidth=2;fontFamily=Comic Sans MS;fontSize=23;fontColor=#336600;shape=connector;curved=1;entryX=0.5;entryY=0;entryDx=0;entryDy=0;" parent="v1Vg9BsTZOCkdtuqE38V-1" target="IaAq5tZLwrQzVeBqlxX5-35" edge="1">
          <mxGeometry width="50" height="50" relative="1" as="geometry">
            <mxPoint x="4790" y="623.12" as="sourcePoint" />
            <mxPoint x="4790" y="683.12" as="targetPoint" />
          </mxGeometry>
        </mxCell>
        <mxCell id="IaAq5tZLwrQzVeBqlxX5-35" value="&lt;font color=&quot;#336600&quot;&gt;&lt;b&gt;添加的元素&lt;/b&gt;&lt;/font&gt;" style="text;html=1;strokeColor=#FFEBA8;fillColor=#FFEBA8;align=center;verticalAlign=middle;whiteSpace=wrap;rounded=1;shadow=1;strokeWidth=2;fontFamily=Comic Sans MS;fontSize=18;fontColor=#ffffff;" parent="v1Vg9BsTZOCkdtuqE38V-1" vertex="1">
          <mxGeometry x="4740" y="683.12" width="100" height="50" as="geometry" />
        </mxCell>
        <mxCell id="IaAq5tZLwrQzVeBqlxX5-36" value="" style="endArrow=classic;html=1;rounded=0;labelBackgroundColor=default;strokeColor=#001DBC;strokeWidth=2;fontFamily=Comic Sans MS;fontSize=23;fontColor=#336600;shape=connector;curved=1;entryX=0.5;entryY=0;entryDx=0;entryDy=0;" parent="v1Vg9BsTZOCkdtuqE38V-1" target="IaAq5tZLwrQzVeBqlxX5-37" edge="1">
          <mxGeometry width="50" height="50" relative="1" as="geometry">
            <mxPoint x="4945" y="623.12" as="sourcePoint" />
            <mxPoint x="4945" y="683.12" as="targetPoint" />
          </mxGeometry>
        </mxCell>
        <mxCell id="IaAq5tZLwrQzVeBqlxX5-37" value="&lt;font color=&quot;#336600&quot;&gt;&lt;b&gt;是否是超时操作&lt;/b&gt;&lt;/font&gt;" style="text;html=1;strokeColor=#FFEBA8;fillColor=#FFEBA8;align=center;verticalAlign=middle;whiteSpace=wrap;rounded=1;shadow=1;strokeWidth=2;fontFamily=Comic Sans MS;fontSize=18;fontColor=#ffffff;" parent="v1Vg9BsTZOCkdtuqE38V-1" vertex="1">
          <mxGeometry x="4875.13" y="683.12" width="140" height="50" as="geometry" />
        </mxCell>
        <mxCell id="IaAq5tZLwrQzVeBqlxX5-38" value="" style="endArrow=classic;html=1;rounded=0;labelBackgroundColor=default;strokeColor=#001DBC;strokeWidth=2;fontFamily=Comic Sans MS;fontSize=23;fontColor=#336600;shape=connector;curved=1;entryX=0.5;entryY=0;entryDx=0;entryDy=0;" parent="v1Vg9BsTZOCkdtuqE38V-1" target="IaAq5tZLwrQzVeBqlxX5-39" edge="1">
          <mxGeometry width="50" height="50" relative="1" as="geometry">
            <mxPoint x="5099" y="623.12" as="sourcePoint" />
            <mxPoint x="5099" y="683.12" as="targetPoint" />
          </mxGeometry>
        </mxCell>
        <mxCell id="IaAq5tZLwrQzVeBqlxX5-39" value="&lt;font color=&quot;#336600&quot;&gt;&lt;b&gt;超时时间&lt;/b&gt;&lt;/font&gt;" style="text;html=1;strokeColor=#FFEBA8;fillColor=#FFEBA8;align=center;verticalAlign=middle;whiteSpace=wrap;rounded=1;shadow=1;strokeWidth=2;fontFamily=Comic Sans MS;fontSize=18;fontColor=#ffffff;" parent="v1Vg9BsTZOCkdtuqE38V-1" vertex="1">
          <mxGeometry x="5049" y="683.12" width="100" height="50" as="geometry" />
        </mxCell>
        <mxCell id="IaAq5tZLwrQzVeBqlxX5-41" value="" style="shape=curlyBracket;whiteSpace=wrap;html=1;rounded=1;shadow=0;strokeColor=#005700;strokeWidth=2;fontFamily=Comic Sans MS;fontSize=23;fontColor=#ffffff;fillColor=#008a00;rotation=90;" parent="v1Vg9BsTZOCkdtuqE38V-1" vertex="1">
          <mxGeometry x="4927.63" y="300" width="35" height="451.25" as="geometry" />
        </mxCell>
        <mxCell id="IaAq5tZLwrQzVeBqlxX5-43" style="edgeStyle=orthogonalEdgeStyle;shape=connector;curved=1;rounded=0;orthogonalLoop=1;jettySize=auto;html=1;labelBackgroundColor=default;strokeColor=#001DBC;strokeWidth=2;fontFamily=Comic Sans MS;fontSize=18;fontColor=#000000;endArrow=classic;entryX=0.5;entryY=0;entryDx=0;entryDy=0;" parent="v1Vg9BsTZOCkdtuqE38V-1" source="IaAq5tZLwrQzVeBqlxX5-42" target="IaAq5tZLwrQzVeBqlxX5-46" edge="1">
          <mxGeometry relative="1" as="geometry">
            <mxPoint x="4420" y="1380" as="targetPoint" />
          </mxGeometry>
        </mxCell>
        <mxCell id="IaAq5tZLwrQzVeBqlxX5-47" style="edgeStyle=orthogonalEdgeStyle;shape=connector;curved=1;rounded=0;orthogonalLoop=1;jettySize=auto;html=1;labelBackgroundColor=default;strokeColor=#001DBC;strokeWidth=2;fontFamily=Comic Sans MS;fontSize=18;fontColor=#000000;endArrow=classic;entryX=0.5;entryY=0;entryDx=0;entryDy=0;" parent="v1Vg9BsTZOCkdtuqE38V-1" source="IaAq5tZLwrQzVeBqlxX5-42" target="IaAq5tZLwrQzVeBqlxX5-48" edge="1">
          <mxGeometry relative="1" as="geometry">
            <mxPoint x="3950" y="1400" as="targetPoint" />
          </mxGeometry>
        </mxCell>
        <mxCell id="IaAq5tZLwrQzVeBqlxX5-42" value="&lt;font color=&quot;#000000&quot;&gt;&lt;span style=&quot;font-size: 18px;&quot;&gt;&lt;b&gt;是否立即返回&lt;/b&gt;&lt;/span&gt;&lt;/font&gt;" style="rhombus;whiteSpace=wrap;html=1;rounded=1;shadow=1;strokeColor=#82B366;strokeWidth=2;fontFamily=Comic Sans MS;fontSize=23;fontColor=#336600;fillColor=#82B366;" parent="v1Vg9BsTZOCkdtuqE38V-1" vertex="1">
          <mxGeometry x="4090" y="1250" width="230" height="70" as="geometry" />
        </mxCell>
        <mxCell id="IaAq5tZLwrQzVeBqlxX5-44" value="&lt;b&gt;true&lt;/b&gt;" style="text;html=1;strokeColor=#76608A;fillColor=#76608A;align=center;verticalAlign=middle;whiteSpace=wrap;rounded=1;shadow=1;strokeWidth=2;fontFamily=Comic Sans MS;fontSize=18;fontColor=#ffffff;" parent="v1Vg9BsTZOCkdtuqE38V-1" vertex="1">
          <mxGeometry x="4279" y="1230" width="70" height="40" as="geometry" />
        </mxCell>
        <mxCell id="IaAq5tZLwrQzVeBqlxX5-45" value="&lt;b&gt;false&lt;/b&gt;" style="text;html=1;strokeColor=#76608A;fillColor=#76608A;align=center;verticalAlign=middle;whiteSpace=wrap;rounded=1;shadow=1;strokeWidth=2;fontFamily=Comic Sans MS;fontSize=18;fontColor=#ffffff;" parent="v1Vg9BsTZOCkdtuqE38V-1" vertex="1">
          <mxGeometry x="4051" y="1230" width="70" height="40" as="geometry" />
        </mxCell>
        <mxCell id="IaAq5tZLwrQzVeBqlxX5-46" value="&lt;b&gt;返回null&lt;/b&gt;" style="ellipse;whiteSpace=wrap;html=1;rounded=1;shadow=1;strokeColor=#A0522D;strokeWidth=2;fontFamily=Comic Sans MS;fontSize=18;fontColor=#ffffff;fillColor=#A0522D;" parent="v1Vg9BsTZOCkdtuqE38V-1" vertex="1">
          <mxGeometry x="4349" y="1380" width="128" height="70" as="geometry" />
        </mxCell>
        <mxCell id="IaAq5tZLwrQzVeBqlxX5-49" style="edgeStyle=orthogonalEdgeStyle;shape=connector;curved=1;rounded=0;orthogonalLoop=1;jettySize=auto;html=1;labelBackgroundColor=default;strokeColor=#001DBC;strokeWidth=2;fontFamily=Comic Sans MS;fontSize=18;fontColor=#FFEBA8;endArrow=classic;entryX=0.5;entryY=0;entryDx=0;entryDy=0;" parent="v1Vg9BsTZOCkdtuqE38V-1" source="IaAq5tZLwrQzVeBqlxX5-48" target="IaAq5tZLwrQzVeBqlxX5-51" edge="1">
          <mxGeometry relative="1" as="geometry">
            <mxPoint x="3940" y="1520" as="targetPoint" />
          </mxGeometry>
        </mxCell>
        <mxCell id="IaAq5tZLwrQzVeBqlxX5-48" value="&lt;b&gt;将&lt;font color=&quot;#ffeba8&quot;&gt;e&lt;/font&gt;和&lt;font color=&quot;#ffeba8&quot;&gt;isData&lt;/font&gt;包装成QNode&lt;/b&gt;" style="rounded=1;whiteSpace=wrap;html=1;shadow=1;strokeColor=#82B366;strokeWidth=2;fontFamily=Comic Sans MS;fontSize=18;fontColor=#000000;fillColor=#82B366;" parent="v1Vg9BsTZOCkdtuqE38V-1" vertex="1">
          <mxGeometry x="3780" y="1390" width="180" height="60" as="geometry" />
        </mxCell>
        <mxCell id="IaAq5tZLwrQzVeBqlxX5-53" style="edgeStyle=orthogonalEdgeStyle;shape=connector;curved=1;rounded=0;orthogonalLoop=1;jettySize=auto;html=1;labelBackgroundColor=default;strokeColor=#001DBC;strokeWidth=2;fontFamily=Comic Sans MS;fontSize=18;fontColor=#000000;endArrow=classic;" parent="v1Vg9BsTZOCkdtuqE38V-1" source="IaAq5tZLwrQzVeBqlxX5-51" edge="1">
          <mxGeometry relative="1" as="geometry">
            <mxPoint x="3810" y="905.2000732421875" as="targetPoint" />
            <Array as="points">
              <mxPoint x="3600" y="1600" />
              <mxPoint x="3600" y="905" />
            </Array>
          </mxGeometry>
        </mxCell>
        <mxCell id="FAk8r3CZZbHMKuv0miPQ-0" style="edgeStyle=orthogonalEdgeStyle;rounded=0;orthogonalLoop=1;jettySize=auto;html=1;fontSize=14;entryX=0.5;entryY=0;entryDx=0;entryDy=0;" parent="v1Vg9BsTZOCkdtuqE38V-1" source="IaAq5tZLwrQzVeBqlxX5-51" target="FAk8r3CZZbHMKuv0miPQ-1" edge="1">
          <mxGeometry relative="1" as="geometry">
            <mxPoint x="3870" y="1700" as="targetPoint" />
          </mxGeometry>
        </mxCell>
        <mxCell id="IaAq5tZLwrQzVeBqlxX5-51" value="&lt;b&gt;&lt;font color=&quot;#000000&quot;&gt;将&lt;/font&gt;QNode&lt;font color=&quot;#000000&quot;&gt;添加到队列末尾&lt;/font&gt;&lt;/b&gt;" style="rhombus;whiteSpace=wrap;html=1;rounded=1;shadow=1;strokeColor=#82B366;strokeWidth=2;fontFamily=Comic Sans MS;fontSize=18;fontColor=#FFEBA8;fillColor=#82B366;" parent="v1Vg9BsTZOCkdtuqE38V-1" vertex="1">
          <mxGeometry x="3745" y="1560" width="250" height="80" as="geometry" />
        </mxCell>
        <mxCell id="IaAq5tZLwrQzVeBqlxX5-54" value="&lt;b&gt;失败&lt;/b&gt;" style="text;html=1;strokeColor=#76608A;fillColor=#76608A;align=center;verticalAlign=middle;whiteSpace=wrap;rounded=1;shadow=1;strokeWidth=2;fontFamily=Comic Sans MS;fontSize=18;fontColor=#ffffff;" parent="v1Vg9BsTZOCkdtuqE38V-1" vertex="1">
          <mxGeometry x="3687" y="1540" width="70" height="40" as="geometry" />
        </mxCell>
        <mxCell id="FAk8r3CZZbHMKuv0miPQ-1" value="&lt;font style=&quot;font-size: 18px;&quot; face=&quot;Comic Sans MS&quot;&gt;&lt;b&gt;将新节点设置成tail&lt;/b&gt;&lt;/font&gt;" style="rounded=1;whiteSpace=wrap;html=1;strokeColor=#82B366;fontSize=14;fillColor=#82B366;" parent="v1Vg9BsTZOCkdtuqE38V-1" vertex="1">
          <mxGeometry x="3775" y="1710" width="190" height="60" as="geometry" />
        </mxCell>
      </root>
    </mxGraphModel>
  </diagram>
  <diagram name="TransfererQueue-transfer-queue" id="671yMwn5-dL6iwS5Hnhp">
    <mxGraphModel dx="-3097" dy="547" grid="1" gridSize="10" guides="1" tooltips="1" connect="1" arrows="1" fold="1" page="1" pageScale="1" pageWidth="827" pageHeight="1169" background="#EEEEEE" math="0" shadow="0">
      <root>
        <mxCell id="8pLtTDc_EcXtmAlXXH7b-0" />
        <mxCell id="8pLtTDc_EcXtmAlXXH7b-1" parent="8pLtTDc_EcXtmAlXXH7b-0" />
        <mxCell id="3HA9Ua6MZ-xrgXltdwEb-0" value="" style="shape=table;startSize=0;container=1;collapsible=0;childLayout=tableLayout;strokeColor=#2D7600;fontFamily=Comic Sans MS;fontSize=18;fillColor=#60a917;shadow=1;fontColor=#ffffff;" parent="8pLtTDc_EcXtmAlXXH7b-1" vertex="1">
          <mxGeometry x="4209" y="150" width="80" height="60" as="geometry" />
        </mxCell>
        <mxCell id="3HA9Ua6MZ-xrgXltdwEb-1" value="" style="shape=tableRow;horizontal=0;startSize=0;swimlaneHead=0;swimlaneBody=0;top=0;left=0;bottom=0;right=0;collapsible=0;dropTarget=0;fillColor=none;points=[[0,0.5],[1,0.5]];portConstraint=eastwest;strokeColor=#82B366;fontFamily=Comic Sans MS;fontSize=18;" parent="3HA9Ua6MZ-xrgXltdwEb-0" vertex="1">
          <mxGeometry width="80" height="60" as="geometry" />
        </mxCell>
        <mxCell id="3HA9Ua6MZ-xrgXltdwEb-2" value="&lt;b&gt;init&lt;/b&gt;" style="shape=partialRectangle;html=1;whiteSpace=wrap;connectable=0;overflow=hidden;fillColor=none;top=0;left=0;bottom=0;right=0;pointerEvents=1;strokeColor=#82B366;fontFamily=Comic Sans MS;fontSize=18;shadow=1;" parent="3HA9Ua6MZ-xrgXltdwEb-1" vertex="1">
          <mxGeometry width="80" height="60" as="geometry">
            <mxRectangle width="80" height="60" as="alternateBounds" />
          </mxGeometry>
        </mxCell>
        <mxCell id="3HA9Ua6MZ-xrgXltdwEb-3" style="edgeStyle=orthogonalEdgeStyle;rounded=0;orthogonalLoop=1;jettySize=auto;html=1;fontFamily=Comic Sans MS;fontSize=18;entryX=0;entryY=0.5;entryDx=0;entryDy=0;" parent="8pLtTDc_EcXtmAlXXH7b-1" source="3HA9Ua6MZ-xrgXltdwEb-1" target="3HA9Ua6MZ-xrgXltdwEb-6" edge="1">
          <mxGeometry relative="1" as="geometry">
            <mxPoint x="4349" y="180" as="targetPoint" />
          </mxGeometry>
        </mxCell>
        <mxCell id="3HA9Ua6MZ-xrgXltdwEb-5" value="" style="shape=table;startSize=0;container=1;collapsible=0;childLayout=tableLayout;strokeColor=#706A73;fontFamily=Comic Sans MS;fontSize=18;fillColor=#F5F5F5;shadow=1;fontColor=#333333;" parent="8pLtTDc_EcXtmAlXXH7b-1" vertex="1">
          <mxGeometry x="4359" y="150" width="80" height="60" as="geometry" />
        </mxCell>
        <mxCell id="3HA9Ua6MZ-xrgXltdwEb-6" value="" style="shape=tableRow;horizontal=0;startSize=0;swimlaneHead=0;swimlaneBody=0;top=0;left=0;bottom=0;right=0;collapsible=0;dropTarget=0;fillColor=none;points=[[0,0.5],[1,0.5]];portConstraint=eastwest;strokeColor=#82B366;fontFamily=Comic Sans MS;fontSize=18;" parent="3HA9Ua6MZ-xrgXltdwEb-5" vertex="1">
          <mxGeometry width="80" height="60" as="geometry" />
        </mxCell>
        <mxCell id="3HA9Ua6MZ-xrgXltdwEb-7" value="&lt;b&gt;put&lt;/b&gt;" style="shape=partialRectangle;html=1;whiteSpace=wrap;connectable=0;overflow=hidden;fillColor=none;top=0;left=0;bottom=0;right=0;pointerEvents=1;strokeColor=#82B366;fontFamily=Comic Sans MS;fontSize=18;shadow=1;" parent="3HA9Ua6MZ-xrgXltdwEb-6" vertex="1">
          <mxGeometry width="80" height="60" as="geometry">
            <mxRectangle width="80" height="60" as="alternateBounds" />
          </mxGeometry>
        </mxCell>
        <mxCell id="3HA9Ua6MZ-xrgXltdwEb-8" style="edgeStyle=orthogonalEdgeStyle;rounded=0;orthogonalLoop=1;jettySize=auto;html=1;fontFamily=Comic Sans MS;fontSize=18;entryX=0;entryY=0.5;entryDx=0;entryDy=0;" parent="8pLtTDc_EcXtmAlXXH7b-1" target="3HA9Ua6MZ-xrgXltdwEb-11" edge="1">
          <mxGeometry relative="1" as="geometry">
            <mxPoint x="4499" y="180" as="targetPoint" />
            <mxPoint x="4439" y="180" as="sourcePoint" />
          </mxGeometry>
        </mxCell>
        <mxCell id="3HA9Ua6MZ-xrgXltdwEb-10" value="" style="shape=table;startSize=0;container=1;collapsible=0;childLayout=tableLayout;strokeColor=#666666;fontFamily=Comic Sans MS;fontSize=18;fillColor=#f5f5f5;shadow=1;fontColor=#333333;" parent="8pLtTDc_EcXtmAlXXH7b-1" vertex="1">
          <mxGeometry x="4509" y="150" width="80" height="60" as="geometry" />
        </mxCell>
        <mxCell id="3HA9Ua6MZ-xrgXltdwEb-11" value="" style="shape=tableRow;horizontal=0;startSize=0;swimlaneHead=0;swimlaneBody=0;top=0;left=0;bottom=0;right=0;collapsible=0;dropTarget=0;fillColor=none;points=[[0,0.5],[1,0.5]];portConstraint=eastwest;strokeColor=#82B366;fontFamily=Comic Sans MS;fontSize=18;" parent="3HA9Ua6MZ-xrgXltdwEb-10" vertex="1">
          <mxGeometry width="80" height="60" as="geometry" />
        </mxCell>
        <mxCell id="3HA9Ua6MZ-xrgXltdwEb-12" value="&lt;b&gt;put&lt;/b&gt;" style="shape=partialRectangle;html=1;whiteSpace=wrap;connectable=0;overflow=hidden;fillColor=none;top=0;left=0;bottom=0;right=0;pointerEvents=1;strokeColor=#82B366;fontFamily=Comic Sans MS;fontSize=18;shadow=1;" parent="3HA9Ua6MZ-xrgXltdwEb-11" vertex="1">
          <mxGeometry width="80" height="60" as="geometry">
            <mxRectangle width="80" height="60" as="alternateBounds" />
          </mxGeometry>
        </mxCell>
        <mxCell id="3HA9Ua6MZ-xrgXltdwEb-13" style="edgeStyle=orthogonalEdgeStyle;rounded=0;orthogonalLoop=1;jettySize=auto;html=1;fontFamily=Comic Sans MS;fontSize=18;entryX=0;entryY=0.5;entryDx=0;entryDy=0;" parent="8pLtTDc_EcXtmAlXXH7b-1" target="3HA9Ua6MZ-xrgXltdwEb-16" edge="1">
          <mxGeometry relative="1" as="geometry">
            <mxPoint x="4649" y="180" as="targetPoint" />
            <mxPoint x="4589" y="180" as="sourcePoint" />
          </mxGeometry>
        </mxCell>
        <mxCell id="3HA9Ua6MZ-xrgXltdwEb-15" value="" style="shape=table;startSize=0;container=1;collapsible=0;childLayout=tableLayout;strokeColor=#706A73;fontFamily=Comic Sans MS;fontSize=18;fillColor=#F5F5F5;shadow=1;fontColor=#333333;" parent="8pLtTDc_EcXtmAlXXH7b-1" vertex="1">
          <mxGeometry x="4659" y="150" width="80" height="60" as="geometry" />
        </mxCell>
        <mxCell id="3HA9Ua6MZ-xrgXltdwEb-16" value="" style="shape=tableRow;horizontal=0;startSize=0;swimlaneHead=0;swimlaneBody=0;top=0;left=0;bottom=0;right=0;collapsible=0;dropTarget=0;fillColor=none;points=[[0,0.5],[1,0.5]];portConstraint=eastwest;strokeColor=#82B366;fontFamily=Comic Sans MS;fontSize=18;" parent="3HA9Ua6MZ-xrgXltdwEb-15" vertex="1">
          <mxGeometry width="80" height="60" as="geometry" />
        </mxCell>
        <mxCell id="3HA9Ua6MZ-xrgXltdwEb-17" value="&lt;b&gt;put&lt;/b&gt;" style="shape=partialRectangle;html=1;whiteSpace=wrap;connectable=0;overflow=hidden;fillColor=none;top=0;left=0;bottom=0;right=0;pointerEvents=1;strokeColor=#82B366;fontFamily=Comic Sans MS;fontSize=18;shadow=1;" parent="3HA9Ua6MZ-xrgXltdwEb-16" vertex="1">
          <mxGeometry width="80" height="60" as="geometry">
            <mxRectangle width="80" height="60" as="alternateBounds" />
          </mxGeometry>
        </mxCell>
        <mxCell id="3HA9Ua6MZ-xrgXltdwEb-18" style="edgeStyle=orthogonalEdgeStyle;rounded=0;orthogonalLoop=1;jettySize=auto;html=1;fontFamily=Comic Sans MS;fontSize=18;entryX=0;entryY=0.5;entryDx=0;entryDy=0;" parent="8pLtTDc_EcXtmAlXXH7b-1" target="3HA9Ua6MZ-xrgXltdwEb-21" edge="1">
          <mxGeometry relative="1" as="geometry">
            <mxPoint x="4799" y="180" as="targetPoint" />
            <mxPoint x="4739" y="180" as="sourcePoint" />
          </mxGeometry>
        </mxCell>
        <mxCell id="3HA9Ua6MZ-xrgXltdwEb-20" value="" style="shape=table;startSize=0;container=1;collapsible=0;childLayout=tableLayout;strokeColor=#706A73;fontFamily=Comic Sans MS;fontSize=18;fillColor=#F5F5F5;shadow=1;fontColor=#333333;" parent="8pLtTDc_EcXtmAlXXH7b-1" vertex="1">
          <mxGeometry x="4809" y="150" width="80" height="60" as="geometry" />
        </mxCell>
        <mxCell id="3HA9Ua6MZ-xrgXltdwEb-21" value="" style="shape=tableRow;horizontal=0;startSize=0;swimlaneHead=0;swimlaneBody=0;top=0;left=0;bottom=0;right=0;collapsible=0;dropTarget=0;fillColor=none;points=[[0,0.5],[1,0.5]];portConstraint=eastwest;strokeColor=#82B366;fontFamily=Comic Sans MS;fontSize=18;" parent="3HA9Ua6MZ-xrgXltdwEb-20" vertex="1">
          <mxGeometry width="80" height="60" as="geometry" />
        </mxCell>
        <mxCell id="3HA9Ua6MZ-xrgXltdwEb-22" value="&lt;b&gt;put&lt;/b&gt;" style="shape=partialRectangle;html=1;whiteSpace=wrap;connectable=0;overflow=hidden;fillColor=none;top=0;left=0;bottom=0;right=0;pointerEvents=1;strokeColor=#82B366;fontFamily=Comic Sans MS;fontSize=18;shadow=1;" parent="3HA9Ua6MZ-xrgXltdwEb-21" vertex="1">
          <mxGeometry width="80" height="60" as="geometry">
            <mxRectangle width="80" height="60" as="alternateBounds" />
          </mxGeometry>
        </mxCell>
        <mxCell id="3HA9Ua6MZ-xrgXltdwEb-24" style="edgeStyle=orthogonalEdgeStyle;rounded=0;orthogonalLoop=1;jettySize=auto;html=1;entryX=0.49;entryY=-0.01;entryDx=0;entryDy=0;entryPerimeter=0;fontFamily=Comic Sans MS;fontSize=18;" parent="8pLtTDc_EcXtmAlXXH7b-1" source="3HA9Ua6MZ-xrgXltdwEb-23" target="3HA9Ua6MZ-xrgXltdwEb-1" edge="1">
          <mxGeometry relative="1" as="geometry" />
        </mxCell>
        <mxCell id="3HA9Ua6MZ-xrgXltdwEb-23" value="&lt;font color=&quot;#336600&quot;&gt;&lt;b&gt;head&lt;/b&gt;&lt;/font&gt;" style="text;html=1;strokeColor=#FFEBA8;fillColor=#FFEBA8;align=center;verticalAlign=middle;whiteSpace=wrap;rounded=1;shadow=1;strokeWidth=2;fontFamily=Comic Sans MS;fontSize=18;fontColor=#ffffff;" parent="8pLtTDc_EcXtmAlXXH7b-1" vertex="1">
          <mxGeometry x="4199" y="20" width="100" height="50" as="geometry" />
        </mxCell>
        <mxCell id="3HA9Ua6MZ-xrgXltdwEb-25" style="edgeStyle=orthogonalEdgeStyle;rounded=0;orthogonalLoop=1;jettySize=auto;html=1;entryX=0.49;entryY=-0.01;entryDx=0;entryDy=0;entryPerimeter=0;fontFamily=Comic Sans MS;fontSize=18;" parent="8pLtTDc_EcXtmAlXXH7b-1" source="3HA9Ua6MZ-xrgXltdwEb-26" edge="1">
          <mxGeometry relative="1" as="geometry">
            <mxPoint x="4848.2" y="150.0000000000001" as="targetPoint" />
          </mxGeometry>
        </mxCell>
        <mxCell id="3HA9Ua6MZ-xrgXltdwEb-26" value="&lt;font color=&quot;#336600&quot;&gt;&lt;b&gt;tail&lt;/b&gt;&lt;/font&gt;" style="text;html=1;strokeColor=#FFEBA8;fillColor=#FFEBA8;align=center;verticalAlign=middle;whiteSpace=wrap;rounded=1;shadow=1;strokeWidth=2;fontFamily=Comic Sans MS;fontSize=18;fontColor=#ffffff;" parent="8pLtTDc_EcXtmAlXXH7b-1" vertex="1">
          <mxGeometry x="4799" y="20.600000000000023" width="100" height="50" as="geometry" />
        </mxCell>
        <mxCell id="rCYl5_0uwUFk4qepiHuQ-0" value="" style="shape=table;startSize=0;container=1;collapsible=0;childLayout=tableLayout;strokeColor=#2D7600;fontFamily=Comic Sans MS;fontSize=18;fillColor=#60a917;shadow=1;fontColor=#ffffff;" vertex="1" parent="8pLtTDc_EcXtmAlXXH7b-1">
          <mxGeometry x="4209" y="430" width="80" height="60" as="geometry" />
        </mxCell>
        <mxCell id="rCYl5_0uwUFk4qepiHuQ-1" value="" style="shape=tableRow;horizontal=0;startSize=0;swimlaneHead=0;swimlaneBody=0;top=0;left=0;bottom=0;right=0;collapsible=0;dropTarget=0;fillColor=none;points=[[0,0.5],[1,0.5]];portConstraint=eastwest;strokeColor=#82B366;fontFamily=Comic Sans MS;fontSize=18;" vertex="1" parent="rCYl5_0uwUFk4qepiHuQ-0">
          <mxGeometry width="80" height="60" as="geometry" />
        </mxCell>
        <mxCell id="rCYl5_0uwUFk4qepiHuQ-2" value="&lt;b&gt;init&lt;/b&gt;" style="shape=partialRectangle;html=1;whiteSpace=wrap;connectable=0;overflow=hidden;fillColor=none;top=0;left=0;bottom=0;right=0;pointerEvents=1;strokeColor=#82B366;fontFamily=Comic Sans MS;fontSize=18;shadow=1;" vertex="1" parent="rCYl5_0uwUFk4qepiHuQ-1">
          <mxGeometry width="80" height="60" as="geometry">
            <mxRectangle width="80" height="60" as="alternateBounds" />
          </mxGeometry>
        </mxCell>
        <mxCell id="rCYl5_0uwUFk4qepiHuQ-3" style="edgeStyle=orthogonalEdgeStyle;rounded=0;orthogonalLoop=1;jettySize=auto;html=1;fontFamily=Comic Sans MS;fontSize=18;entryX=0;entryY=0.5;entryDx=0;entryDy=0;" edge="1" parent="8pLtTDc_EcXtmAlXXH7b-1" source="rCYl5_0uwUFk4qepiHuQ-1" target="rCYl5_0uwUFk4qepiHuQ-5">
          <mxGeometry relative="1" as="geometry">
            <mxPoint x="4349" y="460" as="targetPoint" />
          </mxGeometry>
        </mxCell>
        <mxCell id="rCYl5_0uwUFk4qepiHuQ-4" value="" style="shape=table;startSize=0;container=1;collapsible=0;childLayout=tableLayout;strokeColor=#706A73;fontFamily=Comic Sans MS;fontSize=18;fillColor=#F5F5F5;shadow=1;fontColor=#333333;" vertex="1" parent="8pLtTDc_EcXtmAlXXH7b-1">
          <mxGeometry x="4359" y="430" width="80" height="60" as="geometry" />
        </mxCell>
        <mxCell id="rCYl5_0uwUFk4qepiHuQ-5" value="" style="shape=tableRow;horizontal=0;startSize=0;swimlaneHead=0;swimlaneBody=0;top=0;left=0;bottom=0;right=0;collapsible=0;dropTarget=0;fillColor=none;points=[[0,0.5],[1,0.5]];portConstraint=eastwest;strokeColor=#82B366;fontFamily=Comic Sans MS;fontSize=18;" vertex="1" parent="rCYl5_0uwUFk4qepiHuQ-4">
          <mxGeometry width="80" height="60" as="geometry" />
        </mxCell>
        <mxCell id="rCYl5_0uwUFk4qepiHuQ-6" value="&lt;b&gt;take&lt;/b&gt;" style="shape=partialRectangle;html=1;whiteSpace=wrap;connectable=0;overflow=hidden;fillColor=none;top=0;left=0;bottom=0;right=0;pointerEvents=1;strokeColor=#82B366;fontFamily=Comic Sans MS;fontSize=18;shadow=1;" vertex="1" parent="rCYl5_0uwUFk4qepiHuQ-5">
          <mxGeometry width="80" height="60" as="geometry">
            <mxRectangle width="80" height="60" as="alternateBounds" />
          </mxGeometry>
        </mxCell>
        <mxCell id="rCYl5_0uwUFk4qepiHuQ-7" style="edgeStyle=orthogonalEdgeStyle;rounded=0;orthogonalLoop=1;jettySize=auto;html=1;fontFamily=Comic Sans MS;fontSize=18;entryX=0;entryY=0.5;entryDx=0;entryDy=0;" edge="1" parent="8pLtTDc_EcXtmAlXXH7b-1" target="rCYl5_0uwUFk4qepiHuQ-9">
          <mxGeometry relative="1" as="geometry">
            <mxPoint x="4499" y="460" as="targetPoint" />
            <mxPoint x="4439" y="460" as="sourcePoint" />
          </mxGeometry>
        </mxCell>
        <mxCell id="rCYl5_0uwUFk4qepiHuQ-8" value="" style="shape=table;startSize=0;container=1;collapsible=0;childLayout=tableLayout;strokeColor=#666666;fontFamily=Comic Sans MS;fontSize=18;fillColor=#f5f5f5;shadow=1;fontColor=#333333;" vertex="1" parent="8pLtTDc_EcXtmAlXXH7b-1">
          <mxGeometry x="4509" y="430" width="80" height="60" as="geometry" />
        </mxCell>
        <mxCell id="rCYl5_0uwUFk4qepiHuQ-9" value="" style="shape=tableRow;horizontal=0;startSize=0;swimlaneHead=0;swimlaneBody=0;top=0;left=0;bottom=0;right=0;collapsible=0;dropTarget=0;fillColor=none;points=[[0,0.5],[1,0.5]];portConstraint=eastwest;strokeColor=#82B366;fontFamily=Comic Sans MS;fontSize=18;" vertex="1" parent="rCYl5_0uwUFk4qepiHuQ-8">
          <mxGeometry width="80" height="60" as="geometry" />
        </mxCell>
        <mxCell id="rCYl5_0uwUFk4qepiHuQ-10" value="&lt;b&gt;take&lt;/b&gt;" style="shape=partialRectangle;html=1;whiteSpace=wrap;connectable=0;overflow=hidden;fillColor=none;top=0;left=0;bottom=0;right=0;pointerEvents=1;strokeColor=#82B366;fontFamily=Comic Sans MS;fontSize=18;shadow=1;" vertex="1" parent="rCYl5_0uwUFk4qepiHuQ-9">
          <mxGeometry width="80" height="60" as="geometry">
            <mxRectangle width="80" height="60" as="alternateBounds" />
          </mxGeometry>
        </mxCell>
        <mxCell id="rCYl5_0uwUFk4qepiHuQ-11" style="edgeStyle=orthogonalEdgeStyle;rounded=0;orthogonalLoop=1;jettySize=auto;html=1;fontFamily=Comic Sans MS;fontSize=18;entryX=0;entryY=0.5;entryDx=0;entryDy=0;" edge="1" parent="8pLtTDc_EcXtmAlXXH7b-1" target="rCYl5_0uwUFk4qepiHuQ-13">
          <mxGeometry relative="1" as="geometry">
            <mxPoint x="4649" y="460" as="targetPoint" />
            <mxPoint x="4589" y="460" as="sourcePoint" />
          </mxGeometry>
        </mxCell>
        <mxCell id="rCYl5_0uwUFk4qepiHuQ-12" value="" style="shape=table;startSize=0;container=1;collapsible=0;childLayout=tableLayout;strokeColor=#706A73;fontFamily=Comic Sans MS;fontSize=18;fillColor=#F5F5F5;shadow=1;fontColor=#333333;" vertex="1" parent="8pLtTDc_EcXtmAlXXH7b-1">
          <mxGeometry x="4659" y="430" width="80" height="60" as="geometry" />
        </mxCell>
        <mxCell id="rCYl5_0uwUFk4qepiHuQ-13" value="" style="shape=tableRow;horizontal=0;startSize=0;swimlaneHead=0;swimlaneBody=0;top=0;left=0;bottom=0;right=0;collapsible=0;dropTarget=0;fillColor=none;points=[[0,0.5],[1,0.5]];portConstraint=eastwest;strokeColor=#82B366;fontFamily=Comic Sans MS;fontSize=18;" vertex="1" parent="rCYl5_0uwUFk4qepiHuQ-12">
          <mxGeometry width="80" height="60" as="geometry" />
        </mxCell>
        <mxCell id="rCYl5_0uwUFk4qepiHuQ-14" value="&lt;b&gt;take&lt;/b&gt;" style="shape=partialRectangle;html=1;whiteSpace=wrap;connectable=0;overflow=hidden;fillColor=none;top=0;left=0;bottom=0;right=0;pointerEvents=1;strokeColor=#82B366;fontFamily=Comic Sans MS;fontSize=18;shadow=1;" vertex="1" parent="rCYl5_0uwUFk4qepiHuQ-13">
          <mxGeometry width="80" height="60" as="geometry">
            <mxRectangle width="80" height="60" as="alternateBounds" />
          </mxGeometry>
        </mxCell>
        <mxCell id="rCYl5_0uwUFk4qepiHuQ-15" style="edgeStyle=orthogonalEdgeStyle;rounded=0;orthogonalLoop=1;jettySize=auto;html=1;fontFamily=Comic Sans MS;fontSize=18;entryX=0;entryY=0.5;entryDx=0;entryDy=0;" edge="1" parent="8pLtTDc_EcXtmAlXXH7b-1" target="rCYl5_0uwUFk4qepiHuQ-17">
          <mxGeometry relative="1" as="geometry">
            <mxPoint x="4799" y="460" as="targetPoint" />
            <mxPoint x="4739" y="460" as="sourcePoint" />
          </mxGeometry>
        </mxCell>
        <mxCell id="rCYl5_0uwUFk4qepiHuQ-16" value="" style="shape=table;startSize=0;container=1;collapsible=0;childLayout=tableLayout;strokeColor=#706A73;fontFamily=Comic Sans MS;fontSize=18;fillColor=#F5F5F5;shadow=1;fontColor=#333333;" vertex="1" parent="8pLtTDc_EcXtmAlXXH7b-1">
          <mxGeometry x="4809" y="430" width="80" height="60" as="geometry" />
        </mxCell>
        <mxCell id="rCYl5_0uwUFk4qepiHuQ-17" value="" style="shape=tableRow;horizontal=0;startSize=0;swimlaneHead=0;swimlaneBody=0;top=0;left=0;bottom=0;right=0;collapsible=0;dropTarget=0;fillColor=none;points=[[0,0.5],[1,0.5]];portConstraint=eastwest;strokeColor=#82B366;fontFamily=Comic Sans MS;fontSize=18;" vertex="1" parent="rCYl5_0uwUFk4qepiHuQ-16">
          <mxGeometry width="80" height="60" as="geometry" />
        </mxCell>
        <mxCell id="rCYl5_0uwUFk4qepiHuQ-18" value="&lt;b&gt;take&lt;/b&gt;" style="shape=partialRectangle;html=1;whiteSpace=wrap;connectable=0;overflow=hidden;fillColor=none;top=0;left=0;bottom=0;right=0;pointerEvents=1;strokeColor=#82B366;fontFamily=Comic Sans MS;fontSize=18;shadow=1;" vertex="1" parent="rCYl5_0uwUFk4qepiHuQ-17">
          <mxGeometry width="80" height="60" as="geometry">
            <mxRectangle width="80" height="60" as="alternateBounds" />
          </mxGeometry>
        </mxCell>
        <mxCell id="rCYl5_0uwUFk4qepiHuQ-19" style="edgeStyle=orthogonalEdgeStyle;rounded=0;orthogonalLoop=1;jettySize=auto;html=1;entryX=0.49;entryY=-0.01;entryDx=0;entryDy=0;entryPerimeter=0;fontFamily=Comic Sans MS;fontSize=18;" edge="1" parent="8pLtTDc_EcXtmAlXXH7b-1" source="rCYl5_0uwUFk4qepiHuQ-20" target="rCYl5_0uwUFk4qepiHuQ-1">
          <mxGeometry relative="1" as="geometry" />
        </mxCell>
        <mxCell id="rCYl5_0uwUFk4qepiHuQ-20" value="&lt;font color=&quot;#336600&quot;&gt;&lt;b&gt;head&lt;/b&gt;&lt;/font&gt;" style="text;html=1;strokeColor=#FFEBA8;fillColor=#FFEBA8;align=center;verticalAlign=middle;whiteSpace=wrap;rounded=1;shadow=1;strokeWidth=2;fontFamily=Comic Sans MS;fontSize=18;fontColor=#ffffff;" vertex="1" parent="8pLtTDc_EcXtmAlXXH7b-1">
          <mxGeometry x="4199" y="300" width="100" height="50" as="geometry" />
        </mxCell>
        <mxCell id="rCYl5_0uwUFk4qepiHuQ-21" style="edgeStyle=orthogonalEdgeStyle;rounded=0;orthogonalLoop=1;jettySize=auto;html=1;entryX=0.49;entryY=-0.01;entryDx=0;entryDy=0;entryPerimeter=0;fontFamily=Comic Sans MS;fontSize=18;" edge="1" parent="8pLtTDc_EcXtmAlXXH7b-1" source="rCYl5_0uwUFk4qepiHuQ-22">
          <mxGeometry relative="1" as="geometry">
            <mxPoint x="4848.2" y="430.0000000000001" as="targetPoint" />
          </mxGeometry>
        </mxCell>
        <mxCell id="rCYl5_0uwUFk4qepiHuQ-22" value="&lt;font color=&quot;#336600&quot;&gt;&lt;b&gt;tail&lt;/b&gt;&lt;/font&gt;" style="text;html=1;strokeColor=#FFEBA8;fillColor=#FFEBA8;align=center;verticalAlign=middle;whiteSpace=wrap;rounded=1;shadow=1;strokeWidth=2;fontFamily=Comic Sans MS;fontSize=18;fontColor=#ffffff;" vertex="1" parent="8pLtTDc_EcXtmAlXXH7b-1">
          <mxGeometry x="4799" y="300.6" width="100" height="50" as="geometry" />
        </mxCell>
        <mxCell id="rCYl5_0uwUFk4qepiHuQ-23" value="" style="rounded=0;whiteSpace=wrap;html=1;shadow=1;fillColor=#60a917;fontColor=#ffffff;strokeColor=#2D7600;" vertex="1" parent="8pLtTDc_EcXtmAlXXH7b-1">
          <mxGeometry x="4170" y="725" width="170" height="230" as="geometry" />
        </mxCell>
        <mxCell id="rCYl5_0uwUFk4qepiHuQ-25" value="&lt;font style=&quot;font-size: 18px;&quot; face=&quot;Comic Sans MS&quot;&gt;&lt;b&gt;put&lt;/b&gt;&lt;/font&gt;" style="text;html=1;strokeColor=#D80073;fillColor=#D80073;align=center;verticalAlign=middle;whiteSpace=wrap;rounded=0;shadow=1;fontColor=#ffffff;" vertex="1" parent="8pLtTDc_EcXtmAlXXH7b-1">
          <mxGeometry x="4225" y="685" width="60" height="30" as="geometry" />
        </mxCell>
        <mxCell id="rCYl5_0uwUFk4qepiHuQ-26" value="" style="rounded=1;whiteSpace=wrap;html=1;shadow=1;fontFamily=Comic Sans MS;fontSize=18;fillColor=#6a00ff;fontColor=#ffffff;strokeColor=#3700CC;" vertex="1" parent="8pLtTDc_EcXtmAlXXH7b-1">
          <mxGeometry x="4135" y="585" width="820" height="40" as="geometry" />
        </mxCell>
        <mxCell id="rCYl5_0uwUFk4qepiHuQ-27" value="&lt;b&gt;next&lt;/b&gt;" style="rounded=1;whiteSpace=wrap;html=1;shadow=1;fontFamily=Comic Sans MS;fontSize=18;fillColor=default;" vertex="1" parent="8pLtTDc_EcXtmAlXXH7b-1">
          <mxGeometry x="4189" y="745" width="131" height="40" as="geometry" />
        </mxCell>
        <mxCell id="rCYl5_0uwUFk4qepiHuQ-28" value="&lt;b&gt;item=e&lt;/b&gt;" style="rounded=1;whiteSpace=wrap;html=1;shadow=1;fontFamily=Comic Sans MS;fontSize=18;fillColor=#f8cecc;strokeColor=#b85450;" vertex="1" parent="8pLtTDc_EcXtmAlXXH7b-1">
          <mxGeometry x="4189" y="795" width="131" height="40" as="geometry" />
        </mxCell>
        <mxCell id="rCYl5_0uwUFk4qepiHuQ-29" value="" style="rounded=1;whiteSpace=wrap;html=1;shadow=1;fontFamily=Comic Sans MS;fontSize=18;fillColor=default;" vertex="1" parent="8pLtTDc_EcXtmAlXXH7b-1">
          <mxGeometry x="4189" y="845" width="131" height="40" as="geometry" />
        </mxCell>
        <mxCell id="rCYl5_0uwUFk4qepiHuQ-30" value="&lt;b&gt;waiter=thread&lt;/b&gt;" style="rounded=1;whiteSpace=wrap;html=1;shadow=1;fontFamily=Comic Sans MS;fontSize=18;fillColor=#f8cecc;strokeColor=#b85450;" vertex="1" parent="8pLtTDc_EcXtmAlXXH7b-1">
          <mxGeometry x="4189" y="845" width="131" height="40" as="geometry" />
        </mxCell>
        <mxCell id="rCYl5_0uwUFk4qepiHuQ-31" value="&lt;b&gt;isData=true&lt;/b&gt;" style="rounded=1;whiteSpace=wrap;html=1;shadow=1;fontFamily=Comic Sans MS;fontSize=18;fillColor=#f8cecc;strokeColor=#b85450;" vertex="1" parent="8pLtTDc_EcXtmAlXXH7b-1">
          <mxGeometry x="4188" y="895" width="131" height="40" as="geometry" />
        </mxCell>
        <mxCell id="rCYl5_0uwUFk4qepiHuQ-32" value="" style="rounded=0;whiteSpace=wrap;html=1;shadow=1;fillColor=#60a917;fontColor=#ffffff;strokeColor=#2D7600;" vertex="1" parent="8pLtTDc_EcXtmAlXXH7b-1">
          <mxGeometry x="4439" y="720" width="170" height="230" as="geometry" />
        </mxCell>
        <mxCell id="rCYl5_0uwUFk4qepiHuQ-33" value="&lt;font style=&quot;font-size: 18px;&quot; face=&quot;Comic Sans MS&quot;&gt;&lt;b&gt;init&lt;/b&gt;&lt;/font&gt;" style="text;html=1;strokeColor=#60A917;fillColor=#60A917;align=center;verticalAlign=middle;whiteSpace=wrap;rounded=0;shadow=1;fontColor=#ffffff;" vertex="1" parent="8pLtTDc_EcXtmAlXXH7b-1">
          <mxGeometry x="4494" y="680" width="60" height="30" as="geometry" />
        </mxCell>
        <mxCell id="rCYl5_0uwUFk4qepiHuQ-34" value="&lt;b&gt;next&lt;/b&gt;" style="rounded=1;whiteSpace=wrap;html=1;shadow=1;fontFamily=Comic Sans MS;fontSize=18;fillColor=default;" vertex="1" parent="8pLtTDc_EcXtmAlXXH7b-1">
          <mxGeometry x="4458" y="740" width="131" height="40" as="geometry" />
        </mxCell>
        <mxCell id="rCYl5_0uwUFk4qepiHuQ-35" value="&lt;b&gt;item=null&lt;/b&gt;" style="rounded=1;whiteSpace=wrap;html=1;shadow=1;fontFamily=Comic Sans MS;fontSize=18;fillColor=#CFCFCF;fontColor=#333333;strokeColor=#666666;" vertex="1" parent="8pLtTDc_EcXtmAlXXH7b-1">
          <mxGeometry x="4458" y="790" width="131" height="40" as="geometry" />
        </mxCell>
        <mxCell id="rCYl5_0uwUFk4qepiHuQ-36" value="" style="rounded=1;whiteSpace=wrap;html=1;shadow=1;fontFamily=Comic Sans MS;fontSize=18;fillColor=default;" vertex="1" parent="8pLtTDc_EcXtmAlXXH7b-1">
          <mxGeometry x="4458" y="840" width="131" height="40" as="geometry" />
        </mxCell>
        <mxCell id="rCYl5_0uwUFk4qepiHuQ-37" value="&lt;b&gt;waiter=null&lt;/b&gt;" style="rounded=1;whiteSpace=wrap;html=1;shadow=1;fontFamily=Comic Sans MS;fontSize=18;fillColor=#CFCFCF;fontColor=#333333;strokeColor=#666666;" vertex="1" parent="8pLtTDc_EcXtmAlXXH7b-1">
          <mxGeometry x="4458" y="840" width="131" height="40" as="geometry" />
        </mxCell>
        <mxCell id="rCYl5_0uwUFk4qepiHuQ-38" value="&lt;b&gt;isData=&lt;/b&gt;&lt;b&gt;false&lt;/b&gt;" style="rounded=1;whiteSpace=wrap;html=1;shadow=1;fontFamily=Comic Sans MS;fontSize=18;fillColor=#CFCFCF;strokeColor=#666666;fontColor=#333333;" vertex="1" parent="8pLtTDc_EcXtmAlXXH7b-1">
          <mxGeometry x="4457" y="890" width="131" height="40" as="geometry" />
        </mxCell>
        <mxCell id="rCYl5_0uwUFk4qepiHuQ-39" value="" style="rounded=0;whiteSpace=wrap;html=1;shadow=1;fillColor=#60a917;fontColor=#ffffff;strokeColor=#2D7600;" vertex="1" parent="8pLtTDc_EcXtmAlXXH7b-1">
          <mxGeometry x="4710" y="720" width="170" height="230" as="geometry" />
        </mxCell>
        <mxCell id="rCYl5_0uwUFk4qepiHuQ-40" value="&lt;font style=&quot;font-size: 18px;&quot; face=&quot;Comic Sans MS&quot;&gt;&lt;b&gt;take&lt;/b&gt;&lt;/font&gt;" style="text;html=1;strokeColor=#FA6800;fillColor=#FA6800;align=center;verticalAlign=middle;whiteSpace=wrap;rounded=0;shadow=1;fontColor=#000000;" vertex="1" parent="8pLtTDc_EcXtmAlXXH7b-1">
          <mxGeometry x="4765" y="680" width="60" height="30" as="geometry" />
        </mxCell>
        <mxCell id="rCYl5_0uwUFk4qepiHuQ-41" value="&lt;b&gt;next&lt;/b&gt;" style="rounded=1;whiteSpace=wrap;html=1;shadow=1;fontFamily=Comic Sans MS;fontSize=18;fillColor=default;" vertex="1" parent="8pLtTDc_EcXtmAlXXH7b-1">
          <mxGeometry x="4729" y="740" width="131" height="40" as="geometry" />
        </mxCell>
        <mxCell id="rCYl5_0uwUFk4qepiHuQ-42" value="&lt;b&gt;&lt;font color=&quot;#000000&quot;&gt;item=null&lt;/font&gt;&lt;/b&gt;" style="rounded=1;whiteSpace=wrap;html=1;shadow=1;fontFamily=Comic Sans MS;fontSize=18;fillColor=#CFCFCF;fontColor=#ffffff;strokeColor=#CFCFCF;" vertex="1" parent="8pLtTDc_EcXtmAlXXH7b-1">
          <mxGeometry x="4729" y="790" width="131" height="40" as="geometry" />
        </mxCell>
        <mxCell id="rCYl5_0uwUFk4qepiHuQ-43" value="" style="rounded=1;whiteSpace=wrap;html=1;shadow=1;fontFamily=Comic Sans MS;fontSize=18;fillColor=default;" vertex="1" parent="8pLtTDc_EcXtmAlXXH7b-1">
          <mxGeometry x="4729" y="840" width="131" height="40" as="geometry" />
        </mxCell>
        <mxCell id="rCYl5_0uwUFk4qepiHuQ-44" value="&lt;b&gt;waiter=thread&lt;/b&gt;" style="rounded=1;whiteSpace=wrap;html=1;shadow=1;fontFamily=Comic Sans MS;fontSize=18;fillColor=#f8cecc;strokeColor=#b85450;" vertex="1" parent="8pLtTDc_EcXtmAlXXH7b-1">
          <mxGeometry x="4729" y="840" width="131" height="40" as="geometry" />
        </mxCell>
        <mxCell id="rCYl5_0uwUFk4qepiHuQ-45" value="&lt;b&gt;isData=&lt;/b&gt;&lt;b&gt;false&lt;/b&gt;" style="rounded=1;whiteSpace=wrap;html=1;shadow=1;fontFamily=Comic Sans MS;fontSize=18;fillColor=#CFCFCF;fontColor=#333333;strokeColor=#666666;" vertex="1" parent="8pLtTDc_EcXtmAlXXH7b-1">
          <mxGeometry x="4728" y="890" width="131" height="40" as="geometry" />
        </mxCell>
      </root>
    </mxGraphModel>
  </diagram>
  <diagram name="TransfererQueue-transfer-put-take" id="cU1DJl5jZWXa_ooEgvby">
    <mxGraphModel dx="-2270" dy="547" grid="1" gridSize="10" guides="1" tooltips="1" connect="1" arrows="1" fold="1" page="1" pageScale="1" pageWidth="827" pageHeight="1169" background="#EEEEEE" math="0" shadow="0">
      <root>
        <mxCell id="Ce2Qc513Hvg-9Fpa0nNB-0" />
        <mxCell id="Ce2Qc513Hvg-9Fpa0nNB-1" parent="Ce2Qc513Hvg-9Fpa0nNB-0" />
        <mxCell id="Ce2Qc513Hvg-9Fpa0nNB-2" value="" style="shape=table;startSize=0;container=1;collapsible=0;childLayout=tableLayout;strokeColor=#2D7600;fontFamily=Comic Sans MS;fontSize=18;fillColor=#60a917;shadow=1;fontColor=#ffffff;" vertex="1" parent="Ce2Qc513Hvg-9Fpa0nNB-1">
          <mxGeometry x="4209" y="150" width="80" height="60" as="geometry" />
        </mxCell>
        <mxCell id="Ce2Qc513Hvg-9Fpa0nNB-3" value="" style="shape=tableRow;horizontal=0;startSize=0;swimlaneHead=0;swimlaneBody=0;top=0;left=0;bottom=0;right=0;collapsible=0;dropTarget=0;fillColor=none;points=[[0,0.5],[1,0.5]];portConstraint=eastwest;strokeColor=#82B366;fontFamily=Comic Sans MS;fontSize=18;" vertex="1" parent="Ce2Qc513Hvg-9Fpa0nNB-2">
          <mxGeometry width="80" height="60" as="geometry" />
        </mxCell>
        <mxCell id="Ce2Qc513Hvg-9Fpa0nNB-4" value="&lt;b&gt;init&lt;/b&gt;" style="shape=partialRectangle;html=1;whiteSpace=wrap;connectable=0;overflow=hidden;fillColor=none;top=0;left=0;bottom=0;right=0;pointerEvents=1;strokeColor=#82B366;fontFamily=Comic Sans MS;fontSize=18;shadow=1;" vertex="1" parent="Ce2Qc513Hvg-9Fpa0nNB-3">
          <mxGeometry width="80" height="60" as="geometry">
            <mxRectangle width="80" height="60" as="alternateBounds" />
          </mxGeometry>
        </mxCell>
        <mxCell id="Ce2Qc513Hvg-9Fpa0nNB-5" style="edgeStyle=orthogonalEdgeStyle;rounded=0;orthogonalLoop=1;jettySize=auto;html=1;fontFamily=Comic Sans MS;fontSize=18;entryX=0;entryY=0.5;entryDx=0;entryDy=0;" edge="1" parent="Ce2Qc513Hvg-9Fpa0nNB-1" source="Ce2Qc513Hvg-9Fpa0nNB-3" target="Ce2Qc513Hvg-9Fpa0nNB-7">
          <mxGeometry relative="1" as="geometry">
            <mxPoint x="4349" y="180" as="targetPoint" />
          </mxGeometry>
        </mxCell>
        <mxCell id="Ce2Qc513Hvg-9Fpa0nNB-6" value="" style="shape=table;startSize=0;container=1;collapsible=0;childLayout=tableLayout;strokeColor=#706A73;fontFamily=Comic Sans MS;fontSize=18;fillColor=#F5F5F5;shadow=1;fontColor=#333333;" vertex="1" parent="Ce2Qc513Hvg-9Fpa0nNB-1">
          <mxGeometry x="4359" y="150" width="80" height="60" as="geometry" />
        </mxCell>
        <mxCell id="Ce2Qc513Hvg-9Fpa0nNB-7" value="" style="shape=tableRow;horizontal=0;startSize=0;swimlaneHead=0;swimlaneBody=0;top=0;left=0;bottom=0;right=0;collapsible=0;dropTarget=0;fillColor=none;points=[[0,0.5],[1,0.5]];portConstraint=eastwest;strokeColor=#82B366;fontFamily=Comic Sans MS;fontSize=18;" vertex="1" parent="Ce2Qc513Hvg-9Fpa0nNB-6">
          <mxGeometry width="80" height="60" as="geometry" />
        </mxCell>
        <mxCell id="Ce2Qc513Hvg-9Fpa0nNB-8" value="&lt;b&gt;put&lt;/b&gt;" style="shape=partialRectangle;html=1;whiteSpace=wrap;connectable=0;overflow=hidden;fillColor=none;top=0;left=0;bottom=0;right=0;pointerEvents=1;strokeColor=#82B366;fontFamily=Comic Sans MS;fontSize=18;shadow=1;" vertex="1" parent="Ce2Qc513Hvg-9Fpa0nNB-7">
          <mxGeometry width="80" height="60" as="geometry">
            <mxRectangle width="80" height="60" as="alternateBounds" />
          </mxGeometry>
        </mxCell>
        <mxCell id="Ce2Qc513Hvg-9Fpa0nNB-9" style="edgeStyle=orthogonalEdgeStyle;rounded=0;orthogonalLoop=1;jettySize=auto;html=1;fontFamily=Comic Sans MS;fontSize=18;entryX=0;entryY=0.5;entryDx=0;entryDy=0;" edge="1" parent="Ce2Qc513Hvg-9Fpa0nNB-1" target="Ce2Qc513Hvg-9Fpa0nNB-11">
          <mxGeometry relative="1" as="geometry">
            <mxPoint x="4499" y="180" as="targetPoint" />
            <mxPoint x="4439" y="180" as="sourcePoint" />
          </mxGeometry>
        </mxCell>
        <mxCell id="Ce2Qc513Hvg-9Fpa0nNB-10" value="" style="shape=table;startSize=0;container=1;collapsible=0;childLayout=tableLayout;strokeColor=#666666;fontFamily=Comic Sans MS;fontSize=18;fillColor=#f5f5f5;shadow=1;fontColor=#333333;" vertex="1" parent="Ce2Qc513Hvg-9Fpa0nNB-1">
          <mxGeometry x="4509" y="150" width="80" height="60" as="geometry" />
        </mxCell>
        <mxCell id="Ce2Qc513Hvg-9Fpa0nNB-11" value="" style="shape=tableRow;horizontal=0;startSize=0;swimlaneHead=0;swimlaneBody=0;top=0;left=0;bottom=0;right=0;collapsible=0;dropTarget=0;fillColor=none;points=[[0,0.5],[1,0.5]];portConstraint=eastwest;strokeColor=#82B366;fontFamily=Comic Sans MS;fontSize=18;" vertex="1" parent="Ce2Qc513Hvg-9Fpa0nNB-10">
          <mxGeometry width="80" height="60" as="geometry" />
        </mxCell>
        <mxCell id="Ce2Qc513Hvg-9Fpa0nNB-12" value="&lt;b&gt;put&lt;/b&gt;" style="shape=partialRectangle;html=1;whiteSpace=wrap;connectable=0;overflow=hidden;fillColor=none;top=0;left=0;bottom=0;right=0;pointerEvents=1;strokeColor=#82B366;fontFamily=Comic Sans MS;fontSize=18;shadow=1;" vertex="1" parent="Ce2Qc513Hvg-9Fpa0nNB-11">
          <mxGeometry width="80" height="60" as="geometry">
            <mxRectangle width="80" height="60" as="alternateBounds" />
          </mxGeometry>
        </mxCell>
        <mxCell id="Ce2Qc513Hvg-9Fpa0nNB-13" style="edgeStyle=orthogonalEdgeStyle;rounded=0;orthogonalLoop=1;jettySize=auto;html=1;fontFamily=Comic Sans MS;fontSize=18;entryX=0;entryY=0.5;entryDx=0;entryDy=0;" edge="1" parent="Ce2Qc513Hvg-9Fpa0nNB-1" target="Ce2Qc513Hvg-9Fpa0nNB-15">
          <mxGeometry relative="1" as="geometry">
            <mxPoint x="4649" y="180" as="targetPoint" />
            <mxPoint x="4589" y="180" as="sourcePoint" />
          </mxGeometry>
        </mxCell>
        <mxCell id="Ce2Qc513Hvg-9Fpa0nNB-14" value="" style="shape=table;startSize=0;container=1;collapsible=0;childLayout=tableLayout;strokeColor=#706A73;fontFamily=Comic Sans MS;fontSize=18;fillColor=#F5F5F5;shadow=1;fontColor=#333333;" vertex="1" parent="Ce2Qc513Hvg-9Fpa0nNB-1">
          <mxGeometry x="4659" y="150" width="80" height="60" as="geometry" />
        </mxCell>
        <mxCell id="Ce2Qc513Hvg-9Fpa0nNB-15" value="" style="shape=tableRow;horizontal=0;startSize=0;swimlaneHead=0;swimlaneBody=0;top=0;left=0;bottom=0;right=0;collapsible=0;dropTarget=0;fillColor=none;points=[[0,0.5],[1,0.5]];portConstraint=eastwest;strokeColor=#82B366;fontFamily=Comic Sans MS;fontSize=18;" vertex="1" parent="Ce2Qc513Hvg-9Fpa0nNB-14">
          <mxGeometry width="80" height="60" as="geometry" />
        </mxCell>
        <mxCell id="Ce2Qc513Hvg-9Fpa0nNB-16" value="&lt;b&gt;put&lt;/b&gt;" style="shape=partialRectangle;html=1;whiteSpace=wrap;connectable=0;overflow=hidden;fillColor=none;top=0;left=0;bottom=0;right=0;pointerEvents=1;strokeColor=#82B366;fontFamily=Comic Sans MS;fontSize=18;shadow=1;" vertex="1" parent="Ce2Qc513Hvg-9Fpa0nNB-15">
          <mxGeometry width="80" height="60" as="geometry">
            <mxRectangle width="80" height="60" as="alternateBounds" />
          </mxGeometry>
        </mxCell>
        <mxCell id="Ce2Qc513Hvg-9Fpa0nNB-17" style="edgeStyle=orthogonalEdgeStyle;rounded=0;orthogonalLoop=1;jettySize=auto;html=1;fontFamily=Comic Sans MS;fontSize=18;entryX=0;entryY=0.5;entryDx=0;entryDy=0;" edge="1" parent="Ce2Qc513Hvg-9Fpa0nNB-1" target="Ce2Qc513Hvg-9Fpa0nNB-19">
          <mxGeometry relative="1" as="geometry">
            <mxPoint x="4799" y="180" as="targetPoint" />
            <mxPoint x="4739" y="180" as="sourcePoint" />
          </mxGeometry>
        </mxCell>
        <mxCell id="Ce2Qc513Hvg-9Fpa0nNB-18" value="" style="shape=table;startSize=0;container=1;collapsible=0;childLayout=tableLayout;strokeColor=#706A73;fontFamily=Comic Sans MS;fontSize=18;fillColor=#F5F5F5;shadow=1;fontColor=#333333;" vertex="1" parent="Ce2Qc513Hvg-9Fpa0nNB-1">
          <mxGeometry x="4809" y="150" width="80" height="60" as="geometry" />
        </mxCell>
        <mxCell id="Ce2Qc513Hvg-9Fpa0nNB-19" value="" style="shape=tableRow;horizontal=0;startSize=0;swimlaneHead=0;swimlaneBody=0;top=0;left=0;bottom=0;right=0;collapsible=0;dropTarget=0;fillColor=none;points=[[0,0.5],[1,0.5]];portConstraint=eastwest;strokeColor=#82B366;fontFamily=Comic Sans MS;fontSize=18;" vertex="1" parent="Ce2Qc513Hvg-9Fpa0nNB-18">
          <mxGeometry width="80" height="60" as="geometry" />
        </mxCell>
        <mxCell id="Ce2Qc513Hvg-9Fpa0nNB-20" value="&lt;b&gt;put&lt;/b&gt;" style="shape=partialRectangle;html=1;whiteSpace=wrap;connectable=0;overflow=hidden;fillColor=none;top=0;left=0;bottom=0;right=0;pointerEvents=1;strokeColor=#82B366;fontFamily=Comic Sans MS;fontSize=18;shadow=1;" vertex="1" parent="Ce2Qc513Hvg-9Fpa0nNB-19">
          <mxGeometry width="80" height="60" as="geometry">
            <mxRectangle width="80" height="60" as="alternateBounds" />
          </mxGeometry>
        </mxCell>
        <mxCell id="Ce2Qc513Hvg-9Fpa0nNB-21" style="edgeStyle=orthogonalEdgeStyle;rounded=0;orthogonalLoop=1;jettySize=auto;html=1;entryX=0.49;entryY=-0.01;entryDx=0;entryDy=0;entryPerimeter=0;fontFamily=Comic Sans MS;fontSize=18;" edge="1" parent="Ce2Qc513Hvg-9Fpa0nNB-1" source="Ce2Qc513Hvg-9Fpa0nNB-22" target="Ce2Qc513Hvg-9Fpa0nNB-3">
          <mxGeometry relative="1" as="geometry" />
        </mxCell>
        <mxCell id="Ce2Qc513Hvg-9Fpa0nNB-22" value="&lt;font color=&quot;#336600&quot;&gt;&lt;b&gt;head&lt;/b&gt;&lt;/font&gt;" style="text;html=1;strokeColor=#FFEBA8;fillColor=#FFEBA8;align=center;verticalAlign=middle;whiteSpace=wrap;rounded=1;shadow=1;strokeWidth=2;fontFamily=Comic Sans MS;fontSize=18;fontColor=#ffffff;" vertex="1" parent="Ce2Qc513Hvg-9Fpa0nNB-1">
          <mxGeometry x="4199" y="20" width="100" height="50" as="geometry" />
        </mxCell>
        <mxCell id="Ce2Qc513Hvg-9Fpa0nNB-23" style="edgeStyle=orthogonalEdgeStyle;rounded=0;orthogonalLoop=1;jettySize=auto;html=1;entryX=0.49;entryY=-0.01;entryDx=0;entryDy=0;entryPerimeter=0;fontFamily=Comic Sans MS;fontSize=18;" edge="1" parent="Ce2Qc513Hvg-9Fpa0nNB-1" source="Ce2Qc513Hvg-9Fpa0nNB-24">
          <mxGeometry relative="1" as="geometry">
            <mxPoint x="4848.2" y="150.0000000000001" as="targetPoint" />
          </mxGeometry>
        </mxCell>
        <mxCell id="Ce2Qc513Hvg-9Fpa0nNB-24" value="&lt;font color=&quot;#336600&quot;&gt;&lt;b&gt;tail&lt;/b&gt;&lt;/font&gt;" style="text;html=1;strokeColor=#FFEBA8;fillColor=#FFEBA8;align=center;verticalAlign=middle;whiteSpace=wrap;rounded=1;shadow=1;strokeWidth=2;fontFamily=Comic Sans MS;fontSize=18;fontColor=#ffffff;" vertex="1" parent="Ce2Qc513Hvg-9Fpa0nNB-1">
          <mxGeometry x="4799" y="20.600000000000023" width="100" height="50" as="geometry" />
        </mxCell>
        <mxCell id="Bm4qRgEgwct3aMALA4r7-0" value="&lt;b&gt;T0时刻：&lt;/b&gt;" style="rounded=1;whiteSpace=wrap;html=1;shadow=1;strokeColor=#B09500;fontFamily=Comic Sans MS;fontSize=18;fontColor=#000000;fillColor=#B09500;" vertex="1" parent="Ce2Qc513Hvg-9Fpa0nNB-1">
          <mxGeometry x="4050" y="155" width="90" height="55" as="geometry" />
        </mxCell>
        <mxCell id="Bm4qRgEgwct3aMALA4r7-1" value="" style="shape=table;startSize=0;container=1;collapsible=0;childLayout=tableLayout;strokeColor=#2D7600;fontFamily=Comic Sans MS;fontSize=18;fillColor=#60a917;shadow=1;fontColor=#ffffff;" vertex="1" parent="Ce2Qc513Hvg-9Fpa0nNB-1">
          <mxGeometry x="4209" y="490" width="80" height="60" as="geometry" />
        </mxCell>
        <mxCell id="Bm4qRgEgwct3aMALA4r7-2" value="" style="shape=tableRow;horizontal=0;startSize=0;swimlaneHead=0;swimlaneBody=0;top=0;left=0;bottom=0;right=0;collapsible=0;dropTarget=0;fillColor=none;points=[[0,0.5],[1,0.5]];portConstraint=eastwest;strokeColor=#82B366;fontFamily=Comic Sans MS;fontSize=18;" vertex="1" parent="Bm4qRgEgwct3aMALA4r7-1">
          <mxGeometry width="80" height="60" as="geometry" />
        </mxCell>
        <mxCell id="Bm4qRgEgwct3aMALA4r7-3" value="&lt;b&gt;init&lt;/b&gt;" style="shape=partialRectangle;html=1;whiteSpace=wrap;connectable=0;overflow=hidden;fillColor=none;top=0;left=0;bottom=0;right=0;pointerEvents=1;strokeColor=#82B366;fontFamily=Comic Sans MS;fontSize=18;shadow=1;" vertex="1" parent="Bm4qRgEgwct3aMALA4r7-2">
          <mxGeometry width="80" height="60" as="geometry">
            <mxRectangle width="80" height="60" as="alternateBounds" />
          </mxGeometry>
        </mxCell>
        <mxCell id="Bm4qRgEgwct3aMALA4r7-4" style="edgeStyle=orthogonalEdgeStyle;rounded=0;orthogonalLoop=1;jettySize=auto;html=1;fontFamily=Comic Sans MS;fontSize=18;entryX=0;entryY=0.5;entryDx=0;entryDy=0;" edge="1" parent="Ce2Qc513Hvg-9Fpa0nNB-1" source="Bm4qRgEgwct3aMALA4r7-2" target="Bm4qRgEgwct3aMALA4r7-6">
          <mxGeometry relative="1" as="geometry">
            <mxPoint x="4349" y="520" as="targetPoint" />
          </mxGeometry>
        </mxCell>
        <mxCell id="Bm4qRgEgwct3aMALA4r7-5" value="" style="shape=table;startSize=0;container=1;collapsible=0;childLayout=tableLayout;strokeColor=#706A73;fontFamily=Comic Sans MS;fontSize=18;fillColor=#F5F5F5;shadow=1;fontColor=#333333;" vertex="1" parent="Ce2Qc513Hvg-9Fpa0nNB-1">
          <mxGeometry x="4359" y="490" width="80" height="60" as="geometry" />
        </mxCell>
        <mxCell id="Bm4qRgEgwct3aMALA4r7-6" value="" style="shape=tableRow;horizontal=0;startSize=0;swimlaneHead=0;swimlaneBody=0;top=0;left=0;bottom=0;right=0;collapsible=0;dropTarget=0;fillColor=none;points=[[0,0.5],[1,0.5]];portConstraint=eastwest;strokeColor=#82B366;fontFamily=Comic Sans MS;fontSize=18;" vertex="1" parent="Bm4qRgEgwct3aMALA4r7-5">
          <mxGeometry width="80" height="60" as="geometry" />
        </mxCell>
        <mxCell id="Bm4qRgEgwct3aMALA4r7-7" value="&lt;b&gt;put&lt;/b&gt;" style="shape=partialRectangle;html=1;whiteSpace=wrap;connectable=0;overflow=hidden;fillColor=none;top=0;left=0;bottom=0;right=0;pointerEvents=1;strokeColor=#82B366;fontFamily=Comic Sans MS;fontSize=18;shadow=1;" vertex="1" parent="Bm4qRgEgwct3aMALA4r7-6">
          <mxGeometry width="80" height="60" as="geometry">
            <mxRectangle width="80" height="60" as="alternateBounds" />
          </mxGeometry>
        </mxCell>
        <mxCell id="Bm4qRgEgwct3aMALA4r7-8" style="edgeStyle=orthogonalEdgeStyle;rounded=0;orthogonalLoop=1;jettySize=auto;html=1;fontFamily=Comic Sans MS;fontSize=18;entryX=0;entryY=0.5;entryDx=0;entryDy=0;" edge="1" parent="Ce2Qc513Hvg-9Fpa0nNB-1" target="Bm4qRgEgwct3aMALA4r7-10">
          <mxGeometry relative="1" as="geometry">
            <mxPoint x="4499" y="520" as="targetPoint" />
            <mxPoint x="4439" y="520" as="sourcePoint" />
          </mxGeometry>
        </mxCell>
        <mxCell id="Bm4qRgEgwct3aMALA4r7-9" value="" style="shape=table;startSize=0;container=1;collapsible=0;childLayout=tableLayout;strokeColor=#666666;fontFamily=Comic Sans MS;fontSize=18;fillColor=#f5f5f5;shadow=1;fontColor=#333333;" vertex="1" parent="Ce2Qc513Hvg-9Fpa0nNB-1">
          <mxGeometry x="4509" y="490" width="80" height="60" as="geometry" />
        </mxCell>
        <mxCell id="Bm4qRgEgwct3aMALA4r7-10" value="" style="shape=tableRow;horizontal=0;startSize=0;swimlaneHead=0;swimlaneBody=0;top=0;left=0;bottom=0;right=0;collapsible=0;dropTarget=0;fillColor=none;points=[[0,0.5],[1,0.5]];portConstraint=eastwest;strokeColor=#82B366;fontFamily=Comic Sans MS;fontSize=18;" vertex="1" parent="Bm4qRgEgwct3aMALA4r7-9">
          <mxGeometry width="80" height="60" as="geometry" />
        </mxCell>
        <mxCell id="Bm4qRgEgwct3aMALA4r7-11" value="&lt;b&gt;put&lt;/b&gt;" style="shape=partialRectangle;html=1;whiteSpace=wrap;connectable=0;overflow=hidden;fillColor=none;top=0;left=0;bottom=0;right=0;pointerEvents=1;strokeColor=#82B366;fontFamily=Comic Sans MS;fontSize=18;shadow=1;" vertex="1" parent="Bm4qRgEgwct3aMALA4r7-10">
          <mxGeometry width="80" height="60" as="geometry">
            <mxRectangle width="80" height="60" as="alternateBounds" />
          </mxGeometry>
        </mxCell>
        <mxCell id="Bm4qRgEgwct3aMALA4r7-12" style="edgeStyle=orthogonalEdgeStyle;rounded=0;orthogonalLoop=1;jettySize=auto;html=1;fontFamily=Comic Sans MS;fontSize=18;entryX=0;entryY=0.5;entryDx=0;entryDy=0;" edge="1" parent="Ce2Qc513Hvg-9Fpa0nNB-1" target="Bm4qRgEgwct3aMALA4r7-14">
          <mxGeometry relative="1" as="geometry">
            <mxPoint x="4649" y="520" as="targetPoint" />
            <mxPoint x="4589" y="520" as="sourcePoint" />
          </mxGeometry>
        </mxCell>
        <mxCell id="Bm4qRgEgwct3aMALA4r7-13" value="" style="shape=table;startSize=0;container=1;collapsible=0;childLayout=tableLayout;strokeColor=#706A73;fontFamily=Comic Sans MS;fontSize=18;fillColor=#F5F5F5;shadow=1;fontColor=#333333;" vertex="1" parent="Ce2Qc513Hvg-9Fpa0nNB-1">
          <mxGeometry x="4659" y="490" width="80" height="60" as="geometry" />
        </mxCell>
        <mxCell id="Bm4qRgEgwct3aMALA4r7-14" value="" style="shape=tableRow;horizontal=0;startSize=0;swimlaneHead=0;swimlaneBody=0;top=0;left=0;bottom=0;right=0;collapsible=0;dropTarget=0;fillColor=none;points=[[0,0.5],[1,0.5]];portConstraint=eastwest;strokeColor=#82B366;fontFamily=Comic Sans MS;fontSize=18;" vertex="1" parent="Bm4qRgEgwct3aMALA4r7-13">
          <mxGeometry width="80" height="60" as="geometry" />
        </mxCell>
        <mxCell id="Bm4qRgEgwct3aMALA4r7-15" value="&lt;b&gt;put&lt;/b&gt;" style="shape=partialRectangle;html=1;whiteSpace=wrap;connectable=0;overflow=hidden;fillColor=none;top=0;left=0;bottom=0;right=0;pointerEvents=1;strokeColor=#82B366;fontFamily=Comic Sans MS;fontSize=18;shadow=1;" vertex="1" parent="Bm4qRgEgwct3aMALA4r7-14">
          <mxGeometry width="80" height="60" as="geometry">
            <mxRectangle width="80" height="60" as="alternateBounds" />
          </mxGeometry>
        </mxCell>
        <mxCell id="Bm4qRgEgwct3aMALA4r7-16" style="edgeStyle=orthogonalEdgeStyle;rounded=0;orthogonalLoop=1;jettySize=auto;html=1;fontFamily=Comic Sans MS;fontSize=18;entryX=0;entryY=0.5;entryDx=0;entryDy=0;" edge="1" parent="Ce2Qc513Hvg-9Fpa0nNB-1" target="Bm4qRgEgwct3aMALA4r7-18">
          <mxGeometry relative="1" as="geometry">
            <mxPoint x="4799" y="520" as="targetPoint" />
            <mxPoint x="4739" y="520" as="sourcePoint" />
          </mxGeometry>
        </mxCell>
        <mxCell id="Bm4qRgEgwct3aMALA4r7-17" value="" style="shape=table;startSize=0;container=1;collapsible=0;childLayout=tableLayout;strokeColor=#706A73;fontFamily=Comic Sans MS;fontSize=18;fillColor=#F5F5F5;shadow=1;fontColor=#333333;" vertex="1" parent="Ce2Qc513Hvg-9Fpa0nNB-1">
          <mxGeometry x="4809" y="490" width="80" height="60" as="geometry" />
        </mxCell>
        <mxCell id="Bm4qRgEgwct3aMALA4r7-18" value="" style="shape=tableRow;horizontal=0;startSize=0;swimlaneHead=0;swimlaneBody=0;top=0;left=0;bottom=0;right=0;collapsible=0;dropTarget=0;fillColor=none;points=[[0,0.5],[1,0.5]];portConstraint=eastwest;strokeColor=#82B366;fontFamily=Comic Sans MS;fontSize=18;" vertex="1" parent="Bm4qRgEgwct3aMALA4r7-17">
          <mxGeometry width="80" height="60" as="geometry" />
        </mxCell>
        <mxCell id="Bm4qRgEgwct3aMALA4r7-19" value="&lt;b&gt;put&lt;/b&gt;" style="shape=partialRectangle;html=1;whiteSpace=wrap;connectable=0;overflow=hidden;fillColor=none;top=0;left=0;bottom=0;right=0;pointerEvents=1;strokeColor=#82B366;fontFamily=Comic Sans MS;fontSize=18;shadow=1;" vertex="1" parent="Bm4qRgEgwct3aMALA4r7-18">
          <mxGeometry width="80" height="60" as="geometry">
            <mxRectangle width="80" height="60" as="alternateBounds" />
          </mxGeometry>
        </mxCell>
        <mxCell id="Bm4qRgEgwct3aMALA4r7-20" style="edgeStyle=orthogonalEdgeStyle;rounded=0;orthogonalLoop=1;jettySize=auto;html=1;entryX=0.49;entryY=-0.01;entryDx=0;entryDy=0;entryPerimeter=0;fontFamily=Comic Sans MS;fontSize=18;" edge="1" parent="Ce2Qc513Hvg-9Fpa0nNB-1" source="Bm4qRgEgwct3aMALA4r7-21" target="Bm4qRgEgwct3aMALA4r7-2">
          <mxGeometry relative="1" as="geometry" />
        </mxCell>
        <mxCell id="Bm4qRgEgwct3aMALA4r7-21" value="&lt;font color=&quot;#336600&quot;&gt;&lt;b&gt;head&lt;/b&gt;&lt;/font&gt;" style="text;html=1;strokeColor=#FFEBA8;fillColor=#FFEBA8;align=center;verticalAlign=middle;whiteSpace=wrap;rounded=1;shadow=1;strokeWidth=2;fontFamily=Comic Sans MS;fontSize=18;fontColor=#ffffff;" vertex="1" parent="Ce2Qc513Hvg-9Fpa0nNB-1">
          <mxGeometry x="4199" y="360" width="100" height="50" as="geometry" />
        </mxCell>
        <mxCell id="Bm4qRgEgwct3aMALA4r7-22" style="edgeStyle=orthogonalEdgeStyle;rounded=0;orthogonalLoop=1;jettySize=auto;html=1;entryX=0.49;entryY=-0.01;entryDx=0;entryDy=0;entryPerimeter=0;fontFamily=Comic Sans MS;fontSize=18;" edge="1" parent="Ce2Qc513Hvg-9Fpa0nNB-1" source="Bm4qRgEgwct3aMALA4r7-23">
          <mxGeometry relative="1" as="geometry">
            <mxPoint x="4848.2" y="490.0000000000001" as="targetPoint" />
          </mxGeometry>
        </mxCell>
        <mxCell id="Bm4qRgEgwct3aMALA4r7-23" value="&lt;font color=&quot;#336600&quot;&gt;&lt;b&gt;tail&lt;/b&gt;&lt;/font&gt;" style="text;html=1;strokeColor=#FFEBA8;fillColor=#FFEBA8;align=center;verticalAlign=middle;whiteSpace=wrap;rounded=1;shadow=1;strokeWidth=2;fontFamily=Comic Sans MS;fontSize=18;fontColor=#ffffff;" vertex="1" parent="Ce2Qc513Hvg-9Fpa0nNB-1">
          <mxGeometry x="4799" y="360.6" width="100" height="50" as="geometry" />
        </mxCell>
        <mxCell id="Bm4qRgEgwct3aMALA4r7-24" value="&lt;b&gt;T1时刻：&lt;/b&gt;" style="rounded=1;whiteSpace=wrap;html=1;shadow=1;strokeColor=#B09500;fontFamily=Comic Sans MS;fontSize=18;fontColor=#000000;fillColor=#B09500;" vertex="1" parent="Ce2Qc513Hvg-9Fpa0nNB-1">
          <mxGeometry x="4050" y="492.5" width="90" height="55" as="geometry" />
        </mxCell>
        <mxCell id="Bm4qRgEgwct3aMALA4r7-25" value="" style="shape=flexArrow;endArrow=classic;html=1;rounded=0;fontFamily=Comic Sans MS;fontSize=18;fontColor=#000000;fillColor=#76608a;strokeColor=#432D57;shadow=1;" edge="1" parent="Ce2Qc513Hvg-9Fpa0nNB-1">
          <mxGeometry width="50" height="50" relative="1" as="geometry">
            <mxPoint x="4490" y="230" as="sourcePoint" />
            <mxPoint x="4490" y="350" as="targetPoint" />
          </mxGeometry>
        </mxCell>
        <mxCell id="Bm4qRgEgwct3aMALA4r7-26" value="&lt;b&gt;T1时刻，有一个take线程&lt;/b&gt;" style="rounded=1;whiteSpace=wrap;html=1;shadow=1;strokeColor=#432D57;fontFamily=Comic Sans MS;fontSize=18;fontColor=#ffffff;fillColor=#432D57;" vertex="1" parent="Ce2Qc513Hvg-9Fpa0nNB-1">
          <mxGeometry x="4510" y="250" width="230" height="60" as="geometry" />
        </mxCell>
        <mxCell id="Bm4qRgEgwct3aMALA4r7-29" style="edgeStyle=orthogonalEdgeStyle;curved=1;rounded=0;orthogonalLoop=1;jettySize=auto;html=1;shadow=1;fontFamily=Comic Sans MS;fontSize=18;fontColor=#000000;" edge="1" parent="Ce2Qc513Hvg-9Fpa0nNB-1" source="Bm4qRgEgwct3aMALA4r7-27">
          <mxGeometry relative="1" as="geometry">
            <mxPoint x="4400" y="560" as="targetPoint" />
          </mxGeometry>
        </mxCell>
        <mxCell id="Bm4qRgEgwct3aMALA4r7-27" value="&lt;b&gt;thread-take&lt;/b&gt;" style="ellipse;whiteSpace=wrap;html=1;rounded=0;shadow=1;strokeColor=#D5E8D4;fontFamily=Comic Sans MS;fontSize=18;fillColor=#D5E8D4;gradientColor=#97d077;" vertex="1" parent="Ce2Qc513Hvg-9Fpa0nNB-1">
          <mxGeometry x="4150" y="660" width="120" height="80" as="geometry" />
        </mxCell>
        <mxCell id="Bm4qRgEgwct3aMALA4r7-30" value="&lt;b&gt;唤醒&lt;/b&gt;" style="text;html=1;strokeColor=#FAD9D5;fillColor=#FAD9D5;align=center;verticalAlign=middle;whiteSpace=wrap;rounded=0;shadow=1;fontFamily=Comic Sans MS;fontSize=18;" vertex="1" parent="Ce2Qc513Hvg-9Fpa0nNB-1">
          <mxGeometry x="4270" y="650" width="60" height="30" as="geometry" />
        </mxCell>
        <mxCell id="Bm4qRgEgwct3aMALA4r7-32" value="" style="shape=flexArrow;endArrow=classic;html=1;rounded=0;fontFamily=Comic Sans MS;fontSize=18;fontColor=#000000;fillColor=#76608a;strokeColor=#432D57;shadow=1;" edge="1" parent="Ce2Qc513Hvg-9Fpa0nNB-1">
          <mxGeometry width="50" height="50" relative="1" as="geometry">
            <mxPoint x="4520" y="640" as="sourcePoint" />
            <mxPoint x="4520" y="800" as="targetPoint" />
          </mxGeometry>
        </mxCell>
        <mxCell id="Bm4qRgEgwct3aMALA4r7-33" value="&lt;b&gt;唤醒并且将head节点移动&lt;/b&gt;" style="rounded=1;whiteSpace=wrap;html=1;shadow=1;strokeColor=#432D57;fontFamily=Comic Sans MS;fontSize=18;fontColor=#ffffff;fillColor=#432D57;" vertex="1" parent="Ce2Qc513Hvg-9Fpa0nNB-1">
          <mxGeometry x="4540" y="680" width="230" height="60" as="geometry" />
        </mxCell>
        <mxCell id="Bm4qRgEgwct3aMALA4r7-34" value="" style="shape=table;startSize=0;container=1;collapsible=0;childLayout=tableLayout;strokeColor=#2D7600;fontFamily=Comic Sans MS;fontSize=18;fillColor=#60a917;shadow=1;fontColor=#ffffff;" vertex="1" parent="Ce2Qc513Hvg-9Fpa0nNB-1">
          <mxGeometry x="4140" y="980" width="80" height="60" as="geometry" />
        </mxCell>
        <mxCell id="Bm4qRgEgwct3aMALA4r7-35" value="" style="shape=tableRow;horizontal=0;startSize=0;swimlaneHead=0;swimlaneBody=0;top=0;left=0;bottom=0;right=0;collapsible=0;dropTarget=0;fillColor=none;points=[[0,0.5],[1,0.5]];portConstraint=eastwest;strokeColor=#82B366;fontFamily=Comic Sans MS;fontSize=18;" vertex="1" parent="Bm4qRgEgwct3aMALA4r7-34">
          <mxGeometry width="80" height="60" as="geometry" />
        </mxCell>
        <mxCell id="Bm4qRgEgwct3aMALA4r7-36" value="&lt;b&gt;init&lt;/b&gt;" style="shape=partialRectangle;html=1;whiteSpace=wrap;connectable=0;overflow=hidden;fillColor=none;top=0;left=0;bottom=0;right=0;pointerEvents=1;strokeColor=#82B366;fontFamily=Comic Sans MS;fontSize=18;shadow=1;" vertex="1" parent="Bm4qRgEgwct3aMALA4r7-35">
          <mxGeometry width="80" height="60" as="geometry">
            <mxRectangle width="80" height="60" as="alternateBounds" />
          </mxGeometry>
        </mxCell>
        <mxCell id="Bm4qRgEgwct3aMALA4r7-37" style="edgeStyle=orthogonalEdgeStyle;rounded=0;orthogonalLoop=1;jettySize=auto;html=1;fontFamily=Comic Sans MS;fontSize=18;" edge="1" parent="Bm4qRgEgwct3aMALA4r7-34" source="Bm4qRgEgwct3aMALA4r7-35">
          <mxGeometry relative="1" as="geometry">
            <mxPoint x="41" y="70" as="targetPoint" />
            <Array as="points">
              <mxPoint x="120" y="30" />
              <mxPoint x="120" y="110" />
              <mxPoint x="41" y="110" />
            </Array>
          </mxGeometry>
        </mxCell>
        <mxCell id="Bm4qRgEgwct3aMALA4r7-38" value="" style="shape=table;startSize=0;container=1;collapsible=0;childLayout=tableLayout;strokeColor=#2D7600;fontFamily=Comic Sans MS;fontSize=18;fillColor=#60a917;shadow=1;fontColor=#ffffff;" vertex="1" parent="Ce2Qc513Hvg-9Fpa0nNB-1">
          <mxGeometry x="4349" y="990" width="80" height="60" as="geometry" />
        </mxCell>
        <mxCell id="Bm4qRgEgwct3aMALA4r7-39" value="" style="shape=tableRow;horizontal=0;startSize=0;swimlaneHead=0;swimlaneBody=0;top=0;left=0;bottom=0;right=0;collapsible=0;dropTarget=0;fillColor=none;points=[[0,0.5],[1,0.5]];portConstraint=eastwest;strokeColor=#82B366;fontFamily=Comic Sans MS;fontSize=18;" vertex="1" parent="Bm4qRgEgwct3aMALA4r7-38">
          <mxGeometry width="80" height="60" as="geometry" />
        </mxCell>
        <mxCell id="Bm4qRgEgwct3aMALA4r7-40" value="&lt;b&gt;put&lt;/b&gt;" style="shape=partialRectangle;html=1;whiteSpace=wrap;connectable=0;overflow=hidden;fillColor=none;top=0;left=0;bottom=0;right=0;pointerEvents=1;strokeColor=#82B366;fontFamily=Comic Sans MS;fontSize=18;shadow=1;" vertex="1" parent="Bm4qRgEgwct3aMALA4r7-39">
          <mxGeometry width="80" height="60" as="geometry">
            <mxRectangle width="80" height="60" as="alternateBounds" />
          </mxGeometry>
        </mxCell>
        <mxCell id="Bm4qRgEgwct3aMALA4r7-41" style="edgeStyle=orthogonalEdgeStyle;rounded=0;orthogonalLoop=1;jettySize=auto;html=1;fontFamily=Comic Sans MS;fontSize=18;entryX=0;entryY=0.5;entryDx=0;entryDy=0;" edge="1" parent="Ce2Qc513Hvg-9Fpa0nNB-1" target="Bm4qRgEgwct3aMALA4r7-43">
          <mxGeometry relative="1" as="geometry">
            <mxPoint x="4489" y="1020" as="targetPoint" />
            <mxPoint x="4429" y="1020" as="sourcePoint" />
          </mxGeometry>
        </mxCell>
        <mxCell id="Bm4qRgEgwct3aMALA4r7-42" value="" style="shape=table;startSize=0;container=1;collapsible=0;childLayout=tableLayout;strokeColor=#666666;fontFamily=Comic Sans MS;fontSize=18;fillColor=#f5f5f5;shadow=1;fontColor=#333333;" vertex="1" parent="Ce2Qc513Hvg-9Fpa0nNB-1">
          <mxGeometry x="4499" y="990" width="80" height="60" as="geometry" />
        </mxCell>
        <mxCell id="Bm4qRgEgwct3aMALA4r7-43" value="" style="shape=tableRow;horizontal=0;startSize=0;swimlaneHead=0;swimlaneBody=0;top=0;left=0;bottom=0;right=0;collapsible=0;dropTarget=0;fillColor=none;points=[[0,0.5],[1,0.5]];portConstraint=eastwest;strokeColor=#82B366;fontFamily=Comic Sans MS;fontSize=18;" vertex="1" parent="Bm4qRgEgwct3aMALA4r7-42">
          <mxGeometry width="80" height="60" as="geometry" />
        </mxCell>
        <mxCell id="Bm4qRgEgwct3aMALA4r7-44" value="&lt;b&gt;put&lt;/b&gt;" style="shape=partialRectangle;html=1;whiteSpace=wrap;connectable=0;overflow=hidden;fillColor=none;top=0;left=0;bottom=0;right=0;pointerEvents=1;strokeColor=#82B366;fontFamily=Comic Sans MS;fontSize=18;shadow=1;" vertex="1" parent="Bm4qRgEgwct3aMALA4r7-43">
          <mxGeometry width="80" height="60" as="geometry">
            <mxRectangle width="80" height="60" as="alternateBounds" />
          </mxGeometry>
        </mxCell>
        <mxCell id="Bm4qRgEgwct3aMALA4r7-45" style="edgeStyle=orthogonalEdgeStyle;rounded=0;orthogonalLoop=1;jettySize=auto;html=1;fontFamily=Comic Sans MS;fontSize=18;entryX=0;entryY=0.5;entryDx=0;entryDy=0;" edge="1" parent="Ce2Qc513Hvg-9Fpa0nNB-1" target="Bm4qRgEgwct3aMALA4r7-47">
          <mxGeometry relative="1" as="geometry">
            <mxPoint x="4639" y="1020" as="targetPoint" />
            <mxPoint x="4579" y="1020" as="sourcePoint" />
          </mxGeometry>
        </mxCell>
        <mxCell id="Bm4qRgEgwct3aMALA4r7-46" value="" style="shape=table;startSize=0;container=1;collapsible=0;childLayout=tableLayout;strokeColor=#706A73;fontFamily=Comic Sans MS;fontSize=18;fillColor=#F5F5F5;shadow=1;fontColor=#333333;" vertex="1" parent="Ce2Qc513Hvg-9Fpa0nNB-1">
          <mxGeometry x="4649" y="990" width="80" height="60" as="geometry" />
        </mxCell>
        <mxCell id="Bm4qRgEgwct3aMALA4r7-47" value="" style="shape=tableRow;horizontal=0;startSize=0;swimlaneHead=0;swimlaneBody=0;top=0;left=0;bottom=0;right=0;collapsible=0;dropTarget=0;fillColor=none;points=[[0,0.5],[1,0.5]];portConstraint=eastwest;strokeColor=#82B366;fontFamily=Comic Sans MS;fontSize=18;" vertex="1" parent="Bm4qRgEgwct3aMALA4r7-46">
          <mxGeometry width="80" height="60" as="geometry" />
        </mxCell>
        <mxCell id="Bm4qRgEgwct3aMALA4r7-48" value="&lt;b&gt;put&lt;/b&gt;" style="shape=partialRectangle;html=1;whiteSpace=wrap;connectable=0;overflow=hidden;fillColor=none;top=0;left=0;bottom=0;right=0;pointerEvents=1;strokeColor=#82B366;fontFamily=Comic Sans MS;fontSize=18;shadow=1;" vertex="1" parent="Bm4qRgEgwct3aMALA4r7-47">
          <mxGeometry width="80" height="60" as="geometry">
            <mxRectangle width="80" height="60" as="alternateBounds" />
          </mxGeometry>
        </mxCell>
        <mxCell id="Bm4qRgEgwct3aMALA4r7-49" style="edgeStyle=orthogonalEdgeStyle;rounded=0;orthogonalLoop=1;jettySize=auto;html=1;fontFamily=Comic Sans MS;fontSize=18;entryX=0;entryY=0.5;entryDx=0;entryDy=0;" edge="1" parent="Ce2Qc513Hvg-9Fpa0nNB-1" target="Bm4qRgEgwct3aMALA4r7-51">
          <mxGeometry relative="1" as="geometry">
            <mxPoint x="4789" y="1020" as="targetPoint" />
            <mxPoint x="4729" y="1020" as="sourcePoint" />
          </mxGeometry>
        </mxCell>
        <mxCell id="Bm4qRgEgwct3aMALA4r7-50" value="" style="shape=table;startSize=0;container=1;collapsible=0;childLayout=tableLayout;strokeColor=#706A73;fontFamily=Comic Sans MS;fontSize=18;fillColor=#F5F5F5;shadow=1;fontColor=#333333;" vertex="1" parent="Ce2Qc513Hvg-9Fpa0nNB-1">
          <mxGeometry x="4799" y="990" width="80" height="60" as="geometry" />
        </mxCell>
        <mxCell id="Bm4qRgEgwct3aMALA4r7-51" value="" style="shape=tableRow;horizontal=0;startSize=0;swimlaneHead=0;swimlaneBody=0;top=0;left=0;bottom=0;right=0;collapsible=0;dropTarget=0;fillColor=none;points=[[0,0.5],[1,0.5]];portConstraint=eastwest;strokeColor=#82B366;fontFamily=Comic Sans MS;fontSize=18;" vertex="1" parent="Bm4qRgEgwct3aMALA4r7-50">
          <mxGeometry width="80" height="60" as="geometry" />
        </mxCell>
        <mxCell id="Bm4qRgEgwct3aMALA4r7-52" value="&lt;b&gt;put&lt;/b&gt;" style="shape=partialRectangle;html=1;whiteSpace=wrap;connectable=0;overflow=hidden;fillColor=none;top=0;left=0;bottom=0;right=0;pointerEvents=1;strokeColor=#82B366;fontFamily=Comic Sans MS;fontSize=18;shadow=1;" vertex="1" parent="Bm4qRgEgwct3aMALA4r7-51">
          <mxGeometry width="80" height="60" as="geometry">
            <mxRectangle width="80" height="60" as="alternateBounds" />
          </mxGeometry>
        </mxCell>
        <mxCell id="Bm4qRgEgwct3aMALA4r7-53" style="edgeStyle=orthogonalEdgeStyle;rounded=0;orthogonalLoop=1;jettySize=auto;html=1;entryX=0.49;entryY=-0.01;entryDx=0;entryDy=0;entryPerimeter=0;fontFamily=Comic Sans MS;fontSize=18;" edge="1" parent="Ce2Qc513Hvg-9Fpa0nNB-1" source="Bm4qRgEgwct3aMALA4r7-54">
          <mxGeometry relative="1" as="geometry">
            <mxPoint x="4388.2" y="990.0000000000001" as="targetPoint" />
          </mxGeometry>
        </mxCell>
        <mxCell id="Bm4qRgEgwct3aMALA4r7-54" value="&lt;font color=&quot;#336600&quot;&gt;&lt;b&gt;head&lt;/b&gt;&lt;/font&gt;" style="text;html=1;strokeColor=#FFEBA8;fillColor=#FFEBA8;align=center;verticalAlign=middle;whiteSpace=wrap;rounded=1;shadow=1;strokeWidth=2;fontFamily=Comic Sans MS;fontSize=18;fontColor=#ffffff;" vertex="1" parent="Ce2Qc513Hvg-9Fpa0nNB-1">
          <mxGeometry x="4339" y="860.6" width="100" height="50" as="geometry" />
        </mxCell>
        <mxCell id="Bm4qRgEgwct3aMALA4r7-55" style="edgeStyle=orthogonalEdgeStyle;rounded=0;orthogonalLoop=1;jettySize=auto;html=1;entryX=0.49;entryY=-0.01;entryDx=0;entryDy=0;entryPerimeter=0;fontFamily=Comic Sans MS;fontSize=18;" edge="1" parent="Ce2Qc513Hvg-9Fpa0nNB-1" source="Bm4qRgEgwct3aMALA4r7-56">
          <mxGeometry relative="1" as="geometry">
            <mxPoint x="4838.2" y="990" as="targetPoint" />
          </mxGeometry>
        </mxCell>
        <mxCell id="Bm4qRgEgwct3aMALA4r7-56" value="&lt;font color=&quot;#336600&quot;&gt;&lt;b&gt;tail&lt;/b&gt;&lt;/font&gt;" style="text;html=1;strokeColor=#FFEBA8;fillColor=#FFEBA8;align=center;verticalAlign=middle;whiteSpace=wrap;rounded=1;shadow=1;strokeWidth=2;fontFamily=Comic Sans MS;fontSize=18;fontColor=#ffffff;" vertex="1" parent="Ce2Qc513Hvg-9Fpa0nNB-1">
          <mxGeometry x="4789" y="860.6" width="100" height="50" as="geometry" />
        </mxCell>
        <mxCell id="Bm4qRgEgwct3aMALA4r7-57" value="next" style="text;html=1;strokeColor=#FFEBA8;fillColor=#FFEBA8;align=center;verticalAlign=middle;whiteSpace=wrap;rounded=0;shadow=1;fontFamily=Comic Sans MS;fontSize=18;fontColor=#000000;" vertex="1" parent="Ce2Qc513Hvg-9Fpa0nNB-1">
          <mxGeometry x="4190" y="1050" width="60" height="30" as="geometry" />
        </mxCell>
        <mxCell id="fTUb03XopBAMILwavmsf-0" value="" style="rounded=0;whiteSpace=wrap;html=1;shadow=1;fillColor=#60a917;fontColor=#ffffff;strokeColor=#2D7600;" vertex="1" parent="Ce2Qc513Hvg-9Fpa0nNB-1">
          <mxGeometry x="4379" y="1340" width="170" height="230" as="geometry" />
        </mxCell>
        <mxCell id="fTUb03XopBAMILwavmsf-2" value="&lt;b&gt;next&lt;/b&gt;" style="rounded=1;whiteSpace=wrap;html=1;shadow=1;fontFamily=Comic Sans MS;fontSize=18;fillColor=default;" vertex="1" parent="Ce2Qc513Hvg-9Fpa0nNB-1">
          <mxGeometry x="4398" y="1360" width="131" height="40" as="geometry" />
        </mxCell>
        <mxCell id="fTUb03XopBAMILwavmsf-8" style="edgeStyle=orthogonalEdgeStyle;curved=1;rounded=0;orthogonalLoop=1;jettySize=auto;html=1;shadow=1;fontFamily=Comic Sans MS;fontSize=18;fontColor=#000000;entryX=0;entryY=0.5;entryDx=0;entryDy=0;" edge="1" parent="Ce2Qc513Hvg-9Fpa0nNB-1" source="fTUb03XopBAMILwavmsf-3" target="fTUb03XopBAMILwavmsf-9">
          <mxGeometry relative="1" as="geometry">
            <mxPoint x="4650" y="1430" as="targetPoint" />
          </mxGeometry>
        </mxCell>
        <mxCell id="fTUb03XopBAMILwavmsf-3" value="&lt;b&gt;item=null&lt;/b&gt;" style="rounded=1;whiteSpace=wrap;html=1;shadow=1;fontFamily=Comic Sans MS;fontSize=18;fillColor=#CC0000;strokeColor=#A50040;fontColor=#ffffff;" vertex="1" parent="Ce2Qc513Hvg-9Fpa0nNB-1">
          <mxGeometry x="4398" y="1410" width="131" height="40" as="geometry" />
        </mxCell>
        <mxCell id="fTUb03XopBAMILwavmsf-4" value="" style="rounded=1;whiteSpace=wrap;html=1;shadow=1;fontFamily=Comic Sans MS;fontSize=18;fillColor=default;" vertex="1" parent="Ce2Qc513Hvg-9Fpa0nNB-1">
          <mxGeometry x="4398" y="1460" width="131" height="40" as="geometry" />
        </mxCell>
        <mxCell id="fTUb03XopBAMILwavmsf-5" value="&lt;b&gt;waiter=thread&lt;/b&gt;" style="rounded=1;whiteSpace=wrap;html=1;shadow=1;fontFamily=Comic Sans MS;fontSize=18;fillColor=#f8cecc;strokeColor=#b85450;" vertex="1" parent="Ce2Qc513Hvg-9Fpa0nNB-1">
          <mxGeometry x="4398" y="1460" width="131" height="40" as="geometry" />
        </mxCell>
        <mxCell id="fTUb03XopBAMILwavmsf-6" value="&lt;b&gt;isData=true&lt;/b&gt;" style="rounded=1;whiteSpace=wrap;html=1;shadow=1;fontFamily=Comic Sans MS;fontSize=18;fillColor=#f8cecc;strokeColor=#b85450;" vertex="1" parent="Ce2Qc513Hvg-9Fpa0nNB-1">
          <mxGeometry x="4397" y="1510" width="131" height="40" as="geometry" />
        </mxCell>
        <mxCell id="fTUb03XopBAMILwavmsf-9" value="&lt;div style=&quot;text-align: left;&quot;&gt;&lt;b style=&quot;color: rgb(0, 0, 0); background-color: initial;&quot;&gt;将item的值改为唤醒该线程的item的值；&lt;/b&gt;&lt;/div&gt;&lt;font color=&quot;#000000&quot;&gt;&lt;div style=&quot;text-align: left;&quot;&gt;&lt;b style=&quot;background-color: initial;&quot;&gt;take线程唤醒put线程：put的item被改为null&lt;/b&gt;&lt;/div&gt;&lt;b&gt;&lt;div style=&quot;text-align: left;&quot;&gt;&lt;b style=&quot;background-color: initial;&quot;&gt;put线程唤醒take线程：take线程的item被改为e&lt;/b&gt;&lt;/div&gt;&lt;/b&gt;&lt;/font&gt;" style="rounded=1;whiteSpace=wrap;html=1;shadow=1;strokeColor=#006EAF;fontFamily=Comic Sans MS;fontSize=18;fontColor=#ffffff;fillColor=#1ba1e2;" vertex="1" parent="Ce2Qc513Hvg-9Fpa0nNB-1">
          <mxGeometry x="4659.5" y="1362.5" width="451" height="135" as="geometry" />
        </mxCell>
        <mxCell id="3yKBRHXGcJiw626x0NCy-0" value="" style="rounded=0;whiteSpace=wrap;html=1;shadow=1;fillColor=#60a917;fontColor=#ffffff;strokeColor=#2D7600;" vertex="1" parent="Ce2Qc513Hvg-9Fpa0nNB-1">
          <mxGeometry x="4010" y="1340" width="170" height="230" as="geometry" />
        </mxCell>
        <mxCell id="3yKBRHXGcJiw626x0NCy-1" value="&lt;b&gt;next&lt;/b&gt;" style="rounded=1;whiteSpace=wrap;html=1;shadow=1;fontFamily=Comic Sans MS;fontSize=18;fillColor=default;" vertex="1" parent="Ce2Qc513Hvg-9Fpa0nNB-1">
          <mxGeometry x="4029" y="1360" width="131" height="40" as="geometry" />
        </mxCell>
        <mxCell id="3yKBRHXGcJiw626x0NCy-2" value="&lt;b&gt;item=e&lt;/b&gt;" style="rounded=1;whiteSpace=wrap;html=1;shadow=1;fontFamily=Comic Sans MS;fontSize=18;fillColor=#f8cecc;strokeColor=#b85450;" vertex="1" parent="Ce2Qc513Hvg-9Fpa0nNB-1">
          <mxGeometry x="4029" y="1410" width="131" height="40" as="geometry" />
        </mxCell>
        <mxCell id="3yKBRHXGcJiw626x0NCy-3" value="" style="rounded=1;whiteSpace=wrap;html=1;shadow=1;fontFamily=Comic Sans MS;fontSize=18;fillColor=default;" vertex="1" parent="Ce2Qc513Hvg-9Fpa0nNB-1">
          <mxGeometry x="4029" y="1460" width="131" height="40" as="geometry" />
        </mxCell>
        <mxCell id="3yKBRHXGcJiw626x0NCy-4" value="&lt;b&gt;waiter=thread&lt;/b&gt;" style="rounded=1;whiteSpace=wrap;html=1;shadow=1;fontFamily=Comic Sans MS;fontSize=18;fillColor=#f8cecc;strokeColor=#b85450;" vertex="1" parent="Ce2Qc513Hvg-9Fpa0nNB-1">
          <mxGeometry x="4029" y="1460" width="131" height="40" as="geometry" />
        </mxCell>
        <mxCell id="3yKBRHXGcJiw626x0NCy-5" value="&lt;b&gt;isData=true&lt;/b&gt;" style="rounded=1;whiteSpace=wrap;html=1;shadow=1;fontFamily=Comic Sans MS;fontSize=18;fillColor=#f8cecc;strokeColor=#b85450;" vertex="1" parent="Ce2Qc513Hvg-9Fpa0nNB-1">
          <mxGeometry x="4028" y="1510" width="131" height="40" as="geometry" />
        </mxCell>
        <mxCell id="3yKBRHXGcJiw626x0NCy-6" value="" style="shape=flexArrow;endArrow=classic;html=1;rounded=0;shadow=1;fontFamily=Comic Sans MS;fontSize=18;fontColor=#000000;curved=1;fillColor=#d80073;strokeColor=#A50040;" edge="1" parent="Ce2Qc513Hvg-9Fpa0nNB-1">
          <mxGeometry width="50" height="50" relative="1" as="geometry">
            <mxPoint x="4200" y="1460" as="sourcePoint" />
            <mxPoint x="4370" y="1460" as="targetPoint" />
          </mxGeometry>
        </mxCell>
        <mxCell id="3yKBRHXGcJiw626x0NCy-7" value="" style="shape=flexArrow;endArrow=classic;html=1;rounded=0;shadow=1;fontFamily=Comic Sans MS;fontSize=18;fontColor=#000000;curved=1;fillColor=#1ba1e2;strokeColor=#006EAF;" edge="1" parent="Ce2Qc513Hvg-9Fpa0nNB-1">
          <mxGeometry width="50" height="50" relative="1" as="geometry">
            <mxPoint x="4379" y="1040" as="sourcePoint" />
            <mxPoint x="4300" y="1260" as="targetPoint" />
          </mxGeometry>
        </mxCell>
        <mxCell id="3yKBRHXGcJiw626x0NCy-8" value="" style="shape=curlyBracket;whiteSpace=wrap;html=1;rounded=1;shadow=0;strokeColor=#CC0000;fontFamily=Comic Sans MS;fontSize=18;fontColor=#000000;fillColor=#CC0000;rotation=90;strokeWidth=4;" vertex="1" parent="Ce2Qc513Hvg-9Fpa0nNB-1">
          <mxGeometry x="4304.5" y="1140" width="29" height="316" as="geometry" />
        </mxCell>
        <mxCell id="3yKBRHXGcJiw626x0NCy-9" value="该节点被唤醒之后值的变化" style="rounded=1;whiteSpace=wrap;html=1;shadow=0;strokeColor=#001DBC;strokeWidth=2;fontFamily=Comic Sans MS;fontSize=18;fontColor=#ffffff;fillColor=#001DBC;" vertex="1" parent="Ce2Qc513Hvg-9Fpa0nNB-1">
          <mxGeometry x="4359" y="1150" width="240" height="50" as="geometry" />
        </mxCell>
        <mxCell id="3yKBRHXGcJiw626x0NCy-10" value="&lt;b&gt;update before&lt;/b&gt;" style="text;html=1;strokeColor=none;fillColor=none;align=center;verticalAlign=middle;whiteSpace=wrap;rounded=0;shadow=0;strokeWidth=2;fontFamily=Comic Sans MS;fontSize=18;fontColor=#000000;" vertex="1" parent="Ce2Qc513Hvg-9Fpa0nNB-1">
          <mxGeometry x="4020" y="1600" width="140" height="30" as="geometry" />
        </mxCell>
        <mxCell id="3yKBRHXGcJiw626x0NCy-11" value="&lt;b&gt;update after&lt;/b&gt;" style="text;html=1;strokeColor=none;fillColor=none;align=center;verticalAlign=middle;whiteSpace=wrap;rounded=0;shadow=0;strokeWidth=2;fontFamily=Comic Sans MS;fontSize=18;fontColor=#000000;" vertex="1" parent="Ce2Qc513Hvg-9Fpa0nNB-1">
          <mxGeometry x="4398" y="1600" width="140" height="30" as="geometry" />
        </mxCell>
      </root>
    </mxGraphModel>
  </diagram>
  <diagram name="TransfererQueue-transfer-queue-case1" id="uxiFB7wVJjTcAFTuVbrU">
    <mxGraphModel dx="-2270" dy="547" grid="1" gridSize="10" guides="1" tooltips="1" connect="1" arrows="1" fold="1" page="1" pageScale="1" pageWidth="827" pageHeight="1169" background="#EEEEEE" math="0" shadow="0">
      <root>
        <mxCell id="EG56wsyXFgtEofnX6Fdd-0" />
        <mxCell id="EG56wsyXFgtEofnX6Fdd-1" parent="EG56wsyXFgtEofnX6Fdd-0" />
        <mxCell id="4oq_FEflVRpCkMuP0k5V-0" value="&lt;b&gt;&lt;font style=&quot;font-size: 24px;&quot;&gt;队列中有1个被阻塞的take线程&lt;/font&gt;&lt;/b&gt;" style="rounded=1;whiteSpace=wrap;html=1;shadow=0;strokeColor=#008A00;strokeWidth=4;fontFamily=Comic Sans MS;fontSize=18;fontColor=#ffffff;fillColor=#008A00;" vertex="1" parent="EG56wsyXFgtEofnX6Fdd-1">
          <mxGeometry x="4280" y="50" width="560" height="60" as="geometry" />
        </mxCell>
        <mxCell id="4oq_FEflVRpCkMuP0k5V-13" value="" style="shape=table;startSize=0;container=1;collapsible=0;childLayout=tableLayout;strokeColor=#2D7600;fontFamily=Comic Sans MS;fontSize=18;fillColor=#60a917;shadow=1;fontColor=#ffffff;" vertex="1" parent="EG56wsyXFgtEofnX6Fdd-1">
          <mxGeometry x="4290" y="310" width="80" height="60" as="geometry" />
        </mxCell>
        <mxCell id="4oq_FEflVRpCkMuP0k5V-14" value="" style="shape=tableRow;horizontal=0;startSize=0;swimlaneHead=0;swimlaneBody=0;top=0;left=0;bottom=0;right=0;collapsible=0;dropTarget=0;fillColor=none;points=[[0,0.5],[1,0.5]];portConstraint=eastwest;strokeColor=#82B366;fontFamily=Comic Sans MS;fontSize=18;" vertex="1" parent="4oq_FEflVRpCkMuP0k5V-13">
          <mxGeometry width="80" height="60" as="geometry" />
        </mxCell>
        <mxCell id="4oq_FEflVRpCkMuP0k5V-15" value="&lt;b&gt;init&lt;/b&gt;" style="shape=partialRectangle;html=1;whiteSpace=wrap;connectable=0;overflow=hidden;fillColor=none;top=0;left=0;bottom=0;right=0;pointerEvents=1;strokeColor=#82B366;fontFamily=Comic Sans MS;fontSize=18;shadow=1;" vertex="1" parent="4oq_FEflVRpCkMuP0k5V-14">
          <mxGeometry width="80" height="60" as="geometry">
            <mxRectangle width="80" height="60" as="alternateBounds" />
          </mxGeometry>
        </mxCell>
        <mxCell id="4oq_FEflVRpCkMuP0k5V-16" style="edgeStyle=orthogonalEdgeStyle;rounded=0;orthogonalLoop=1;jettySize=auto;html=1;fontFamily=Comic Sans MS;fontSize=18;entryX=0;entryY=0.5;entryDx=0;entryDy=0;" edge="1" parent="EG56wsyXFgtEofnX6Fdd-1" source="4oq_FEflVRpCkMuP0k5V-14" target="4oq_FEflVRpCkMuP0k5V-18">
          <mxGeometry relative="1" as="geometry">
            <mxPoint x="4430" y="340" as="targetPoint" />
          </mxGeometry>
        </mxCell>
        <mxCell id="4oq_FEflVRpCkMuP0k5V-17" value="" style="shape=table;startSize=0;container=1;collapsible=0;childLayout=tableLayout;strokeColor=#706A73;fontFamily=Comic Sans MS;fontSize=18;fillColor=#F5F5F5;shadow=1;fontColor=#333333;" vertex="1" parent="EG56wsyXFgtEofnX6Fdd-1">
          <mxGeometry x="4440" y="310" width="80" height="60" as="geometry" />
        </mxCell>
        <mxCell id="4oq_FEflVRpCkMuP0k5V-18" value="" style="shape=tableRow;horizontal=0;startSize=0;swimlaneHead=0;swimlaneBody=0;top=0;left=0;bottom=0;right=0;collapsible=0;dropTarget=0;fillColor=none;points=[[0,0.5],[1,0.5]];portConstraint=eastwest;strokeColor=#82B366;fontFamily=Comic Sans MS;fontSize=18;" vertex="1" parent="4oq_FEflVRpCkMuP0k5V-17">
          <mxGeometry width="80" height="60" as="geometry" />
        </mxCell>
        <mxCell id="4oq_FEflVRpCkMuP0k5V-19" value="&lt;b&gt;take&lt;/b&gt;" style="shape=partialRectangle;html=1;whiteSpace=wrap;connectable=0;overflow=hidden;fillColor=none;top=0;left=0;bottom=0;right=0;pointerEvents=1;strokeColor=#82B366;fontFamily=Comic Sans MS;fontSize=18;shadow=1;" vertex="1" parent="4oq_FEflVRpCkMuP0k5V-18">
          <mxGeometry width="80" height="60" as="geometry">
            <mxRectangle width="80" height="60" as="alternateBounds" />
          </mxGeometry>
        </mxCell>
        <mxCell id="4oq_FEflVRpCkMuP0k5V-20" style="edgeStyle=orthogonalEdgeStyle;rounded=0;orthogonalLoop=1;jettySize=auto;html=1;entryX=0.49;entryY=-0.01;entryDx=0;entryDy=0;entryPerimeter=0;fontFamily=Comic Sans MS;fontSize=18;" edge="1" parent="EG56wsyXFgtEofnX6Fdd-1" source="4oq_FEflVRpCkMuP0k5V-21" target="4oq_FEflVRpCkMuP0k5V-14">
          <mxGeometry relative="1" as="geometry" />
        </mxCell>
        <mxCell id="4oq_FEflVRpCkMuP0k5V-21" value="&lt;font color=&quot;#336600&quot;&gt;&lt;b&gt;head&lt;/b&gt;&lt;/font&gt;" style="text;html=1;strokeColor=#FFEBA8;fillColor=#FFEBA8;align=center;verticalAlign=middle;whiteSpace=wrap;rounded=1;shadow=1;strokeWidth=2;fontFamily=Comic Sans MS;fontSize=18;fontColor=#ffffff;" vertex="1" parent="EG56wsyXFgtEofnX6Fdd-1">
          <mxGeometry x="4280" y="170" width="100" height="50" as="geometry" />
        </mxCell>
        <mxCell id="4oq_FEflVRpCkMuP0k5V-22" style="edgeStyle=orthogonalEdgeStyle;rounded=0;orthogonalLoop=1;jettySize=auto;html=1;entryX=0.49;entryY=-0.01;entryDx=0;entryDy=0;entryPerimeter=0;fontFamily=Comic Sans MS;fontSize=18;" edge="1" parent="EG56wsyXFgtEofnX6Fdd-1" source="4oq_FEflVRpCkMuP0k5V-23">
          <mxGeometry relative="1" as="geometry">
            <mxPoint x="4479.2" y="310.0000000000001" as="targetPoint" />
          </mxGeometry>
        </mxCell>
        <mxCell id="4oq_FEflVRpCkMuP0k5V-23" value="&lt;font color=&quot;#336600&quot;&gt;&lt;b&gt;tail&lt;/b&gt;&lt;/font&gt;" style="text;html=1;strokeColor=#FFEBA8;fillColor=#FFEBA8;align=center;verticalAlign=middle;whiteSpace=wrap;rounded=1;shadow=1;strokeWidth=2;fontFamily=Comic Sans MS;fontSize=18;fontColor=#ffffff;" vertex="1" parent="EG56wsyXFgtEofnX6Fdd-1">
          <mxGeometry x="4430" y="170" width="100" height="50" as="geometry" />
        </mxCell>
        <mxCell id="4oq_FEflVRpCkMuP0k5V-27" style="edgeStyle=orthogonalEdgeStyle;curved=1;rounded=0;orthogonalLoop=1;jettySize=auto;html=1;entryX=1.008;entryY=0.23;entryDx=0;entryDy=0;entryPerimeter=0;shadow=1;fontFamily=Comic Sans MS;fontSize=24;fontColor=#000000;" edge="1" parent="EG56wsyXFgtEofnX6Fdd-1" source="4oq_FEflVRpCkMuP0k5V-24" target="4oq_FEflVRpCkMuP0k5V-18">
          <mxGeometry relative="1" as="geometry" />
        </mxCell>
        <mxCell id="4oq_FEflVRpCkMuP0k5V-24" value="thread-A" style="ellipse;whiteSpace=wrap;html=1;rounded=0;shadow=0;strokeColor=#10739e;strokeWidth=1;fontFamily=Comic Sans MS;fontSize=24;fillColor=#b1ddf0;" vertex="1" parent="EG56wsyXFgtEofnX6Fdd-1">
          <mxGeometry x="4742" y="140" width="120" height="80" as="geometry" />
        </mxCell>
        <mxCell id="4oq_FEflVRpCkMuP0k5V-29" style="edgeStyle=orthogonalEdgeStyle;curved=1;rounded=0;orthogonalLoop=1;jettySize=auto;html=1;shadow=1;fontFamily=Comic Sans MS;fontSize=24;fontColor=#000000;" edge="1" parent="EG56wsyXFgtEofnX6Fdd-1" source="4oq_FEflVRpCkMuP0k5V-26">
          <mxGeometry relative="1" as="geometry">
            <mxPoint x="4480" y="380" as="targetPoint" />
          </mxGeometry>
        </mxCell>
        <mxCell id="4oq_FEflVRpCkMuP0k5V-26" value="thread-B" style="ellipse;whiteSpace=wrap;html=1;rounded=0;shadow=0;strokeColor=#10739e;strokeWidth=1;fontFamily=Comic Sans MS;fontSize=24;fillColor=#b1ddf0;" vertex="1" parent="EG56wsyXFgtEofnX6Fdd-1">
          <mxGeometry x="4770" y="390" width="120" height="80" as="geometry" />
        </mxCell>
        <mxCell id="4oq_FEflVRpCkMuP0k5V-30" value="&lt;font color=&quot;#336600&quot;&gt;&lt;b&gt;put&lt;/b&gt;&lt;/font&gt;" style="text;html=1;strokeColor=#FFEBA8;fillColor=#FFEBA8;align=center;verticalAlign=middle;whiteSpace=wrap;rounded=1;shadow=1;strokeWidth=2;fontFamily=Comic Sans MS;fontSize=18;fontColor=#ffffff;" vertex="1" parent="EG56wsyXFgtEofnX6Fdd-1">
          <mxGeometry x="4660" y="250" width="70" height="40" as="geometry" />
        </mxCell>
        <mxCell id="4oq_FEflVRpCkMuP0k5V-32" value="&lt;font color=&quot;#336600&quot;&gt;&lt;b&gt;put&lt;/b&gt;&lt;/font&gt;" style="text;html=1;strokeColor=#FFEBA8;fillColor=#FFEBA8;align=center;verticalAlign=middle;whiteSpace=wrap;rounded=1;shadow=1;strokeWidth=2;fontFamily=Comic Sans MS;fontSize=18;fontColor=#ffffff;" vertex="1" parent="EG56wsyXFgtEofnX6Fdd-1">
          <mxGeometry x="4672" y="380" width="70" height="40" as="geometry" />
        </mxCell>
        <mxCell id="4oq_FEflVRpCkMuP0k5V-33" value="" style="shape=flexArrow;endArrow=classic;html=1;rounded=0;shadow=1;fontFamily=Comic Sans MS;fontSize=24;fontColor=#000000;curved=1;fillColor=#1ba1e2;strokeColor=#006EAF;" edge="1" parent="EG56wsyXFgtEofnX6Fdd-1">
          <mxGeometry width="50" height="50" relative="1" as="geometry">
            <mxPoint x="4410" y="390" as="sourcePoint" />
            <mxPoint x="4410" y="580" as="targetPoint" />
          </mxGeometry>
        </mxCell>
        <mxCell id="4oq_FEflVRpCkMuP0k5V-35" value="" style="shape=image;verticalLabelPosition=bottom;labelBackgroundColor=default;verticalAlign=top;aspect=fixed;imageAspect=0;image=data:image/png,iVBORw0KGgoAAAANSUhEUgAAA+8AAAI2CAIAAACuXi4hAAAACXBIWXMAABJ0AAASdAHeZh94AAAgAElEQVR42u3dPYskWZro+dCyhWa+wl3mA6wy0LQJAfkVrnCVFVrqckgKFlasETKyGHHAySo6grnUrtJSNhF3hOnCs4S9RcZt8S4UNFQGeGizkFAu3JX7Krnh9ub2cszsmLu5h3vE748JVRHHz3nsmHvG/zz+2LGzz8fEp0+fxCMeAAAARHLGDsXD5gEAANg8WxUPAAAA2Lx4xAMAAAA2Lx42DwAAwObZqnjYPAAAAJtnq+IBAAAAmxePeAAAANg8OxQPmwcAAGDzbFU8AAAAYPPiEQ8AAADYvHjYPAAAAJtnq+Jh8wAAAGyerYoHAAAAE9n8//x/j+dY26F4TiGe//z/fB48jmrqHA6Hw+FwOJ7kwebFw+YdDofD4XA42Dx7ZvNs3uFwOBwOh4PNi4fNOxwOh8PhcDjY/LHHc5bC5h0Oh8PhcDgcbJ7Ns3mHw+FwOBwONs/m2TybdzgcDofD4WDzbJ7NOxwOh8PhcDjYPJtn8w6Hw+FwOBwONs/mp7P5f/o/kvQMkr//j4t/+u/P1eb/9t8Wv/+HfCL++b/5N8XhcDgcDgebZ/OnZfMp/+u8IfSTGvNfZmcXZ2dvNsdv/235t38/BpWf/3YzB2ze4XA0/u26/cOLi9e/u+v59yqmzUkcn95cvX5x8Yc3q1M/ked63P3p4X34m9tPLh+bZ/PPr9LmX/51cZ6q7H/61+dn8x9fpwuaf5h/9M+fw+FoHqv/+ps3F7+6+eu/79jmNI6//u7hRC7+9MdTu0a/u/rDb57C/B9g5elg82z+CdfNZ0n682/3X2lTav2R2Pyf/zcpeYfDsX2u+gnls09yWUJhfbXC5tk8m8/T89/O2LzD4XC0NLG3biGmjTqN/V6mP95Q2MpXK1f/9S8+vGyezbP5LW1++fEvs9++LQpp3ia//0tY1vtt/m9/Xf75j8mmnzfJ7/9t0aqBiR2LzTscjt0S1f1uFNOmf8Fwt64SefHQybrE5Q+/u/1rs6vVX6sNfnNTafAweibf61KT14WIZwna15vKk42jf/rjzR9+k3V19ac/NvU30+KhJPfqr2/KTtaj/NdNP5HxDPZTxJxGso75RRFzRdlTc+06GlekNoevf3P1h9/UKnPSCNcvyS7H6xdFSH/py3mPX8iNnJ/O6x5ssz7rNPJR8+xg82yezVf0+p/f1mri8+OPi4Cvd9v83/66+P1FoJ96yxFjsXmHw7G/jO+OWeFU4xoaWpPp1Bd7VDW1w4cFwMZrr/70u7LPsvw9N+PWcM1FSESdxt2fftOOpxwoMp7BfjbFMy1lr47VY/Mbo+2Yw5qF5yntP7Zb5v0E1zlxi5+WzUfMz9B1jz2vwXl2sHk2/9Rs/l/nf59ua/O//+t4m//4b0km6EWOfPnnP+aS/fu/jLD54lWbXPs6Vf9vs99XWo4aa/gPdr6hzezPchUOh2NczclOdSmFW69z5EUP6zRqJf380H+WsL/79O9VhS0NMmuQ+dmq6DAV91Q0M2mraN862izFGxT3oVtg89H/8KaMp8grj4knop9azOX3FR2Ljf6rUM7h7acy0d5cg1UXBuVXFtkLS4EOjDK+SD1yfgave73N5guExupieJ4dbJ7NPzGbT2+Enf19sVFjlqQfmZivZceLLHsrZR5h82fdlTPjxhpKyaf8w0xi3uFwjK0/3q1GuSGLXf33VXcUypu1KYRvU7yRd56mkINZ/4bVDdwC+7eacaZq+Jd1pUdptGPi6eunK+bMRBuLjf5bYIPy2uqntPlGFVN1NtqTM/qO4cj5GbzukecVM88ONs/m2XxZHjP/bag8pqsApq/SpraLZfL7P87//Ndam7FjsXmHw7Fdjc3ABvOjqyzG17SEUs4tmy/b1JYHqRFWq0Sa3hmKvz/J3VPZUgwUFc9wPxtbrQcTXD71FjtlMTSFu9VPnufurz9pvKq79qazPCZufoave9x5Rc2zg82zeZU209t8Wkgza/WW/PNfp7f5fLg/zn5rs3mHwzGkgOPb7JTX75LUaiq6uiSop6jLuy0762fa/Q+tT8oqkU359R9+c/WnVhXHUDzD/XTEHM6F98xkR9q+ee0ib2atZ77DwYRuhGguUfrnJ+a6x51X1Dw72Dybdxds07Ajd5yM2aHy418X//zHpCLueV372LGik/Tq5h0OR0zteGybobshBxYDwaqSxtBVkf1bs1C+aopREtz/dUHMnu4x8cTtDR+MOZi07pvJoBm3s/6RtzJXm7WLWMYu4brmJ+a6x5yXPfjZPJtn82Pvgi3K1t9GZbjH7De/2b6muMN13FjRNm9PG4fDcYgam4qD9uXmu7dErJasNAqpg4XpAQnOTyFQx9JpqBF2GBVPnGWGYu5MSHem1Tu+f2iW40euzSoBbHbPHHnRh+cn4rpHnRebZ/Nsns2P3tOmvHv1t3/c7A2f5tdnZZFM3F2w6e7ym7qacsPKTbHNqLHYvMPhmDBlPtXTUjODLHeYSe9QvPvT7xoJ45rxF9uuN/ed/Nu/Nwvla6bYLCNZtfppSG3miKtP2Ub4rQ12/tS5W3lUPBH9hE20I4PedzNxuWjJFj/rbdfLfXKaG9rE3M2cl7L86XfbvQHirtfwdW+e16fweQ3Ps4PNs3k230rPB/eAD1l4z3byXW1+29jBZmgsNu9wOLa7M7U/RxvTJupLgMBm4Y0cc/AuxsquL6nyFv9bS1GHboHt7Ke35rvWrONpTbVbYAfjGeznf47cPbPVW/v21voozVXBiG1Gi7G2eQNEz8/AdY8+r+F5drB5Ns/mA1Uxf/63WfUZrr+t70gTY/OtTs5++3b2z4HdKgfGYvMOh2ML2eq3uvHP/uwf8e5Pv9k8OSj0sM++p4G2y1cKk2vfAtu4FTL4VNH0hZsnGa0fldp+aOinzVNFw89XGoxnsJ9Rt8CWYVc21L+pP2KpfHxSvn17cxvHMRUpu2zWPmZ+hp8C2z6vYCl//zw72Dybf3o2/0//R7KjzZ/qweYdDjU2EeUW8SUZp1U75IhffU22lnM42Dybn9zm/+nbdHvKs+Q//evzs/mPr5N01/n5nwm9w/GMa2z6dzUZ/+DPYzh2elqto1wUFcXr1kUONs/mj9Hms5R8zn9cNBL2z+QjtPj9Zg4k6R0Ox9MqH7KxyU7LvGBFvsPB5tn8Edp88vf/cfFP//3z87T5z3/7b4vf/0PC5h0Ox3P7zsERYfMXf/id7zccbJ7Nn0DdfPDw6XI4HA6Hw+Fg82yezTscDofD4XA42Lx42LzD4XA4HA4Hm2fP4mHzDofD4XA4HGyePbN5h8PhcDgcDscuNn9MrG1VPOIBAABAHGxePGweAACAzbNV8QAAAIDNi0c8AAAAYPPiYfMAAABsnq2Kh80DAACwebYqHgAAALB58YgHAACAzbND8bB5AAAANs9WxQMAADq4v70+f3Pxq6sP9+YCbF484jk6FrOzs7NkvnwW53k2W7jiQJS9Xb64eP3qbtc2B+Xu+iGe89vVE7kGq9X7m8u1Q2fHxeWrcae2env1+sXF5dvV7mOlXaU/7+gtZqwx8YDNs0PxnJ7NLxfzWZKc5STJbLFsiWhTRZfzZAo9ZfNHr1U/f//lN1+//Oq7H/zLj0N55Ie12N183LXN8a1AdpmTV1eX54c734+vSrfODXvsqaU9XFy/n2KsbG7Pb7py8zFjxccDNs8OxXNy8WRa3iTZiGdh83XpZvPPw+Y/ffvN7O/+8eFg8ziUy59mnnW/IR34i4j3N6/T7xk+bl/ZEr3cOtBYx7f8A5tnq+KZ1jLPNun45aKw+0I9M+Fe5+6r1s3m2TywL23tr1eJaXNw0tTv3gq7U+U91OolE98dzyWy7uhgYz2xOiiwefGIp6HkLZvOf5y7Zy7c81lNR0M2v1zUC3bmi4Cl1xoFkv5Z57POwp9Yd153upjl57fY9Pk4S4fS5tOqpuLM5mPtPnPrL17++OnzLz99mXv2Fy/ffd/6U/jp/ufvXhYNfv3N11/+vHnb3f/49a+/Sn/+7qfKS376MvvhN+vefniXvTZ4fP3tL60TTN8PiTsDsHeP3Nr/Up9L09vrKu0XWVHH1XVAkVcfX10VDS7W9S2Bsapt1v2khd2N1O/q49uyHDwtFHk/TiZbJSjVozEDMTFPIMehRUso7Z1l3Ie/TOgZq3pGwcs0ZqzYeMDm2aF4Ti2eurV3/aJIn6c/LF24ZfOLWbBip+bOy7Jqp6dRsM04S0xtflYJaDav1BM9hnFmkzhrzdHItUVu879eF7JX9TpX8HqzxlFz90LWv/jy58ZPclMfafPlRaPz2IGYDPTWWeqiWKVdpV2rpV43G1LncJuGld5dnwfajKnbziy566jYc0zMO41Vhh2sVwkYeW/dUdRYxZ2vofNtdOcWWLB58TzneDIFCwll9TdlMUxN5xs2X1TszFsVO810/lk1176cNytt8iT2w+JhswJIxmpv4ZZZfr7imWMLe8I3FWzhrZslSnH62amP1PmqpmdK/alh4Z8rqfciH/+p7e5FJr4oofn5u+wl66x/eMSBShu5eezMnuslNsq73jIlS123JO+h/6zB3aqmntW0bqXNfSmLjdRv/qrLt2U/+VhbpYf7zzom5pghYr4HCEUSSnv33nIaNdbDlF6/X602p3PlFliwefGIp1MxQwKWWWzD5vP/zNrXbT7cU321UO2z3mTzs3r+/3PvTyOXKbVqose2+drQW9TSl2698fKKu1fbdFTRVH9YGPyv333/5TftBP84mwd2JKbufKfa9LV0Nh03M+xS8jLna2Zw62X6QSlv9JMJbtUdV/frupEdv1Xo8dT+mMdfiA7xDYl789w3/j18y2mcZPf35hZYsHnxsPlRNl/R+ZrNd3VU+3nQpBs/DFfijLbnaq/tQB+jcj40Q1vcSFxW2lS0u5Dy3OZ/+b5ehNNZbFNZCfT4OpvHQdh/6XNu4XXBrS8POlLgNTPO8spNL6z301NJspVQ9hUXxcQ8bp56xDck7sEl1qhbYAfnZPCrCbfAgs2L59nbfHSlTWmgZdnNkCRXG4Xdtf7KvlQ4m5/e5iv1Nl+8bP6KzeNghBV5fJs+Qmnguk12SXM1NR5Okzdia1eSXFyeX11Xqm7GR97xjURMzKOvxahbYEPXZYJbYKPPxS2wYPPieebxjLsLtuKlxT2xUbn5mlXH5OZ3t+3JbH7iSpsD2ny7Aj5A/VbXwE41bB4H4CB1z8O3bwYTz82hQ/bczPpPvDf86GT5TtPVF3wgkuA3HrG3nMZNVH9vboEFmxfPs48nL2wJ17t3GXBWbTOvqmjHsqCusAGhbe2QGVZ+Nj/C5usbTfb9Jc3LbB4kPtQtm8dhOFBuNZQGrttk2Pnye2e78/ftcvyJbb4vgR0V86ilQ5/4tiIJ3YoQv5aIlOz+myXcAgs2Lx7xFLYaeHpU6bwtA86qbZKqipb99O1pU5Tv5Hu6bLa0rHRe7nszX+xg9CdeabPo3Bk/xuY3u0++fPdT2ez+l5++fffdJvtepPDz2pvNHbHNepvNfji9yf7NhkX+QGCMPR7oFsagYTfUPHfTjTgW29I3b29dP7g0/f3q7c1mn5zWxjjX7ydJBme99VTaDMU8hj51zmvx8wtR2bO/y+bz7zxW93cfXl21rT3unubahjYPXV2f194JMWNFxgM2zw7Fc7LxdGSfm7n4mlluXtPafnLcTvJJluLv6Hz7jdlP2uYrE9D6XZTNr9Pz3/TvEx/IuId2saz231+Tswn6GTzYF9O5fEehyNg2kQN1SF5DHFsl77VXtWvibz62EvYdT33ackHS6q1qwDExT7W4ijr3z4Gt4oMhjdr3pnMaY8aKiwdsnh2K54TjaT2dtfns1ZABF15er5tZVB7hGk6vrzP2SXWY4OaTaUfJc7X58luLwKNiI21+3fKHH8tnwa79++W773/45VND3Gu19ZvbZ5uyfv/z9/XlQajCvvR52XlEErPvyg47LfaKe5dNRjxR9b58LFSxxXtrP8rUIMunwO5q8+tQK1Gtnyn7GE+BzS5H5dxvu849C7gQ6KvL8ENwo/eZqQ66PrvV+LFi2oDNs0PxnLTN97slMOINJDePaEM9Hyy0iGmD6Tjk3i/2mQGbZ6vi2QPlva/5XpTrNDozQ5zKF3dBeMsgzuVtRXJsV+T+tq9A/2THAti8eJ6VzQcq1qkZYleB3jDAKZJvgHOQavJDjgWwefE8T5v/XCuhT2bMDNE2nzRvtwBwChS7TB6imvyQYwFsXjzP1uYBAADYPFsVD5sHAABg82xVPAAAAGDz4hEPAAAA2Lx42DwAAACbZ6viAQAAAJtnq+IBAAAAmxcPmwcAAGDzbFU8bB4AAIDNs1XxAAAAgM2LRzwAAABg8+Jh8wAAAGyerYoHeGSW8+TsLJkvd20D1xQA2DxbFQ/A/OCaAgCbF494ToPFLJkt+ATzg2v6PK9U+k+geQDYPFsVzzR/Vm5nycXZ2ZtkvuptdjefXSVn65bZsf2fosXs7Gz/PpFKy9nZSf3FvP/xu5dfzf7uH7/+9pfW737+7tfrX5XHFy9//LT7BDG/fXE3q3xY1kdyu9ymzZFd0+zDO+Gnav+f00/ffrP+vPz6m+/vH+WdkH9yv/jy53o+4+T+eQLYPFsVz7Ha/HJ+VcjEzaLb+JOGdmxt8/1/vJfzWZJM9Cducu/oUvCfv//ym69ffvXdD9NoR2oe735i82z+Odj8/j+nR2nzB8tqAGDz4nkGNh+Tm1/McueY9efvY12++w/YlH/ZD2TzpYLvbvO9ufmWHLD509L6PlOPacPmn5jN83mAzbNV8RyXjoz4w933x+uZ2/woOWDzbJ7Nn7TNH+4LRABsXjxPM574b/knVY3gX67sb1oH24rHnv9Q/vCuWvfSOGrJ9awUp6iTebCKr7/88af7wN/7uCqaU7H59fyvX5pXCCfzRVZJddTpyLzwbP1WXy1mRRFaclONtyhOu6r8sPiMzO6ei80vF/m1fOgsvbanYPO//FR8Er94+a4t95/uf/7u5TeVz+nPzY/Y8Gc57eeHH8t+Nh/qkM0PflsJgM2LRzzHZPPdMv+kbb5p6qUHVGTi6dr8rDC+9aWYzyv/c5zpyNLUk6Rxo8jG3dl87bLu9ik9mM2vP5Uvv+r+DG6a1dtU72CJ+Sw/LBi+Cv6bELb5iC8sAbB58YgnWuubJtHS/d1u1+uR+f38Ze/8K7mcJ51Lh/FDD1Xa/Pzdy3ff//DLp7ZbdG9c82RsvvC8crm2nt+x+hJzvaa6ppWbwvM7SZaLm+r/svnS3/M9Zpfz3aq/9/45rWp69qH7VCzFN5/B+x+/Luphso9V2aZi4cOf5c2N7JuPZ1+lzWfZeYDNs1XxnJDNRznclDbfaS2HtfluHQ/8dX96Np+9OJ/y7H9Ow+ZLLy83dCp+wuYbr9/tU7v3z+nGsMtPXMXdq20ae0llWfbQBlNdn+Vfvn/5VVdGv8vm4/IcANi8eMSzjc1PqxpxGaiD2PzEl3XY5n/56dt3jW/5n4vN56+tCcsxlxbEmDqbb3xCd9PRvX9OQ3fBhi08XCFTU/Pez3JrkcDmATbPVsXD5p+AzYdrbdk8m2fzp2bzQ5/lwubrRXRsHmDzbFU8T8Tmn2mlTXlL3Nff/hxRR8vmO23nsJU2bP7xbX7aSpsYm+//TA1/ltk8wObZqniets0f/C7YnexwIpsP1dGGv45n8yds84FqezZ/NJ/TCJsvS+R79qSP+SwHxD1Qtb9NngMAmxePeI7A5qNMvbxbcrH737Z0n/Nk/ymvzd4XAb1uWMKnH37cbFbN5o+PqLx7fZebctMbNn+cn9MYm998il++2+wff7+ukv+uSLTHfJY3bX6obZ5jh0qAzbNV8ezPWmL2q9n/06NaOj/BTtbFVnr71/lANe3mq/bWtvTrJ86E9tMI1+OWyt69vf22Ws/mt7X5wHZPxf70LePv+3zFtHnyNr//z2mUza9F/JuBZ0dEfJbLbH1fGzIPsHm2Kp6TtflC1Qf+bi8XsySZ5OlRh8nNf86fENn1LNhPP7wr/8BnT47ME3hs/lRt/qHd3ax4vFQyu10sV3M2f9K5+fyjWnuG69f13eVjPsuZ0H/3cqjNNFMHgM2L59nH8ziy5EkpR3Ut9mp+cE3hn0OAzbNV8TzNP2CyUcwPrumzZrHbM3QBsHnxiMdfMebH/FxTPOKVOlAhIAA2Lx42v48/ZYuZv2PMD66pfwIBsHm2Kh4AAACwefGweQAAADbPVsXD5gEAANg8WxUPAAAA2Lx4xGOBAQAAwObFw+YBAADYPFsVj5AAAADYvHjEw+YBAADYvHjYPAAAAJtnq+Jh8wAAAGyerYqHzQMAALB58YiHzQMAALB58bB5AAAANs9WxSMkADgo97fX528ufnX14d55AWyeiomHzT8Plrez5OLs7E0yX5kMYO9Wevni4vWru13bdLB6e/X6xYP1Xly+fVKf56d6XsfN3fXD+/D81oyzebYqHiE9nqbfzWdXSXIxW/S2ml89qHx63Cz8EwjsVUo/rBPMNx93bTO0Eji/eXq5+SnOa/Xh1dXl+bZze7xjPd7KE2yerYqHze9V5gtN77d5uXngUC6/TjAPZJdj2uAE9PT0Vdhbkc2zVfEI6WRsHsDh9K6/biGmDbbm/c3h9PSQY+2Hj6/cqMDm2ap4hBRktZjfJGkuPD2uZvO7ZcPCF7UGyazWIHf05Hb50NWsKJJJbuZlo8VN8drAUUnA383OLmq/XfcZWg/0jLVZM1xVflj0PKulpZbLu1ly1XVeGxbz5OzsLLEGwZMiq5/pd6OYNuEXfnx1dbkuK1+//DpskGkNdJoqXr2/GWh8f/dh0+HF5avbj/c9I16s60nutxqrPtC6kOb9auR5DfeTWmnX0Zjt1ce3N5fnXfEMn9eYsYYu6jo1nr4kPbvstoFQrVF/zIHr9fr86vK8XQVUbbOONh3xlCuF2DwVEw+b3wt3s+SibdgVb13NQw2qFe2lPSfNloVPT27zPWNF23ylOj98XhuZn51l0Hk8IWIytdtmc4s7RMsjZGBF4UdLNy+u3/f3lvpftWJk3VWvqkaONdRP1HkN95OtkbqOap9314GWlZiHzyt+rGHy1Pj79tmNiblzfupfAcW0AZtnq+IRUsXUkzIfv1yn6ueLpvKWeetlqeaFGVe1OFPzsk2j8D260qaQ706b7xsryuaXt0nxk67zqui83DyeGjF7g2y/f8jq7c31+9VqY5OhHPBG1za59nZhdCHQV0WHn7PUbyX9/BBn1sld2SAdtGL8cWOltvrwk7Kfz6v7Bze9qdh8xHlF9BM3w/lZ1PpJYx57XjtezXo8Rfo/T7dnk99YqPTGvLlet6tyYpvrxso1rUz+a7fAsnm2Kh4hNagY7YDu1616MbuoprE3hh1y5X3ZfPdYMTZftKll4hvnBTxZYuqPJ6pR7t4PZy1wzSx7Zn6VPG5DFnvUedVaKlTkNWqsUWVFPfv8RPfTf1tqKrjVlPbqfl15UrPeqPOKGGuczVermOrzEBFzS+4DMce0AZtnq+IRUpRbx0n5iDr1yWw+xtR72nSVD9kWE8+B9xE5zvdT5UE7U8K5sdV/1VhCROxh0tF/3eZjxvpc+R6gmhIee14j+ukrZOqpkNksISLPa2is+EsZqIMaGXPWSXMVVI85pg3YPFsVj5C6rDds8/0FM2weOCHCqjS+TRzdKeEsp15Xw2bCe1jguiS1Pm7MWIUf39RuXb0ffV7x/fSeXXYJaiXjl+dX15UKllHnNYEKD+9uFBFzeN7q77eYNmDzbFU8Qop064HcfK7LJ2zzrf6BJ07I/7ZpE0l3cj0onY2E9/BTq7qqL+qnEDNWw1zLPVvCBhy78XlfP71nF1UYE39euz3/q3/hNCrmUCfNbxhi2oDNs1XxCCmj577PPqsuE9uNuvnjtfl2tX1RIt/9vQTwBDlojU1p1UEhDklnUweHC9DDVp3fG1qt7hgca8RS4fPIVHdHP/3LiRibjz+v3W+BjVjjbWfz7dL/mDZg82xVPEJqeHBly5ps+/lyT5vCestNbx5+e7XNHjLN9UN/Unwnm/9c3+VmWd0fs9XmLLlZlF2l+/nM2g+gXaZ72tjUBidOTIJ2iiRus7fcerN9XfqqKVoalxnkg4aWt12uO3lVsdLc8yql9vm264FtHPvGenjVek+Yyof//i7bniXkr93nNaKf/ht8yyL1kbnwcAZ9+GbiUZeye3UxFHO2Vny4oGmfHyv1SPVbezdtVsE2YPNsVTxC2nhqUUvTud98eEP6qmePsPn2jvKBVcGbnuHixmqPUuxPX4ln8/Cpzv3v6zK/9nmpfJyuy0dsCTL5tiGtfdBz6w3m1APZ38Cm440cc/DOy/Yel0Nj5auC3l3tI85rVD+tTmqu3PHUp+YtsMNzGDFWTO4nJrs/GHOotv7mY3h7yv42YPNsVTxCqrrq+qGqG6dP2s+CHWgwxuYfWt/N6xq9B5tfj1IuQpLZ7WJZVAc1Kn8Wt5Vnwb5Jkpv5YhXy9dLnZedxogzfwhjXZvy4xbOEsuezrrqls+NrgXXmu3xmU/shr5+HngIbOdZqndSvDXTVnxcPntfIflbN58XeNxZX5RNVA2Y8Yg4jxop6/0QUuvTHXFzQco/89Q2ygTVkq01770uwebYqHiFh3JInr7WRm8dJElMmMWq3dQBg8+Jh8zgdlV/MEoU2OGGXj9iAJXaTFgBg8+Jh82z+hFjMzkq4PAAAbF481JnNn57NJ8lsweQBAGDz4qHObB4AALB5KiYeNg8AAMDm2ap4hAQAAMDmxSMeNg8AAMDmxcPmAQAA2DxbFQ91BgAAYPNsVTwAAABg8+Jh8wAAAGyeHYqHzQMAALB5tioeAAAAsHnxiAcAAABsXjxsHgAAgM2zVfGweQAAADbPVsUDAAAANi8eNg8AAMDm2aF42DwAAACbZ+u+QoUAACAASURBVKviAQAAAJsXj3gAAADA5sXD5gEAANg8WxWPjxAAAACbZ6viAQAAAJsXD5sHAABg8+xQPGweAACAzbNV8QAAAIDNi0c8AAAAYPPiYfMAAABsnq2KBwAAAGyerYoHAAAAbF48bB4AAIDNs0PxsHkAAAA2z1bFAwAAADYvHvEAAACAzYuHzQMAALB5tioeAAAAsHm2Kh4AAACwefGweQAAADbPVsXD5gEAANg8WxUPAAAA2Lx4xAMAAAA2Lx42DwAAwObZqngAAADA5tmqeAAAAMDmxcPmAQAA2DxbFQ+bBwAAYPNsVTwAAABg8+IRDwAAANi8eNg8AAAAm2er4gEAAACbZ6viOTYWs+Ts7CyZLfxrAQAA2DxbFc/jqvmDmZ+NMfPsFSNfhKm5//G7l1/N/u4fv/72F5MBAACbF8+TtfnlYp7m0jOS2Xyx3M3mD5GbXz7EnFgu9L3Tvv3mQeUfji9+/e6nsO7//P2X33z98qvvfjBbAAA2zw7Fc5rxLOcbkd+QzJe72PwBOM6ojoqh3Hyp+2weAMDm2aF4TjOevCYmKdPxy0Vu9xufZ/NPFDYPAGDz7FA8Jx1PnpdvKnHjx6U3VytyklmtHCec4Q+59rJS1ZM0eqm0WqzraALNypL8s4FvFGIXMo0Ys5+O6mi61cl62KxIab2+2szVyHB+/u7XX2WanlfavPyx9p774V31t42jkcj/dP/zdy/Lip1vvv7y50/1fh7a//TlN9lv16uCH959/euOLwSyhaJ7owEAbJ6timdKmQ+oYv0XqeAms1nSI+uRNh908Y7FRFjUp7P5gM/nIz+Cy+c2X53k2bwyD6MMeDKbL5P3td7KKvzM5l9+Uxnom6+LoR/k/vv78MWn8wAANs9WxTOVQHYl0JPNbzYCXeTIi3Kcbu2tddAYb74sXrXM75atdrMsK33KfPzyod2sOdQklTY1n9/S5cMLmdHeWsxylp+vvD5bTG21wMi1vmnzLVkPV9rc/5ip+RdFPv5TsQx4+El1VbBeAJSN12Pl4za7lZsHALB5tiqeyW0+6Ikhm68XxQzIdMDm0x+1Rmv+NLrSZaK6+bKqqKPq6MA2n514bV3xWDaf/baxH85PX361+WFq8/l/FzafdvXL9y+/Uo4PAGDzbFU8x2TzTTHtl8yAzffVyJQNgzn9fdp83cYfMW1cnc/29B/e5nMjDx41m886T22+qK5h8wAANs9WxXMogYyttNnV5vtS2JuG8eo64Z42+Y2nj1Mvz+YBAGDzbFU8WzHmLtimN3e+tsvm46w03tEns/m8xGXr+1+nrLQ5Ppvveu1nNg8AYPNsVTyPTUeReuPHIW8ekPnOuvkhLY2vXp/I5jfnuu3elE/U5ssS+ebWNGweAMDm2ap4joX2BjLl06M2IlpqbmMrmj7FDNW/F/d2zuaL5ZBep9vn9O5pU94putihPKZu8I+21/wWNr+I2Yl+wOY/b/aoCTUof/vy3U+l0N//8tO3777LdrEca/PlG8CmNgAANs9WxTOxzzc2bq8KV8ftq70iGb6btSON3egpOF57tEBn40S8vSPlsrWSOVKbr5x7K9bgJvHhjedbO9M39pvPHgvVuSf9SJvfBP2oNygAAMDmxfOk4vlce8RrMHWeNkgqTaqJ8zE2X/Y1aOrVR8F2PzK23mycJYZ3l388nx+Xm19WHxm7vc0/WPjP39eVvfks2B9+/K7yfKivX777/odf8k5GV9qUPi87DwBg82xVPEfNDsXeeLo85sN2AQBg8+Jh852WtpjV6tznMxlYtN8kiUIbAACbZ6viOUZRCxTEc3kUVG+F4PIAADbPVsVzfDpfrb1PBratwfO0+c77HwAAYPPiEQ8AAADYvHjYPAAAAJtnq+Jh8wAAAGyerYoHAAAAbF484gEAAACbFw+bBwAAYPNsVTwAAABg8+IRDwAAANi8eNg8AAAAm2er4mHzAAAAbJ6tigcAAABsXjziAQAAYPPsUDxsHsChWc6Ts7Nkvty1DQCweXYoHjYPgM0DAJtnq+J5vixmyWyx7PzdGSU5jmuBnfw7nVo2Dzw697fX528ufnX14d5cgM2L5yna/PJ2llycnb1J5qveZnfz2VVytm6ZHdtrymJ21qPr2W8fmM6DsOW1mFRET+SK3s0qb/L1kdwut2lTrkunOu1nYvP3t5cvLl6/utu1zWOzenv1+sXF5dvV0b7Rrx/m8Px2n/GtVu9vLtcOnR0Xl6/GDTdmDgfGSrtKf97RW8xYe7umB7gWYPPieeI2v5xfFVJys+g2/qShL1vb/LDY7ZKbz3uvkCSz+faZ5+V8liRPdl1xOMnOFg3PzeanXS09C5tffVgL2c3HXds8Ph9frd3x+v0pr5ommIHqMXq4+DkcHis73/Obrtx8zFj7uqansDpl82xVPEdu8zG5+cUsd5fZfMfsQeaP+9ONts0XUr/dkCdkoUd3LU59Hgtl7zT1uDaT+fwzsPlHzY8eflly7FO9E+9vXqf55o/3+5/DA421r2t6Im9pNs9WxXPcNj+N1oyQun3KRmaoFWtcLvNyh+1c8gnb/N6vBZuf9uSfvM3n2dPeeoOYNsfx7jny2ok0zby/IvJMfHfsP3IODzbWvq7pnq8F2Lx4nnY88dUCU9l8S7UDv93Q2W6RVr8UOfd6HU14iLzrmuXUu2n0U9buD6f5e/s5XvquRX72jV/ulGPeu83nBWPrt+hqMSuKx5Kb2iXPi8quKj8s3tuzu/3Z/ETfgjxxm49xsu287eFVmYStPry6el0IWZYQfX2+Rap19fHV1eWLoqLj/OpyfdT7ybLF3bUT6ejpidzfpVFlXbXrQFYf35bl4GmD96tt4qm1Wc9hOmLeJpwb3mnh1Ce+IXkNpb2H5jBirOpZX133JL9jxoqKZ+z1al4LsHnxiOfYbb5f5uNsPlhJU7GXjjFaOh/W9fJ10TY/0M9JynzI50ProWO0+bOrJGnc4LFx90ez+Wm+CHnaNp+q0kCxQUybLpt/dVsprb66zgV6fBn02nEbJdqZt7XvuewLNTfa9+3eqlZ3d30eGKsWcEw8g22Cnhor0w0j7zrKsIP1KgEj753DqLGKO1+Dc9teXO1e4jXR9QKbF494dtH6ppG0dD9K/bcVyKiW7STnOjU+G7T51gvXWwfOF8vN6zoyz0MWGttPxPmGKYaOaTPltaj5/K4u32OzU51X5Wbu/A6Q5eKm+r+Pa/NTZOefss3vtc7h4YWlV63KvU0ePHWVCusYm8+6SvdLKVLLq9AaY+h2yaqMXl3n6dus8zJpnbV56PluVRfKimHHxFO2udu0eXvT6mf0gqR7noNHeV6h6xhaOfTOYdRYD6e5vuKbybza5y2wo65Xz7UAmxePeI7a5uPTk2NsPvKlMTvpbGPzk2RhD2/zMUGWUzbFzjedljm9zZdeXm7EVPzkEW1+xFr2Gdp8TN3w9rXFeTY0E9NcuSrFNiP6bMnZ5od1yRu8XbK0+ZvKjZv1V7VWGqv7dYVG1bBj4omLuR3wTnd89olvSNy3msMRIj7U2xS3wE50vcDmxSOeqW1+vLJMlJ3sMZ9S/uop8S1svlHv3rHzzbDNx/VzXERei6pp71gks3fLjDF1Nn+UTFay3GPzZTK4lv9ORTBeWLPXNtuHlhmDXyPkOdq45H1XKU5MPLExN3+yy4T3im9QXreaw1HS39/b7l8NTXW9wObFI55nYfOfswdsJtXt5Ifvgm2N3pURHmvz0f2cpM2Xjz/a/XzYPJsfo8jj23TrXrVipLaxd3l37JhVQVNwQ7ENqvDwDabtSpKLy/Or60oVR1Q80THXJXvHrRjH3gK71RyOkv7+Dd0nWE9OdL3A5sUjnmO3+UkqbaqN0qR4U57774Itfl4WhS+Hwuu3+fh+Is732Cptyl1skrM93sE5daUNmz8pmz/AI3tq+lgthxj7yJ5QfXyxMc7IivPB23ljYouJJzrmWsvRtxPEBx9YJ2w5h59HXMT+3ia4BXaq6wU2Lx7xHL3NT3EXbMg4A0n3xkuXjS1agqnpLWx+RD9HZvMxM7y5n3fC55kemc0Hqu33ZPMTbGrz9Gx+3zU2uT5ubKlWKD/WWds2tv5J4LGjg8uP4fXJdnbYjic65sqIabZ7h5sye8W3lUrfdg5HSX9/NcsES8qprhfYvHjEc/Q2H39HabdrLuaNevnlvN5p86WVh0c1E/iVJUCgTbNpaBP5Ef0cG4PXom7wO/t8OjPJIXao7Mu713e5KTe9sUPlo3CYp2/W3LRaKD/2FtjNA0fTV6+3FS+2yunY0CZfQazSHeUrbWJ2zS8L61c7xVNvs+qOuSz5uH61a+FHnzrnJUbFJXi/iafD5rvmMErTgxP+0NV1fTP+mLGG2oy+Xr3XAmxePOIZaz8x+9Uc5OlR3UnaipyEt3dv7Tc/+MSnQKskXEoeaNpaFsT0c2zEXIvAvG7p48V125/Ox1XRtLdpKvanbxl/3+cips3kMv/EbD5mK48JtvtI9bGwpVpi+ONobW3XRt987CyfaFVR18xvuLiisjt+9270w/HExlwZccf9VfoXYFPN4bjFXmsy26U+A2MNtpnoeoHNi0c8x2/zvftERtl868mrzUevNntJko6Hsy7LovvsRtpltwfVb7ttPlI2vp9j1PnQtQjvLr+bzx9Hbn7d7m5WPF4qmd0ulqv5/m1+gpr5p2bzMc8Z3elZpLWEaLVQvjCnkbfA5iGVjwdKtwzvXG+sPmyeTrV+LGvtgaDR9fqrzVNFO55/FBNPq01XiVFw/8TxDK1V7m8r8dx2x9M7h2PWRc1Bz28+3q/GjzXcZovrtestCmDz4hHPYzrkaT563rXAY07z07H5mFKTmDaYcH31IJpT3I75/oDPQnrvuUtg8+IRz6PKzR5rLuBaHA8T3kH8VGx+gi1EMOkFKerXd90ncXV/W3+c7T6DPuBYYPNsVTxsfr+GA9fi2FdLUxUYPd1nweLxllVlTcgOWpw/bfcg93QeciywebYqHjbfLyaLWSIj7FqYWjaPx7b5on59a4qdFjsqziflkGOBzbNV8bB5AAAANs9WxQMAAAA2Lx7xAAAAsHl2KB42DwAAwObZqniEBAAAwObFIx42DwAAwObFw+YBAADYPFsVD5sHAABg82xVPGweAACAzYtHPGweAACweSomHjYPAADA5tmqeISEKst5cnaWzJe7tgEAAGxePGwebB4AADbPVsXD5sHmAQBg82xVPGyezbN5PGHuby9fXLx+dbdrG9RZvb16/eLi8u1qxzZbcXf9cL3Ob1cuA9g8WxUPm2fzbB5P2zk/nL+5+NXNx13boMnHVw+TdnH9ftc2+1qhAWxePOJh82weOHmXf8z8sWXSvpZJLhnYPFsVD5tn82wez4Asg9tfjxHTBgFial32VQ+TpvyvPty7CmDzbFU8TzykxexszWwR+OmRmus6uHVoi1mSRblYm3bxP9uFzObxTMkSw/3OF9Mm+KpMUlcfXq2TxJmwZgnj1+dbpaLv7x66unzxEMy6NOXy1e3HZkirj5UGr8+vLtdHOVbqzWnlyer9TdHs6jqYvY4Z6+3N5Xk51s2H961+3t+8Hqx1iWkTM1bt3Nfn9fqFyiiwebYqnmcSUsvnU2s9Ym9NbX6W2XsW+nxe+Z8FmwdiSVVyoBgjpk2XzT9I8KuNX16/yhRzmzLxdBlQdlV4bVWC118gNBpk7lukvYs68kpI4WCGx3pYGJwHxgr1s3sJU8RYg+cOsHm2Kp6nHVLN57d0+WVFqJsUgh3TJj7cPD9feX36P9vpNpvHc2SvdSAPLyy9c1X48dqJV+nyYJTNFy+/WndV/Ozj25tKWj0bbp1EXxVJ9FVjHbJR3k2uvS3TEWNlX1Y8vOpuVZfyRop9iltgY8Yqz/1uc+5vY1L+AJsXj3ieTki5Z88W5X9s2cPhbD7T6trag80DI4ipq96+9jpX50yUcyWtFNuM6jOz1b6XBGU6++FGlNdy38yyN9tEjPW5tRpZ3a+rXFop9ilugY0YK+rcATbPVsXz9ENa7lyscjCq0p6FnQfM5oFoJivp7rH5MqlfU+R0hTCinjuqFiVUI95YihQl+7XvGYJtesfK/Dt4NALY/auPmLGizh1g82xVPM8hpOKm0uP3VTYP7EpYAce3iVPw2sbn5d2xsQyLaXhj9Wb8oZqWZmo8QoLLCqJNefrl+dV1pRJmuvVSxFhx5w6webYqnmcQUl6+svX9r4eutGHzwNYc4JFGNS2ulouMfqRRRL1K6D7dViY+2E8jNR4xVnT8E9wCGzNW1LkDbJ6tiufph7QpRd92b0o2D5wI+66xybV4Y5O1QvnRt8BG7I/ZNtpAiXyopqWpyxFjRdv8BEum7Ww+dHsAwObZqnieeEh1gz/qvebZPLAbh3k66WZn98/1Qvnxt8Dmyvsg4uWO76v7u+tXFS/P1h4PDdJfrrdmL/euqW1o0xLclgoPj1VsIHP9fhVn8/mKZpVtYF9Pog+1iRirfu6r4LkDbJ6tiudph9TekbJIoR/rzbBsHtja5SO2OplgO5RUnQubrCXFx94CW/TWv5N6u7785mPd1IM1LYHU+PBYn1vb1QdvgQ1vWh8qielrEzHW8LkDbJ6tiudJhxTeXf64fZ7NAztI9kA5dUybQVqF8oVZjr4Ftojq7vp88+Sp9eNd79sNyr3k71atNUnMLbCxY6W7uV+eD9j85/whuPmTsy47HuA62GZ4rNa5jy9nAti8eMTzFEJ63rB5PH0iisKj2gAAmxcPdWbzbB44sMvvvsUKALB58YiHzbN5AADYPBUTD5sHmwcAgM2zVfEICQAAgM2LRzxsHgAAgM2Lh80DAACwebYqHjYPAADA5tmqeNg8AAAAmxePeNg8AABg81RMPGweAACAzbNV8QgJAACAzYtHPGweAACAzYuHzQMAALB5tioeNg8AAMDm2ap42DwAAACbF4942DwAAGDzVEw8bB4AAIDNs1XxCAmPwGKWzBbLY49ymYa5e5vRgyZna5L50jsFANg8WxUPm48xqHnqT5NaGbpV/kRc9cGrB98WMW1GvxHP2PxBub+9fHHx+tXdrm1CrN5evX5xcfl2ZZoBNk/FxMPm9y+YT8Xma05YpeWHy/k6EXzI8z6xhVPMymO61Uk+OTT+oKw+nL+5+NXNx13bhPn46uGFF9fvD3Uur64uz7eJs9nR+9vr84d1yEPw6/gf+vzwfhVa4ax/+/r8dtXdyWV/JwCbp2LiYfNsfhebP/R5Z5GdlK0e0ufTfrj8YV0+Ine+Q359+2XANmz7BUIo5sYRUPZ0ofKweAieYLCTA04FwObZqnjY/BNhSA8PfN6naasxkzTNRLL5Q5Ppb0dqeUSbTu6ut3/teN7f7FzVc3d9nrl7NY++WmfZG4uEdFoexsqc/sN9YP3z0MnH+00waSe3kvNg81RMPGz+sMK2/vnarvLq6GS+yKpTtk/Fbm5yXHfRvhd0uZhXGpwls3ngbtF6o3CbPj3MTvcsLoFfnG8o4FHzkyXmw8abR9T45V4r7PvOKxR4fxiTfOvA5g9Llj9umuj4NgN6PZQsfxDiWjnKx/ZY93cfKm3qqp3lyLuOcZFndUExy4+05TrRHrL53SYNYPNsVTxsfnKbn22s72w2r1SxjE3FBitgavIW1uz6OMO9TGjzwZabeMbMT5/Mh3x+r0XkA+e1jWZPoOJs/qDEZLJ3y3YPl+jkpee9Cj7QpqumZXxlSz5QxEuKxHx5jvUbA+6uXxzybgGAzbNV8QipR6MK6cvyzxXp28K7CgtPNpn05XIxm9XlOU20lz9ZtrPT7STwOlM/G2Xzg6uY+q/nZUDLLAlf9jhifgZkvunzB3D5nvMKX7s9Z+ftrHRQYmpgdq2TGboFNrfey1d3xRCZmtfS+Vknl2/vNoUv93fX5zetzPc00UYsXeo3A4QWPMXXBVfXbnsF2Lx42PyBSEWq0+azX9T8crzNb1k10hpolDTuZPPhSan9dMT8xMxY6bN7FduI8+qIrD+emDZ9y5isaEpi/iAEq723aDPCeiPtuVmmH121sustsNnSImKghr6Hq4nW5UPFljhX15WlCMDmqZh42Pwj2Hz+85qsjbb5WNVr1M0Hil/KSpt6Gn96m++rxwlMQ//8RC5CljsUMo2X5/hiGzb/pIgpZ48qeR/0455kecdvWzfdpqUs6e4xr+5W99GSPZbYm31bS5SeF6bl/q/zXSztZgM2T8XEw+ZP3OajXtC1tWTrxtRF7U7Z7ls4d7H5zn0u92nz5eOY9lc+HnNeh7X5zUVVNn8IsiR0v1zGtNltzdAl36EU++rtTe0W2JDT7/pNQhbtoM0Hwh6q8Lkv98mxoQ3YPBUTD5s/eZuP2ubwrObmfQMt00R+322wu+fmIzZaj5ufuBnLS3f2+hClbe41PYDNF5Gpm98vMY9zmuSRT/23wIZuHh0aepPqblv7zhvbR9l8tsgZf7tt/P21AJtnq+Jh83sUvykqbXpVLZi+jlLqzpzu7nXz/WOPmJ8Y192U4e9zb8ptblc9zKY29rTZOweqsRleEoRdP8J6O5YBO29snw/dl90van7Gb4XJ5gE2Lx42fwBrX+fmwztUjrD5Rd9O9HnmfV0WE97TprmNy3IRSrwv5o16+eW8W8mH9LAcMliqU/w2bj/7ofkZ/HaibvB9Pp+vX7YtMh8+r8eReTa/b2IS2JM9vbWw+UywV6tsz/jazaM1CV69z8ppKqb+8JNXt9UHMK3T8+fBRUL0PawDJ5498qkcbvXx7c3l27vKEIGZqaxbVh9erffCry4qVmWlzc4LJIDNs1XxCGnAIwOqOcrmKwXZvY9I6qyJD1V0J808cvgezvB9ssO70geatqvdu/vZYn56vwgIzUbHGmun4vqh83ocmWfze3b5juKWsW3GDNdIYFeT8cF94uvZ+tz4m22CWtx6htR4s39/E9rYvravfLBwqGLzXaU4iuYBNi8eNr9/nZ8iN7+sPhK1QyMH7l+tPKA0/eWyXdHffFpsO8U8wuZbIbUdPLDJznY231NtFN5dftjnd9ndve+8PkevQka0YfOPSsyeLbH7usT6/IfKLo2X9Qe4Zg2GngK7Wifsz8tOHtr07OC+aj4vdos8ffOhs+vh0vH6bguuiv6q1kO2FU/96wWAzVMx8bB5nDA7P2GpofMHMN+DPDiKze+bmF3bo3d2BwA2Lx42j2fu87tlsZd738WysWqI2Nhnklj6b2PA9i7fu71MfBsAYPPiEQ+bxy72W60hSva+lWOecu8dJ6bN6Lk5O9QXDwAANi8e8bB5jNfkxWw7/83decRuNPsOc+tT6eswYfMAwObZqnjYPAAAAJtnq+Jh8wAAAGxePOJh8wAAgM1TMfGweQAAADbPVsUjJAAAADYvHvGweQAAADYvHjYPAADA5tmqeNg8AAAAm2er4mHzAAAAbF484mHzAACAzVMx8bB5AAAANs9WxSMkAAAANi8e8bB5AAAANi8eNg8AAMDm2ap42DxOl8UsmS2Wxx7lMg3T1QIAsHnxsPlT8syzs7NkvvyMfc1h+uvm77MfHpc7P8j88QWFcdzfXr64eP3qbtc2UdxdP/Rzfrsy7fvFPIPNs1XxsPmnbfPLeRJU0MOdWd9IWXTt8I7R5rtWHjgZVh/O31z86ubjrm2mWzngKczz6sOrq8vzKd4zYPNsVTxsns2fmM1nsYV+daQ2z+dP2uXfXr1+cXH5drVjmwmHw1OYZ8s2sHnxsHk2/2xtvieEo7X5ow4Ng8rVX48R0yaaj6/eXPzq6sO9qd8vjz/P728s28DmxcPmD+a1i/ksSQs7UpLZPHTn5fpex02js2omtqssJJCwHRqrFNllXo2dtQreClqLKAk1Ws5nnQ3G2HxfPxPN4XBgdWVOBywimu9BodcjrYPLr0M6RjEP4ZVG9zcKRZdZA8J/RGT1M/3OF9Om7+UfX11dvnjoITuuXr9oV+ysPr69uTzPGjwsG24+vF/19nNx+epudX/34dXtxz55DVYHDYw1VT9bzc9DP1eX59XqlLT2PU1vr97fFM2urt+utprnoVDW6fz03Ndzm/WQntp9a6zuc08nsOvYTOzgWOHvFiZdWILNi0c8TyakzA+b1I1rGW60EbdwXrb10+GxMpeezZKzfunNFxB9jYKDbcaKtvmBfiabwxiZj56fiWy+OtBsXpnzcHz932uUE0Dnj4aY7OkuGda1e7WVrmFjd9fngTbX70f1ExTu9m2gg2NN1c9E81MUq7QUeez8RJGvZN63e6tOSP+5ZxPYddx8jB8rfeM1C3WCPwSbZ6viYfOzNJG8bFhnxclyc67mpJfzhreFdL79s+GxNsqb5NntbKi6IxYun2wy4MuHvmYtB3/4yXIzVi11HGnzg/1MN4cRMl+dn1n3/Ey5ysvy8xUP71H2gey83PyREbPnyS77ojy8tsyjF7L8tmFjmfw9rBbuyiGypGylTdnPbd7P/V3xqlVfnO+3G2uSfkbNz+1mfhprp42mr5t9vN+MVT/3wXmOoSriV9d5uj3rvMypx597/zsnZqxAD266YPNsVTxCGuNxGyULKlpHBruVZh/Kwy6Cq4KmKwdT/H3+msYcTns3yoPC1Br19zPhHHb+sOXY/fMzoc1nAxVrkfR/hrfioesnQUxd9S6110HJy364ySun8lpNM6/u1xUjVWMLy2LjhaGU7RZjTdbPlPOTZtkrzRptovoZZ/M3H+8bP6zly6POfeAW2IixAt+TTLexEtg8WxXPUwupUfMdrKIZls6myIWlb2CsoJk2e45QxnBVS63OI8rmI/qZcg6Ha89j5mf6NV1tBDb/JIipWNipqiHLszbFq7486KnKqBaOB/rZVF13y+v4sSbrZ6L5KUy9np+ut4nqZ0xIPWuAMec+UKA1OFboLJTZsHm2Kh4hdah8h9QOVKQElK7eFLZpHgAAIABJREFUsFtVe2vHY2x1eNeZXlOv2Xx/pU1MP5POIZvHQQgr4Pg23YRTs40+s/+tlV9fnl9dV6o4Ovpp5mhD8jp+rOn6mWh+sngayls/97h+RoTUV1U14twHlhNxN7PWF1cS82yerYqHzffa4Vltm5a6roX9sttEM5UL/X54rBE2H5Gb76+Fiaqbj9qucso5jKu0YfPYhZAjbtOmj1BqtplpjtmPPJjizXK0vbfAbjPWZP1MND8xt+RG9bN9SBErkNiZHDdWu1mryAdsnq2KR0g9mhm+D3TRelnPHZzRaedtbL5zQ8yBsbaw+Yh+9jaHp2jzp/8YgmfA3mtsOnStXQK+nc3nN4b23gK73ViT9TPR/ARvJG0EENXPRGu8Eec+cPN07FpxM+Jmp06webYqHiEFTbSSRC53eW8ZdrnHzGYj+La2pU1ni7Tbpl6OGGvIVot7QWebfWQae9qUe8gE932PtvmIfqaew/5vHkbZfL77zmwru97G5gdkfrOxjz9qj0ZMucIUJQ1F+jztZLV6e7PZm6W1Gct1z07teT/5vZKVPdcrLpiXbeQBV9u0N8bpG2uqfsbPz8fg/ATtuaHvUfMc/8boL7WPP/fG7jRbjFXt5+b6lRobNs9WxcPmB3W+Xu6dDO24nmR7jwe8LfO5JAnZZcxYsbYavD01uIvluFr2tpEO9TP5HMY9PSp2XbL1bvRb2HyczMveP6bLR2x1stV2KF0eVr9RspVI7njSUH138xeNPdRv0ocNVV1wT2Nt3c808xPcjbGV1Y6KOS6e4eKc+HNvtWxcr9hCoKIfNTZsnq2Kh80PCP0mUZxmuwMbMC4X82LHlmyf885NGguFDNvo4FgjbLX+YNXQI1pDG82Mtvmhfqafw75KonGVNtU94/du8xEFP6XPy84/CjG3Hk74rM378jFD6Vbon8Olz6vNU0U77LDZT+irg/vbSpvbHcaaqJ+t5qexjhq+BXbMPEe9NyJKWaLPffWh9ozbygNlx1QrbbWRP9g8WxXPMw0Jx0RMuX68kh8kFx4XcsfNAjgEMeUN8SUQj4gS6uez/nxYqEy0tgSbZ6viYfN4FJ/fLYddVufvX54XMc+jPWA8aHt6xEM0T+NBm9uUkeD03rDFfQvK5dk8WxUPm8fJEmXIvWuBs8Pcc5qn5fvGqd41wOWx+7JEFfWTvr7BanuwebYqHjaP02OdzN7KxXO/7tuJ57Bh5iuTwL0NwDi2esopTs7mi/sWwObZqnjYPAAAAJtnq+Jh8wAAAGxePOJh8wAAgM1TMfGweQAAADbPVsUjJAAAADYvHvGweQAAADYvHjYPAADA5tmqeNg8AAAAm2er4mHzAAAAbF481JnNAwAANk/FxMPmAQAA2DxbFY+QAAAA2Lx4xMPmAQAA2Lx42DwAAACbZ6viYfMAAABsnq2Kh80fkuXtLLk4O3uTzFcmAwAANs9WxSOkI9H0u/nsKkkuZoveVvOrB5VPj5uFfwIBAGDzbFU8QjoKmS80vd/m5eYBAGDzbFU8bP5kbR4AALB5tioeNh/HajG/SdJceHpczeZ3y4aFL2oNklmtQe7oye3yoatZUSST3MzLRoub4rWBo5KAv5udXdR+u+4ztB7oGWuzZriq/LDoeXZX6215N0uuus5rw2KenJ2dJdYgAACwefGw+eMK6W6WXLQNu+Ktq3moQbWivbTnpNmy8OnJbb5nrGibr1Tnh89rI/Ozsww6DwAAmxcPmz+ekDamnpT5+OU6VT9fNJW3zFsvSzUvzLiqxZmal20ahe/RlTaFfHfafN9YUTa/vE2Kn3SdV0Xn5eYBAGDz4hHPsYVUMdoB3a9b9WJ2UU1jbww75Mr7svnusWJsvmhTy8Q3zgsAALB58YjneEMadus4KR9Rpz6ZzceYek+brvIh22ICAMDmxSOeE7P5qvWGbb6/YIbNAwAANi8eNv9YNr91bj7X5RO2+Vb/AACAzYtHPCcSUs99n31WXSa2G3Xzx2vz7Wr7okS++3sJAADA5sUjnuMOabMjZGWr9dqeNoX1lpvePPz2aps9ZJrrh/6k+E42/7m+y82yuj9mq81ZcrMou0r385m1H0C7TPe0sakNAABsXjxs/rhCKmtpOvebD29IX/XsETbf3lE+sCp40zNc3FjtUYr96SvxbB4+1bn/fV3m1z4vlQ8AAJsXD5s/Kpbrh6punD5pPwt2oMEYm39ofTeva/QebH49SrkISWa3i2VRHdSo/FncVp4F+yZJbuaLVcjXS5+XnQcAgM2Lh83j1ChqbeTmAQBg8+Jh8zgtlV/MEoU2AACwefGIh82fGIvZWQmXBwCAzYuHOrP507P5JJktmDwAAGxePNSZzQMAADZPxcTD5gEAANg8WxWPkAAAANi8eMTD5gEAANi8eKgzAAAAm2er4mHzAAAAbJ6tigcAAABsXjxsHgAAgM2zQ/GweQAAADbPVsUDAAAANi8e8QAAAIDNi4fNAwAAsHm2Kh42DwAAwObZqngmYTlPztYkyWyx9OEGAABsnq2K5wRtPlP6OaEHAABsnq2K52TiKaR+MaPzAACAzbND8ZykzRdJ+tnCBxwAALB5tiqeU7P5z2l2ns0DAAA2z1bFw+YBAADYPFsVD5sHAABg8+IRzwBZ4Xwyt1ElAABg82xVPKdm82ufn5XbVUrSAwAANs9WxcPmAQAA2DxbFc/+XV6lDQAAYPNsVTynafPuggUAAGyeHYqHzQMAALB5tioeNg8AAMDmxSMeNg8AAMDmxcPmAQAA2DxbFc/RkW1pw+YBAACbZ6viOTGbXy5Slz9L5ranBAAAbJ6tiudU4slS8h4ZBQAA2Dw7FM/p2nySzDw2CgAAsHm2Kp6TigcAAIDNs0PxsHkAAAA2z1bFAwAAADYvHvEAAACAzYuHzQMAALB5tioeNg8AAMDm2ap4AAAAwObFw+YBAADYPDsUD5sHAABg82xVPAAAAGDz4hEPAAAA2Lx42DwAAACbZ6viYfMAAABsnq2KBwAAAGxePGweAACAzbND8bB5AAAANs9WxQMAAAA2Lx7xAAAAgM2Lh80DAACwebYqHjYPAADA5tmqeAAAAMDmxcPmAQAA2Dw7FA+bBwAAYPNsVTwAAABg8+IRDwAAANi8eNg8AAAAm2er4gEAAACbZ6viAQAAAJsXD5sHAABg8+xQPGweAACAzbNV8QAAAIDNi0c8AAAAYPPiYfMAAABsnq2KBwAAAGyerYoHAAAAbF48bB4AAIDNs0PxsHkAAAA2z1bFAwAAADYvHvEAAACAzYuHzQMAALB5tioeAAAAsHm2Kh4AAACwefGweQAAADbPVsXD5gEAANg8WxUPAAAA2Lx4xAMAAAA2Lx42DwAAwObZqngAAADA5tmqePA0WcyS2WJ57FEu0zBdLQAoub+9Pn9z8aurD/fmgs2zVfEcrWeenZ0l86V/DfY2h+mvm7/Pfnhc7vwg88cXFE7dhC5fXLx+dbdrG4RZrd7fXK5dMzsuLl/drka9/u3V6xcXl29XO7Y5xfOKHCvtKv15R2+POod31w+fnfPb1XP/ILB58bD5U7f55TwJKujhzqxvpCy6dnjHaPNdKw9gWyf7sJakm4+7tkGYj69KB81NdOyiKO3h4vr9rm1O8bxix8pWm+c3Xbn5x5xDK2E2Lx42z+b3PodZbKFfHanN83lM6PJHmvd9Kry/eZ3mZT9uXwFylMutA53XU5hDHx82Lx42z+b3Poc9IRytzR91aDgh8oxmbw1ATBv0CeKOxdwxdRoHruU42Hk9hTlMU/4K+tm8eJ6YzS8X81mSFnakJLN56M7L9b2Om0Zn1UxsV1lIIGE7NFYpssu8GjtrFbwVtBZREmq0nM86G4yx+b5+JprD4cDqypwOWEQ034NCr0daB5dfh3SMYh7CK43ubxSKLrMGhB87edJuLnV/9+HV1eWLojri/ObD+9WQ6HSkSOtdXb4KZWqH26w+vi3LrwPxxMQc22ZIEGPPPctM99dp9LYJ54Z3WqQd6rwGxlp93FyFq+ue5PfOczji/VOLah1YWtCvSo3Ni+dJxZP5YZO6cS3DjTbiFs7Ltn46PFbm0rNZctYvvfkCoq9RcLDNWNE2P9DPZHMYI/PR8zORzVcHms0rcx6Or/97jXIC6Dz69GWgACCmTafK31acZiM3Fc8LinvA3op7HPsqpyPa3F2ft+Op10kPxzzYJjuprqMcbtS571YKFfTUWJluXKzDnFfUWK0r3mnME5WTbf3+8dUWmxfP07P5NJG8bFhnxclyc67mpJfzhreFdL79s+GxNsqb5NntbKi6IxYun2wy4MuHvmYtB3/4yXIzVi11HGnzg/1MN4cRMl+dn1n3/Ey5ysvy8xUP71H2gey83Dy2Tq+OadNJdk/h5du78uWr+wcfqt6nGOq/ZZmFtF1dv1+tKinSai42ok0miPV4UoGrjhUR82Cbh5PqMdGrSrPhc/88ze2bWy4SWp0c7Lyixlo9XN/8cg98gzTFHMa8f7KwLy5f3a3uyzZjV01snq2K5wTi6fC4jZIFFa0jg91Ksw/lYRfBVUHTlYMp/j5/TWMOp70b5UFhao36+5lwDjt/2HLs/vmZ0OazgYq1SPo/w1vx0HVsq9oD9TO71ftGlOiEJC8zpIpUZYbUH0ZEm3Ssqqut7tcVEXWjnbj0qE8Qo87980S3b7Yb7HTH56HOK1bEh3qbYg4j3j/txWHHubN5diieJ2DzjZrvYBXNsHQ2RS4sfQNjBc202XOEMoarWmp1HlE2H9HPlHM4XHseMz/Tr+lqI7B57IHJyoh7/ajIl1dTlYOi01hCTFQj0VO5URO4wZgj2wwKYsy5FwuVCb5Cafa808U92HnFS39/b7vPYcz7J1tSNkN1CyybF89TjKdLagcqUgJKV2/Yraq9teMxtjq860yvqddsvr/SJqafSeeQzeNZEtaO8W1ihP6mdqvofYzk1cad6DuEduXGxeX51XWlaiIy5vg2428VDc35ROuuumTvuBXjoc4rXvr7N3SfYA4j3j/hGKb5HLF5tiqe44onTz7Xtmmp61rYL7tNNFO50O+Hxxph8xG5+f5amKi6+ajtKqecw7hKGzaPp8QjPEYn3QHm9YvhW2DzWoWNvU20TfgWj+8JxzymTd+gMee++eEETwOo3s3cKhoZeTUPdF7xF66/twnmMCaM0P3iwXNn8+xQPKceT0w9d0Aga3XUIZeLTjtvY/OdG2IOjLWFzUf0s7c5PEWbP/3HEODgHKTGpkeY6gXxddFZj9vYiGaiQvZtH8YZU/Tc1aZXEGPOfdKl12YG0qF3LaA6xHnFS3//lzMTzOF2Nt9x7myeHYrnadh8JYlc7vLeMuxyj5nNRvBtbUubzhZpt029HDHWkK0W94LONvvINPa0KfeQCe77Hm3zEf1MPYf93zyMsvl8953ZVna9jc0PyPxmYx9/RFAT3/0/EfP9TbrXe8Vs7u+yLUE2wpTvd54PtHpfqV1pbTJTfQ7oegOZV7VkZ0SbfLOR6/ernWKOaROjmHHnXrHMbMTVKtvn/u1qbJuy5OP61a4X92Dn9Tm26Ly2nMv2F/o48RxGvX/yB9ZmPVRqsTwFls2L56nFEyr5TpKhHdeTbO/xgLdlPpckIbuMGSvWVoO3pwZ3sRxXy9420qF+Jp/DuKdHxa5Ltt6Nfgubj5N52Xs0Mp3bZZrH2vzr4K7bjd3fX7RuKGwnOAMbeLdKFyLapLrWewtsTMxR5xWzKIo7945N9LdoU5mBHS/u4c5r5L43g3c27zSHw++f6HNn8+xQPE8gnuqDTtPnnC4DGzAuF/Nix5Zsn/POTRoLhQzb6OBYI2y1/mDV0CNaQxvNjLb5oX6mn8O+SqJxlTbVPeP3bvMRBT+lz8vO43Pcsz93ej5ozY7Wednz0pDSWwYDT1S9LR7Hs35u6+pzR0n3Otta7eom+BTYwTarzVM8gzYWE3PceeVu1zuTkef+YLSvyuGuLjsePhrRJrx/4ngOeV7RjzuoDrq+9Kt9zOHQ+yd7E5bnftd97myeHYrn9G0eR0dMuX68kh8kFx4XcsfNAniOTLyTOgZ4f2TPDFqL5hTrtEOe13vPXWLzbFU8bB4j5Xi3HHZZnb9/eV7EPI/2gPHg+F1+qq1REDPb97cRT7w6XDhF/frO+40e8LyObA7B5sUjHpwCUYbcuxY4O8w9p3lavm+c6l0DXB44ELXy/cdfF9VrwXfQ4kOe15HNIdi8eMSD02KdzN7KxXO/7tuJ57Bh5iuTwL0NAPZGsSNhV+X6I9l8Ub9+Eud1ZHMINi8e8QAAAIDNi4fNAwAAsHm2Kh4AAACwefGIBwAAAGxePGweAACAzbNV8bB5AAAANs9WxQMAAAA2Lx7xAAAAgM2Lh80DAACwebYqHgAAALB58YgHAAAAbF48bB4AAIDNs1XxsHkAAAA2z1bFAwAAADYvHvEAJ8FilswWS/MwjmU6beYBANi8eNj8ngTt7OwsmVM0Fz+m8cm8Ve5//O7lV7O/+8evv/3lCNZA65kj9ADA5sXzjOJZzpND/fmPFbrlYj5LUitJnS6ZzZ9IknaZntezVK0Rb7Os6elM06dvv3lQ+Yfji1+/+yms+z9//+U3X7/86rsfDvUps2gGADYvHjb/SDa/zGSkydOQk+zcnqXNR6fms/fjSV3vodx8qfsHsXk+DwBsXjxs/hGNLnf52XxZtlquU/UzNn/SRL/LnmI11qFt/lkvGwGAzYuHzXc1W0QVvzSb1Vq1TS2X9/JnUVnFkKo0z6IcqhpQVzg9baLOPR08DbrSMknKZuGvG7b91iHku43TT5uk/7fMC6nTM5uHL0Y16NCNp7XTfzivlM1UV89+3jHaJuFeC2gx4s24jnfdQf76h9nNKpdGzeEv36dJ9C++/LnLuTfVMll5zK+/Kqpovvn6yx9/uq++4ufvit/mbV7+WPts//Cu+tvG0Ujkf7r/+buX31TG+rnW1f2PWSTr9UDxVcC6ky9//NTzqe6Zl0XWgPADYPPsUDzPw+Y3BtbnoXm9c3ejhofm7atGUfwoIn8fY/OzdtyVl8W0iTr33GfnrZZ5q0ltPni96jNbNGmP2zz7B3lvXrR6PMFrWm+Vj72Y98xjPtWtGWqcRt97MbX56sWazSsjxlrpT18O2Xxu5E1TLz37+/vpbb5M3tfHqlThlzb/7Y9fNwYNncvnoS85yrcGnQfA5tmheJ6BzZcJ9CJvuyzMrfqqwvs2zdY1MrUSmapgBFS+Zo89t75G23wt3VwEvRGcEW36z32jvGVuexn8lmGKAoiQpTX6rSh4OY3NZG1V05OONuXZVwqfls3xax0Vp984+1pAxVjtueh9KxZXK8vPV1x0VG1ObvMvAyntuuj//N3Ld9//8MunlnCHiuNzrQ92+3mw0qYw9S+KfPynYhmwMfX7jcR/8fJd+hVB8T1Dx623A9l5uXkAbJ4diuf52HxYQZu2GlMjs/Guojw+NOqymg0PSf0Imw+U1jTqUfrbxJ17uQnLcmBeJ7D5UUuZ1oqjv02jUXBvmdZplaZePf1Q5U9oERCYnq63UHXSa1/hjLL5WgI+VeQy3Z7ZfPcuk4WyB3LhO9l8s8KnurTYlP0Uxl9pVryw+nXBqGU6ALB5diieZ2HzXQZa/3mUOtRrMnqfDbSs16rX2sYLbVDDG0X6fW3izn3kLZ47CVZEnU24XKnpvMH1VC2+mCn83L8wCwS0XJb7j4a/l+m1+doXO9U4o+uV0rR37sRFCjw1+DzVXRHuX3769t3XL5v1NlPbfD5u8AjYfEddDZsHADYvHjY/oODL/tdFKVXWKBlz4+ImUd9v6nu0+cFzP6TNR9TZTDQ/4ZNqvS5iQ8kix1/WuWc3EnfM6p5tvpKPz/LfhYWvrbqS5w7XzbN5AGDzbFU8Tys3P2DGHS+Jute1bYOLXW21oYvDbeLO/YA2HxipNZnx6fvexU731jl9dzb3n/VAHn+40mZ3m0/NO7X29D9e/lhIfPnzdaNS9L/+ttxbZk+VNkX5e8drP7N5AGDz4hHPbn/0O57MGb7xcmhrnHqx80C1TddYbSdetjSx2/ibpf59beLO/YA231XnEtycc2ixE0zx19c6oe1E2zvj9J9RW7273Hv4LtgJbL6oqEk3h/n6218y1f76y3dpzj7LhYduMO3z6Z3q5osS+Y7y961t/inu3A8AbF484tnC5gOb1QT3tCn3P9nUUPTtaVN2W78Lc5bWYFR3f8w3P+msC19WtkZs2nz1rstFa2vyiDZx5x5t82Xki4EN9Tu+u1jWNiKp3S7cX/YTTM1X/r/sqj2Di/ysN2O17mWNvfd50Of71gYjbb5zDjeVLblA17aLyXW8Ydiffqi0GW/znzd71IQalL/NN6vJ9H1dtf9deUvueJsfkPmOPaUAgM2zQ/Gcqs337igebhIQqLNR+823jaIrltD+7vVfz2azjh0qu7uJaRN17vE1DYHeWtO4DK1OOkPOd5VvbAYZVVk/cFbDY0Xlf7s2wQm+auDpUdE23zeHm3L5eia+5sqtreLXT3Sq+3Rwk/jwxvOhKvzq5jk/ffnNwJ70o20+TuZl7wGweXYonudh858bydmzuEfBRjwLtvUw2M2OJ/2PnV1Wnzq6WFYffxpW0aT6pUF8m6hzH1WhXJ+iYAa++rjT3hPfFC1tcVNB68yDodYmudlRxImHVhc9Pt9dsTUuN98zh6WFl2ZcqZKvPNHph3dlPj57CmzjyVNjbD5/smzfs2B/+LF8Fuz6t/Xd7sfafPSFUVkPgM2zQ/GcfjxPk5gK9Sme5XSKHPftkTHFO5hgCkfeiw4AbJ6tiofNs/kjmpsjlrioO6rR/7YeuL7l1y5kHgCbZ4fiYfNs/rQ4hZ0Lo4wUXRe3997Wap2VGQbA5tmheNg8mz9N3zt2jVsnj2Xn9zFt+UopidsdFgDYPFsVD5sHAABg82xVPAAAAGDz4hEPAAAAm2eH4mHzAAAAbJ6tigcAAABsXjziAQAAAJsXD5sHAABg82xVPGweAACAzbNV8QAAAIDNi0c8AAAAbJ4diofNAwAAsHm2Kh4AAACwefGIBwAAAGxePGz+2bGYJbPF0jxMzzKd2qd33Y/7vAAAbF48bP5ZqfzZA8l8vza/nCfrYU7CAO9mZxdnZ282R3K73KZN5suTnHY+fWdJMptPtO7a6bpPdV4AADYvHvEcA8u7+ewqSS5OT24OJ9mZPD43m59qtVTYfM7Oa6/O6/7//cv1//m//Of/q3H8h3/5L//yPx5lFQgAYPPiEc8hlPgqU7pTs/nM6Q4jZCdk8y1l7zT1uDbTee9yuZhnWfGdZrLnusfbPJ8HADbPVsXD5h+X1MYOJWPP2OanPvmst+2767vua5v/D//y4//9dC8qALB5diieJxHP8jZJJWwtIsvbWZJXTSSzppMtl3ez5KooqLhKZnebBoubWq1F/Ujmq7rrX1X0qVDA2V18PHk/a2tcLWZFSMnNtjaeJWjDJhb2xR0rrfcsfjHzE3Ut9mDzE38LslNvfdd9rM13RTL9+ycfaLf3z7L4YiO7A6HrBoTFFGMBAJtnq+I5kM3P8//YHBWrK5Pu9eNmsT+b746n7CdJ6g1qPU8kdW0fyyuttxbSQ9l87/w8ms1P+0XILjY/cN1H2nzneU38/sm722UGyy6qhOahbEjnAbB5tiqeE7D5LH2bJulW89wCC1kv2xT5+GWp73Xz66+0GWXzPfFUlxbZUqGMp1w5TCZ1TR/b1eV7bLZxg+egbA3ZfN/8PKLNT5edX853qLQZuu6jbb7zvKZ9/+yam88Xk/NlubDLtuUJRSQ3D4DNs1XxnJTN3yw6tLv435tFTQou2j+c1OYH4wm9KmCi28p127Nniyl2vkn7OIzNd8/PI9p8xPopSki3mpv46951F2y333ef16Tvnx0XQKE3X+dbEgDYPFsVzwnZfKcHl6nxN33FNpPbfLeXjzTRGLUcNJmqae/oYntXp5j5eSI2n8x2u1niQDY/6ftnJ4JVNuppALB5digeNv/kbb58TNBEO5yz+V1tfpJ96wdsflSlzcB5Tfb+2f2s2TwAsHnxPE+bH7S0k7T5SDXMdyFJpnr+0SEqbZ62ze/qnjGVNtPZ/ITvn72eNQCweXYonido82WJ/PCOMWNtfrsK+GltPsYtNzsK7vM5QY9r84FrsSebPw6jnPwu2J7zOsz7J/6s6TwAsHnxPC+b32xAmW8yk71wtZjfzBp7yGz2ugkpXX1nlWV1X8vHs/nhHSPrBrazj6UlF8khdqjsm5+Ya7Efm99Z5icy0oHrPtUOlVO/f3bc06bYU2c2XyzjG6vBAcDm2ap4Ttvm1wpy1b+XfFPpwm3avy32RH9Em+/P0rZ3FCxS6FsqTnEf4v4MKW5+Iq5Fz2MESmWPabMPmZ9gBoefHhW6C/a//Mv/GCPzU79/dt9vvuMroEB/m5aS+QDYPFsVz6nb/Lrh4rbyLNg3SXIzX6wCf+OXd/O6+teMf/1A2c3jXRfLoij/MW3+c/e+geHdwXf1sWPIzcdciz3Y/M41858nrBbp3S9ynM13nNce3j9TPAt2uZjPkmTQ5idcOQEAm2er4sF+1zTKiZ/lNE8U0NN9++z+sDQAYPNsVTw4pLbIQe6Px74DdF/X/SjPa5K5OYpdNQGAzYtHPHjuVnY81nyU91PudN2P+Lx2nxNF8wDYPFsVD5s/MeVczOzf8Qyndofgnuhbptgff7Zg8gDYPFsVD5sHAABg82xVPAAAAGDz4hEPAAAAm2eH4mHzAAAAbJ6tigcAAABsXjzsGQAAAGxePAAAAGDz7Fk8AAAAYPPsmc0DAACAzYsHAAAAbJ6tigcAAABsnj2zeQAAALB58bB5AAAAsHnxAAAAgM2zZ/HUWM6TszVJMlssfZgAAADYvHhO0OYzpZ8TegAAADYvnpOJp5D6xYzOAwAU36cGAAAACUlEQVQAPAb/PwRRinZNITHYAAAAAElFTkSuQmCC;" vertex="1" parent="EG56wsyXFgtEofnX6Fdd-1">
          <mxGeometry x="4145.21" y="585" width="631.61" height="355" as="geometry" />
        </mxCell>
        <mxCell id="4oq_FEflVRpCkMuP0k5V-36" value="thread-A" style="ellipse;whiteSpace=wrap;html=1;rounded=0;shadow=0;strokeColor=#10739e;strokeWidth=1;fontFamily=Comic Sans MS;fontSize=24;fillColor=#b1ddf0;" vertex="1" parent="EG56wsyXFgtEofnX6Fdd-1">
          <mxGeometry x="3580" y="900" width="120" height="80" as="geometry" />
        </mxCell>
        <mxCell id="4oq_FEflVRpCkMuP0k5V-37" value="thread-B" style="ellipse;whiteSpace=wrap;html=1;rounded=0;shadow=0;strokeColor=#10739e;strokeWidth=1;fontFamily=Comic Sans MS;fontSize=24;fillColor=#b1ddf0;" vertex="1" parent="EG56wsyXFgtEofnX6Fdd-1">
          <mxGeometry x="3550" y="500" width="120" height="80" as="geometry" />
        </mxCell>
        <mxCell id="4oq_FEflVRpCkMuP0k5V-46" value="" style="endArrow=classic;html=1;rounded=0;shadow=1;fontFamily=Comic Sans MS;fontSize=18;fontColor=#000000;curved=1;exitX=1;exitY=0.5;exitDx=0;exitDy=0;fillColor=#e51400;strokeColor=#B20000;" edge="1" parent="EG56wsyXFgtEofnX6Fdd-1" source="4oq_FEflVRpCkMuP0k5V-36">
          <mxGeometry width="50" height="50" relative="1" as="geometry">
            <mxPoint x="4100" y="640" as="sourcePoint" />
            <mxPoint x="4320" y="777" as="targetPoint" />
          </mxGeometry>
        </mxCell>
        <mxCell id="4oq_FEflVRpCkMuP0k5V-49" value="" style="endArrow=classic;html=1;rounded=0;shadow=1;fontFamily=Comic Sans MS;fontSize=18;fontColor=#000000;curved=1;exitX=0.967;exitY=0.677;exitDx=0;exitDy=0;exitPerimeter=0;fillColor=#e51400;strokeColor=#B20000;entryX=0.229;entryY=0.352;entryDx=0;entryDy=0;entryPerimeter=0;" edge="1" parent="EG56wsyXFgtEofnX6Fdd-1" source="4oq_FEflVRpCkMuP0k5V-37" target="4oq_FEflVRpCkMuP0k5V-35">
          <mxGeometry width="50" height="50" relative="1" as="geometry">
            <mxPoint x="4140" y="550" as="sourcePoint" />
            <mxPoint x="4290" y="640" as="targetPoint" />
          </mxGeometry>
        </mxCell>
        <mxCell id="4oq_FEflVRpCkMuP0k5V-50" value="&lt;b&gt;2个线程分别进入else分支&lt;/b&gt;" style="rounded=1;whiteSpace=wrap;html=1;shadow=0;strokeColor=#E3C800;strokeWidth=1;fontFamily=Comic Sans MS;fontSize=18;fontColor=#000000;fillColor=#E3C800;" vertex="1" parent="EG56wsyXFgtEofnX6Fdd-1">
          <mxGeometry x="4430" y="460" width="250" height="60" as="geometry" />
        </mxCell>
        <mxCell id="4oq_FEflVRpCkMuP0k5V-51" value="&lt;b&gt;B获取item值之前，A已经修改了next节点的item值，item != null&lt;/b&gt;" style="rounded=1;whiteSpace=wrap;html=1;shadow=0;strokeColor=#E3C800;strokeWidth=1;fontFamily=Comic Sans MS;fontSize=18;fontColor=#000000;fillColor=#E3C800;rotation=-15;" vertex="1" parent="EG56wsyXFgtEofnX6Fdd-1">
          <mxGeometry x="3708.81" y="810.94" width="290" height="80" as="geometry" />
        </mxCell>
        <mxCell id="4oq_FEflVRpCkMuP0k5V-52" value="&lt;b&gt;thread-B准备获取next的item值；&lt;/b&gt;" style="rounded=1;whiteSpace=wrap;html=1;shadow=0;strokeColor=#E3C800;strokeWidth=1;fontFamily=Comic Sans MS;fontSize=18;fontColor=#000000;fillColor=#E3C800;rotation=15;" vertex="1" parent="EG56wsyXFgtEofnX6Fdd-1">
          <mxGeometry x="3719.41" y="529.66" width="298" height="60" as="geometry" />
        </mxCell>
      </root>
    </mxGraphModel>
  </diagram>
</mxfile>
